<?xml version="1.0" encoding="utf-8"?>
<!-- Generator: Adobe Illustrator 23.1.0, SVG Export Plug-In . SVG Version: 6.00 Build 0)  -->
<svg version="1.1" id="图层_1" xmlns="http://www.w3.org/2000/svg" xmlns:xlink="http://www.w3.org/1999/xlink" x="0px" y="0px"
	 viewBox="0 0 630 539" style="enable-background:new 0 0 630 539;" xml:space="preserve">
<style type="text/css">
	.st0{fill:#808080;}
	.st1{fill:#FFFFFF;}
	.st2{fill:#24ACC5;}
	.st3{fill:#FA2C0E;}
	.st4{fill:#83C62F;}
	.st5{fill:#FF8F13;}
	.st6{fill:#7D7D7D;}
	.st7{fill:#1F9737;}
	.st8{fill:#0B8935;}
	.st9{fill:#156E2B;}
	.st10{fill:#118E34;}
	.st11{fill:#0E602A;}
	.st12{fill:#126C27;}
	.st13{fill:#218229;}
	.st14{fill:#0B5721;}
	.st15{fill:#EA4A22;}
	.st16{fill:#C43E1C;}
	.st17{fill:#E82B1D;}
	.st18{fill:#1E63AB;}
	.st19{fill:#214093;}
	.st20{fill:#204896;}
	.st21{fill:#1F589E;}
	.st22{fill:#15306A;}
	.st23{fill:#B30B00;}
	.st24{fill:#00C881;}
</style>
<g>
	<g>
		
			<image style="overflow:visible;enable-background:new    ;" width="260" height="314" xlink:href="E2A83B9A.png"  transform="matrix(0.6041 0 0 0.6041 342.6901 264.3716)">
		</image>
		<g>
			<path class="st0" d="M440.4,440.6l-80.9-20.4c-8.4-2.1-13.5-10.6-11.4-19l30-119c2.1-8.4,10.6-13.5,19-11.4l67.8,17.1
				c4.2,1,7.7,3.8,9.8,7.5l9.6,17c2,3.5,2.5,7.6,1.6,11.5l-26.5,105.3C457.3,437.7,448.8,442.7,440.4,440.6z"/>
			<path class="st1" d="M440.1,435.6L362.4,416c-6.7-1.7-10.8-8.5-9.1-15.1l29.2-115.8c1.7-6.7,8.5-10.7,15.2-9l64.7,16.3
				c3.4,0.9,6.3,3.1,7.9,6.1l9.6,17.4c1.5,2.8,1.9,6,1.2,9l-25.6,101.7C453.6,433.2,446.8,437.3,440.1,435.6z"/>
		</g>
	</g>
	<g>
		
			<rect x="407.6" y="320" transform="matrix(0.2527 -0.9675 0.9675 0.2527 -32.5527 670.3821)" class="st2" width="20.1" height="72.5"/>
		<path class="st3" d="M442.6,394L379,377.4c-2.2-0.6-3.6-2.9-3-5.1l4-15.4l70.1,18.3l-4.4,16.9C445.4,393.5,444,394.3,442.6,394z"
			/>
		<path class="st4" d="M454.8,357.7l-70.1-18.3l3.8-14.4c0.4-1.7,2.2-2.7,3.9-2.3l63.9,16.7c1.7,0.5,2.8,2.2,2.3,3.9L454.8,357.7z"
			/>
		
			<rect x="388.9" y="349" transform="matrix(0.2527 -0.9675 0.9675 0.2527 -34.9772 671.1816)" class="st5" width="56.2" height="18.5"/>
		<path class="st6" d="M411.8,351.5l-2.7,10.4l13.5,3.5l2.7-10.4L411.8,351.5z M420.4,362.4l-8.4-2.2l1.5-5.7l8.4,2.2L420.4,362.4z"
			/>
	</g>
</g>
<g>
	
		<image style="overflow:visible;enable-background:new    ;" width="284" height="310" xlink:href="E2A83B99.png"  transform="matrix(0.6041 0 0 0.6041 130.0465 246.2486)">
	</image>
	<g>
		<path class="st0" d="M280.7,387.3l-76.4,33.5c-7.9,3.5-17.2-0.1-20.6-8.1l-49.3-112.4c-3.5-7.9,0.1-17.2,8.1-20.6l64.1-28.1
			c3.9-1.7,8.4-1.8,12.3-0.1l18,7.6c3.7,1.6,6.7,4.5,8.3,8.2l43.6,99.4C292.3,374.6,288.7,383.9,280.7,387.3z"/>
		<path class="st1" d="M277.3,383.6l-73.3,32.2c-6.3,2.8-13.7-0.1-16.5-6.4l-48.2-109.9c-2.8-6.3,0.1-13.7,6.4-16.5l61-26.7
			c3.2-1.4,6.8-1.4,10,0l18.2,7.9c2.9,1.3,5.2,3.6,6.5,6.5l42.3,96.5C286.5,373.4,283.6,380.8,277.3,383.6z"/>
		<path class="st7" d="M252.8,361.3L212.4,379c-3.7,1.6-7.9-0.1-9.6-3.7l-23.8-54.2c-1.6-3.7,0.1-7.9,3.7-9.6l40.4-17.7
			c3.7-1.6,7.9,0.1,9.6,3.7l23.8,54.2C258.1,355.4,256.5,359.7,252.8,361.3z"/>
		
			<rect x="183.9" y="321.1" transform="matrix(0.9159 -0.4014 0.4014 0.9159 -115.3374 107.4279)" class="st8" width="29.6" height="15.7"/>
		
			<rect x="210.5" y="309.5" transform="matrix(0.9159 -0.4014 0.4014 0.9159 -108.4468 117.1205)" class="st9" width="29.6" height="15.7"/>
		
			<rect x="216.1" y="322.2" transform="matrix(0.9159 -0.4014 0.4014 0.9159 -113.0873 120.4259)" class="st10" width="29.6" height="15.7"/>
		
			<rect x="222.1" y="336.1" transform="matrix(0.9159 -0.4014 0.4014 0.9159 -118.138 124.0132)" class="st11" width="29.6" height="15.7"/>
		
			<rect x="189.5" y="334" transform="matrix(0.9159 -0.4014 0.4014 0.9159 -120.0534 110.6293)" class="st12" width="29" height="15.7"/>
		
			<rect x="195.5" y="347.8" transform="matrix(0.9159 -0.4014 0.4014 0.9159 -125.1013 114.218)" class="st13" width="29" height="15.7"/>
		<g>
			<path class="st14" d="M211.4,360.3l-22,9.7c-4,1.8-8.7-0.1-10.4-4.1l-9.7-22c-1.8-4,0.1-8.7,4.1-10.4l22-9.7
				c4-1.8,8.7,0.1,10.4,4.1l9.7,22C217.2,353.9,215.4,358.6,211.4,360.3z"/>
		</g>
	</g>
</g>
<g>
	
		<image style="overflow:visible;enable-background:new    ;" width="245" height="303" xlink:href="E2A83B96.png"  transform="matrix(0.6041 0 0 0.6041 265.3651 118.7833)">
	</image>
	<g>
		<path class="st0" d="M366.7,288.7L284,277.2c-8.6-1.2-14.5-9.1-13.3-17.7l17-121.5c1.2-8.6,9.1-14.5,17.7-13.3l69.3,9.7
			c4.2,0.6,8.1,2.9,10.6,6.4l11.4,15.9c2.3,3.3,3.3,7.3,2.8,11.3l-15,107.5C383.2,284,375.3,289.9,366.7,288.7z"/>
		<path class="st1" d="M365.7,283.7l-79.3-11.1c-6.8-1-11.6-7.3-10.7-14.1l16.6-118.8c1-6.8,7.3-11.6,14.1-10.7l65.9,9.2
			c3.4,0.5,6.5,2.4,8.5,5.2l11.4,16.3c1.8,2.6,2.6,5.8,2.1,8.9l-14.6,104.4C378.9,279.9,372.5,284.7,365.7,283.7z"/>
		<g>
			<path class="st15" d="M341.7,179.6c-18.2-2.5-35,10.1-37.5,28.3c-2.5,18.2,10.1,35,28.3,37.5c18.2,2.5,35-10.1,37.5-28.3
				c0-0.4,0.1-0.7,0.1-1.1l-32.9-4.6L341.7,179.6z"/>
		</g>
		<g>
			<path class="st16" d="M322,228.2l-23.8-3.3c-4.3-0.6-7.3-4.6-6.7-8.9l3.3-23.8c0.6-4.3,4.6-7.3,8.9-6.7l23.8,3.3
				c4.3,0.6,7.3,4.6,6.7,8.9l-3.3,23.8C330.3,225.8,326.3,228.8,322,228.2z"/>
		</g>
		<path class="st17" d="M347,172.4l-4.9,35.3l34.2,4.8C378.9,193.4,365.9,175.7,347,172.4z"/>
	</g>
</g>
<g>
	
		<image style="overflow:visible;enable-background:new    ;" width="270" height="309" xlink:href="E2A83B89.png"  transform="matrix(0.6415 0 0 0.6415 137.745 119.8164)">
	</image>
	<g>
		<path class="st0" d="M284,280.5l-85.5,23.2c-8.9,2.4-18-2.8-20.4-11.7L144,166.2c-2.4-8.9,2.8-18,11.7-20.4l71.7-19.4
			c4.4-1.2,9.1-0.5,13,1.8l17.8,10.8c3.7,2.2,6.3,5.7,7.4,9.9l30.2,111.3C298.1,269,292.9,278.1,284,280.5z"/>
		<path class="st1" d="M281,276l-82.1,22.3c-7.1,1.9-14.4-2.3-16.3-9.3l-33.3-123c-1.9-7.1,2.3-14.4,9.3-16.3l68.2-18.5
			c3.6-1,7.4-0.4,10.5,1.6l17.9,11.2c2.8,1.8,4.9,4.6,5.8,7.8l29.3,108C292.2,266.8,288.1,274.1,281,276z"/>
		<path class="st18" d="M258.8,248.8l-45.2,12.3c-4.1,1.1-8.3-1.3-9.4-5.4L187.7,195c-1.1-4.1,1.3-8.3,5.4-9.4l45.2-12.3
			c4.1-1.1,8.3,1.3,9.4,5.4l16.5,60.7C265.3,243.5,262.9,247.7,258.8,248.8z"/>
		
			<rect x="190.8" y="194" transform="matrix(0.9651 -0.2617 0.2617 0.9651 -45.2107 65.1242)" class="st19" width="62.2" height="16.7"/>
		
			<rect x="195.2" y="210.1" transform="matrix(0.9651 -0.2617 0.2617 0.9651 -49.2707 66.8283)" class="st20" width="62.2" height="16.7"/>
		
			<rect x="198.5" y="222.4" transform="matrix(0.9651 -0.2617 0.2617 0.9651 -52.3942 68.1378)" class="st21" width="62.2" height="16.7"/>
		<g>
			<path class="st22" d="M215.5,241.3l-24.7,6.7c-4.5,1.2-9.1-1.4-10.3-5.9l-6.7-24.7c-1.2-4.5,1.4-9.1,5.9-10.3l24.7-6.7
				c4.5-1.2,9.1,1.4,10.3,5.9l6.7,24.7C222.6,235.5,219.9,240.1,215.5,241.3z"/>
		</g>
	</g>
</g>
<g>
	<g>
		
			<image style="overflow:visible;enable-background:new    ;" width="282" height="325" xlink:href="E2A83B8A.png"  transform="matrix(0.6041 0 0 0.6041 342.6901 151.4047)">
		</image>
		<g>
			<path class="st0" d="M433.1,333.3l-76.2-34.1c-7.9-3.5-11.4-12.8-7.9-20.7l50.1-112c3.5-7.9,12.8-11.4,20.7-7.9l63.9,28.6
				c3.9,1.8,6.9,5,8.4,9.1l6.5,18.4c1.3,3.8,1.2,8-0.5,11.6l-44.4,99.1C450.2,333.3,441,336.9,433.1,333.3z"/>
			<path class="st1" d="M433.6,328.3l-73.2-32.8c-6.3-2.8-9.2-10.2-6.3-16.5l48.8-108.9c2.8-6.3,10.2-9.1,16.5-6.2l60.9,27.3
				c3.2,1.4,5.6,4.1,6.8,7.4l6.4,18.8c1,3,0.9,6.2-0.4,9.1L450.2,322C447.4,328.3,440,331.1,433.6,328.3z"/>
		</g>
	</g>
	<path id="Path_102650" class="st23" d="M451,265.9c-2.3-6.5-15-9.8-18-10.8c-1.6-4.5-2.8-9.2-3.5-13.9c3.6-3.7,6.5-8,8.7-12.6
		c1.9-4.3,2.1-9.4-2.5-11.4c-1.7-0.8-3.6-0.6-5.1,0.5c-3.6,2.5-5.8,9.8-5.8,18.4c-5,5.6-10.6,10.8-16.5,15.4
		c-5.4-0.3-17.5-0.2-20.7,4.5c-1,1.4-1.1,3.2-0.4,4.7c0.6,1.5,1.9,2.7,3.4,3.2c6.1,2.7,15.8-2.9,23.5-8.5c5.4,0.5,10.8,1.4,16.1,2.7
		c2.2,5.8,6.5,10.5,12.1,13.3c4,1.8,6.3,0.7,7.5-0.5C451.3,269.6,451.7,267.6,451,265.9z M445.7,266.9c-0.8,1-2.8,1.5-5.1-0.2
		c-2.7-2.2-4.9-4.9-6.5-8c3.7,1,7.2,2.4,10.5,4.3C446,263.8,446.5,265.6,445.7,266.9z M433,220c0.5-0.4,1.2-0.5,1.8-0.2
		c1.4,0.6,1,2.5,0.3,3.9c-1.8,3.4-4,6.6-6.6,9.4C429.1,225.8,431.4,221.3,433,220z M418.3,252.3c2.8-2.3,5.4-4.8,7.8-7.5
		c0.5,3.1,1.2,6.2,2.1,9.2C425,253.1,421.7,252.5,418.3,252.3z M405.5,254.5c-6.9,4.5-12.4,6.9-14.7,5.8c-0.4-0.1-0.8-0.4-1-0.8
		c-0.2-0.7,0-1.3,0.5-1.9C391.6,255.6,397.6,254.5,405.5,254.5L405.5,254.5z"/>
</g>
<g>
	
		<image style="overflow:visible;enable-background:new    ;" width="245" height="300" xlink:href="E2A83B8B.png"  transform="matrix(0.6041 0 0 0.6041 247.8462 243.2281)">
	</image>
	<g>
		<path class="st0" d="M351.6,411.6L267,401.4c-8.8-1.1-15-8.9-14-17.4l14.6-121.6c1-8.6,9-14.7,17.7-13.6l70.9,8.5
			c4.3,0.5,8.3,2.8,10.9,6.2l12,15.7c2.5,3.2,3.6,7.2,3.1,11.2L369.4,398C368.4,406.5,360.4,412.6,351.6,411.6z"/>
		<path class="st1" d="M350.5,406.6l-81.2-9.8c-7-0.8-12-7.1-11.2-13.9l14.3-118.8c0.8-6.8,7.2-11.7,14.2-10.9l67.5,8.1
			c3.5,0.4,6.7,2.3,8.8,5.1l12,16.1c1.9,2.6,2.7,5.7,2.4,8.8l-12.5,104.4C363.9,402.6,357.5,407.4,350.5,406.6z"/>
		<g>
			<polygon class="st24" points="292.9,320.8 315.3,320.4 314.6,326.4 298.5,326.3 297.8,331.7 312.1,332.2 311.4,337.6 
				297.3,336.5 296.6,341.8 312.5,343.8 311.8,349.7 289.8,347.1 			"/>
		</g>
		<g>
			<polygon class="st24" points="346.5,319.3 342.4,353.4 335.1,352.5 323.8,333 321.6,350.9 314.9,350.1 318.5,320.2 326,319.9 
				336.7,339.4 339,319.6 			"/>
		</g>
	</g>
</g>
</svg>
