<?xml version="1.0" encoding="utf-8"?>
<!-- Generator: Adobe Illustrator 23.1.0, SVG Export Plug-In . SVG Version: 6.00 Build 0)  -->
<svg version="1.1" id="图层_1" xmlns="http://www.w3.org/2000/svg" xmlns:xlink="http://www.w3.org/1999/xlink" x="0px" y="0px"
	 viewBox="0 0 636 61.1" style="enable-background:new 0 0 636 61.1;" xml:space="preserve">
<style type="text/css">
	.st0{fill:#E72410;}
	.st1{fill:#EA5504;}
	.st2{fill:#E8380D;}
</style>
<path class="st0" d="M0.3,37.4c0,12.7,10.3,23,23,23c10.4,0,19.2-6.9,22.1-16.5l-22.1-6.5v-0.1l0,0v-23C10.6,14.4,0.3,24.7,0.3,37.4
	"/>
<path class="st1" d="M63.5,18.2L63.5,18.2c0-9.6-7.8-17.4-17.4-17.4H24v36.1h20.8C55.1,36.9,63.5,28.5,63.5,18.2"/>
<g>
	<path class="st2" d="M85.7,34.2c1.3,1.8,2.5,3.3,3.4,4.7l-4.3,3.2c-1.3-1.8-1.9-2.8-2-2.9c-1.6,2.2-3.7,4.6-6.5,7.1l-3.4-4.4
		c3-2.6,5.2-5,6.6-7.3c-1.1-1.6-3.1-4.3-5.9-8.2l4.1-2.6c1.4,1.9,2.9,3.7,4.3,5.6c0.6-1.8,1.1-4,1.4-6.7h-9.1V18h14.3v4.6
		C88,27.4,87,31.3,85.7,34.2z M100,37c1.6,1.7,3.7,3.2,6.3,4.7l-3.4,4.7c-2.5-1.8-4.6-3.5-6.2-5.3c-1.8,1.9-4.2,3.8-7,5.7l-3.4-4.4
		c2.9-1.7,5.3-3.5,7.1-5.4c-2.1-3.2-3.7-7.2-4.8-11.9l4.9-1.3c0.9,3.6,2,6.5,3.2,8.6c1.4-2.6,2.2-5.8,2.4-9.7h-9.8v-4.8h15.4v4.8
		c-0.6,3.3-1.2,5.9-1.8,7.8C102.2,33,101.2,35.1,100,37z"/>
	<path class="st2" d="M139.4,25.2c-0.4,5.2-1.3,9.4-2.8,12.6c1,1.4,2.4,2.8,4.2,4.1l-2.1,4.7c-1.8-1.7-3.3-3.3-4.5-4.8
		c-1.1,1.5-2.5,3.2-4.3,5.1l-2-3.1c-0.8,0.5-1.6,1.1-2.4,1.6c-0.3,0.2-0.7,0.3-1.2,0.2c-0.4-0.1-0.7-0.3-0.8-0.7V38h-2v0.5
		c-0.1,1.9-0.4,3.4-0.9,4.6c-0.5,1.2-1.5,2.5-2.8,3.9l-2.5-2.9v2.6H111V36.5c-0.8,0.9-1.6,1.6-2.2,2.2l-1.2-5.2
		c2.5-2.3,4.6-5.2,6.3-8.7l3.6,2.3c-0.6,1.2-1.3,2.4-2,3.6V43c0.8-0.8,1.4-1.8,1.7-2.8c0.3-0.9,0.4-2.3,0.4-4.2v-2h10.3v5.2l2-1.4
		l0.2,2.3c0.7-0.8,1.4-1.6,2-2.6c-0.8-1.9-1.4-4.2-1.8-6.9c-0.2,0.3-0.4,0.5-0.5,0.7l-0.7-1.6v2.7h-12.2v-4h11.7l-0.7-1.4h-8.2
		c-1.8,0-2.7-0.9-2.7-2.7v-5.1c-2.2,3.3-4.6,6.1-7.2,8.3l-1.8-4.8c2.2-1.7,4-4,5.7-6.9l3.7,2.4h2.6v4.8h1v-7h4v7h1v-4.8h3v6.6
		c1.1-2,2.1-5,2.9-9.1l4.5,0.5c-0.4,1.7-0.9,3.2-1.3,4.5h5.6v4.2H139.4z M135.5,25.2h-2.1c0,0.1-0.1,0.3-0.2,0.4
		c0.2,2.6,0.6,4.9,1.1,6.9C134.9,30.7,135.3,28.2,135.5,25.2z"/>
	<path class="st2" d="M169.6,25.3c-1.4,4.7-3.6,8.7-6.8,11.8c3.2,1.9,7.3,3.3,12.1,4.2l-3.4,5.2c-5.3-1.6-9.7-3.5-13-5.8
		c-3.4,2.3-7.7,4.3-12.9,6l-3.3-5c4.7-1.2,8.7-2.8,11.8-4.7c-2.9-3-5.1-6.9-6.7-11.7h-4.8v-4.8h13.2V16l6,0.9v3.7h12.8v4.8H169.6z
		 M163.6,25.3h-10.4c1.1,3.3,2.9,6.1,5.2,8.4C160.9,31.4,162.6,28.6,163.6,25.3z"/>
	<path class="st2" d="M197.8,33.3v6.1c0,0.6,0.1,1,0.4,1.3c0.2,0.2,0.7,0.3,1.3,0.3h1.2c0.8,0,1.4-0.1,1.7-0.4
		c0.3-0.3,0.5-0.8,0.6-1.6c0.3-2,0.4-3.6,0.6-4.8l5.6,1.9c-0.3,2.2-0.7,4.2-1.1,6c-0.3,1.4-0.9,2.4-1.8,3c-1,0.6-2.5,0.9-4.7,0.9
		h-3.6c-2.2,0-3.7-0.4-4.5-1.2c-0.9-0.8-1.3-2.4-1.3-4.6v-3.4c-1.1,0.6-2.2,1.2-3.5,1.9l-2.6-4.1v12h-5.3V32.5
		c-0.6,0.9-1.6,2.1-3,3.7l-1.3-7c3.1-3.7,5.5-8.2,7.3-13.4l5.5,1.9c-1,2.5-2.1,4.8-3.3,6.8v9.2c2.2-1.1,4.3-2.2,6.1-3.3V16.2h5.8
		v10.4c2.5-1.9,4.9-4.1,7.2-6.6l4.2,3.9C206,27.2,202.2,30.4,197.8,33.3z"/>
	<path class="st2" d="M241.5,25.5c-0.5,5-1.7,9-3.5,12.1c1.3,1.4,3.2,2.8,5.5,4.1l-2.9,4.9c-2.4-1.7-4.2-3.3-5.6-4.9
		c-1.6,1.8-3.6,3.5-6.1,5.2l-3.5-4c2.9-1.8,5.1-3.5,6.7-5.3c-0.8-1.6-1.5-3.4-2.1-5.7c-0.5,0.7-0.8,1.3-1.1,1.6l-2.2-4.7h-3
		c-0.6,0.6-1.1,1.1-1.4,1.4h4.3v3.6l-3.2,2.5l4.6-0.3l0.1,4.1l-5.3,0.4v1.4c0.1,2.7-1.2,4.2-3.8,4.4c-1.3,0.1-3,0.2-4.9,0.2l-0.9-4
		c1.6,0,2.7,0.1,3.5,0c0.5,0,0.8-0.1,1-0.3c0.2-0.2,0.3-0.5,0.3-1v-0.3l-6.9,0.5l-0.3-4.1l1.6-0.1l-2-3.3c1-0.5,1.9-1,2.6-1.4v-2.2
		h3.3c0.5-0.4,1.1-0.9,1.8-1.4h-7v-4h5v-1.8h-3.9v-3.9h3.9V16h4.8v3.1h3.4v2.2c0.8-1.3,1.3-2.2,1.6-2.7l3.7,1.9
		c-1.1,1.7-2,3.2-2.8,4.4h0.8v2c1.6-3.1,2.8-6.7,3.5-10.8l5,0.3c-0.4,1.7-0.8,3.1-1.1,4.2h8.1v4.9H241.5z M218.2,36.7V36l2.7-2H218
		c-1.3,1-2.8,2-4.5,3L218.2,36.7z M223.4,23.1h-2.3v1.8h1C222.3,24.5,222.8,23.9,223.4,23.1z M237,25.5h-3.5
		c-0.1,0.2-0.1,0.4-0.2,0.5c0.3,2.7,1,5.1,1.9,7.1C236,31.1,236.7,28.5,237,25.5z"/>
	<path class="st2" d="M273.8,29.1h0.7v12.4c0,1.7-0.4,2.9-1.1,3.6c-0.8,0.8-2.1,1.2-4,1.3c-1.4,0.1-3.6,0.1-6.7,0.1l-1.1-4.1
		c2,0.1,3.8,0.1,5.4,0.1c0.6,0,1.1-0.1,1.4-0.3c0.3-0.2,0.5-0.5,0.5-0.9h-15v5.2h-5.5V29.1H273c-1-0.7-1.6-1.2-2-1.4
		c-7,0.1-13.9,0.4-20.8,0.8c-2,0.1-3-0.9-3-2.9V25c1.6-0.8,3.2-1.6,4.7-2.6h-6.4v-4h13V16l6.2,0.9v1.6h12.6v4h-6.7
		c1.9,1.1,4.1,2.5,6.4,3.9L273.8,29.1z M269,33.8v-1.4H254v1.4H269z M269,38.2v-1.3H254v1.3H269z M266.2,24.4
		c-0.9-0.6-1.9-1.3-2.8-2h-4.5c-1.5,0.9-2.8,1.7-3.8,2.2C257.7,24.5,261.4,24.4,266.2,24.4z"/>
	<path class="st2" d="M288,23.7v22.9h-5V32.8c-0.8,1.2-1.7,2.3-2.6,3.4l-1-6.6c2.5-3.9,4.5-8.4,5.9-13.7l5.1,1.3
		C289.7,19.5,288.9,21.6,288,23.7z M305.2,41.2c1.7,0.6,3.1,1.1,4,1.4l-2.7,4.4c-5.5-2.2-10.9-4.1-16.2-6l2.4-4
		c2.5,0.8,4.9,1.6,7.4,2.5l3.3-2.7h-8.6c-1.8,0-2.7-0.9-2.7-2.7v-1.4c0-0.1,0.3-0.8,0.8-2.2H289v-4.3h5.3c0.2-0.7,0.5-1.5,0.7-2.2
		h-4.8v-4.3h6c0.2-0.9,0.5-2.1,0.9-3.7h5.7c-0.3,1.2-0.7,2.4-1.1,3.7h9.5v4.3h-10.8c-0.3,0.8-0.5,1.6-0.7,2.2H312v4.3h-13.6
		c-0.2,0.7-0.4,1.4-0.7,2.1h12.6V37L305.2,41.2z"/>
	<path class="st2" d="M343.7,22.2V32H338v1.6h8.1v3.9h-5.9c1.6,1.7,3.8,3,6.6,4l-2.4,4.1c-2.8-1.4-4.9-3-6.3-4.6v5.6h-4.6V41
		c-1.6,1.8-3.9,3.4-6.8,5l-2.1-3.5l-1,1.3c-0.7-0.7-1.4-1.5-2.1-2.2c-1.3,1.7-3.1,3.5-5.3,5.3l-2.6-4.1c2.1-1.6,3.7-3.1,4.7-4.5
		c-1.1-1.1-2-2-2.6-2.5c-1.1-1-1.4-2.2-1.1-3.6c0.4-1.9,0.8-4,1.2-6.6h-1.8v-4.4h2.4c0.2-1.7,0.4-3.5,0.5-5.4l4.7,0.4
		c-0.3,2.2-0.6,3.9-0.7,5h4.7v-2.8h2.2V16h4.6v2.4h6.8V16h4.6v2.4h2.2v3.8H343.7z M320.3,34.4c0.7-1.9,1.2-4.8,1.5-8.8h-1.8
		c-0.5,3.1-1,5.5-1.4,7.4C319,33.3,319.6,33.8,320.3,34.4z M333.3,33.6V32h-2.8c-1.8,0-2.7-0.9-2.7-2.7v-7H326v3.5
		c-0.3,5.1-1.1,9-2.3,11.7c0.5,0.4,1.4,1.2,2.7,2.4l-1.2,1.5c2.5-1.2,4.5-2.5,5.9-3.9h-5.5v-3.9H333.3z M339.1,23.7v-1.4h-6.8v1.4
		H339.1z M339.1,26.9h-6.8v1.4h6.8V26.9z"/>
</g>
</svg>
