<?xml version="1.0" encoding="utf-8"?>
<!-- Generator: Adobe Illustrator 23.1.0, SVG Export Plug-In . SVG Version: 6.00 Build 0)  -->
<svg version="1.1" id="图层_1" xmlns="http://www.w3.org/2000/svg" xmlns:xlink="http://www.w3.org/1999/xlink" x="0px" y="0px"
	 viewBox="0 0 394.5 60" style="enable-background:new 0 0 394.5 60;" xml:space="preserve">
<style type="text/css">
	.st0{fill:#FFFFFF;}
</style>
<g>
	<g>
		<path class="st0" d="M49.5,52.8C44.3,57.3,37.4,60,30,60C14.3,60,1.2,47.9,0.1,32.3C0,31.5,0,30.8,0,30.1s0-1.6,0.1-2.2
			c0.4-6.7,3.1-12.7,7.1-17.4l17.3,17.3l4.6,4.6L49.5,52.8z"/>
		<path class="st0" d="M59.9,27.7H31L10.5,7.2C15.7,2.8,22.6,0,30.1,0C45.9,0,58.8,12.2,59.9,27.7z"/>
		<path class="st0" d="M59.9,32.3c-0.4,6.6-3.1,12.6-7.1,17.3L35.5,32.3H59.9z"/>
	</g>
	<g>
		<path class="st0" d="M92.7,35c1.8,2.3,3.2,4.5,4.6,6.2l-5.7,4.2C90,43,89.1,41.8,89,41.5c-2.1,2.9-5.3,5.6-9,8.9l-4.1-5.9
			c3.9-3.5,6.9-6,8.9-9c-1.4-2.1-4.1-5.8-7.9-10.9l5.5-3.5c1.9,2.6,3.8,5,5.7,7.5c0.8-2.3,1.4-5.3,1.8-8.9h-12v-6.3h19V15
			c0,3.3-0.3,6.8-1,10.1C94.9,28.9,93.9,32.3,92.7,35z M111.8,38.6c2.1,2.2,5,4.8,8.5,6.8l-4.6,5.9c-3.3-2.3-6.1-4.8-8.4-7.1
			c-2.4,2.6-5.8,5-9.8,7.1l-4.8-5.9c3.9-2.2,7.6-4.2,10-6.7c-2.8-4.3-4.9-9.6-6.3-15.9l6.6-1.7c1.2,4.8,2.7,8.6,4.2,11.5
			c1.8-3.5,2.9-7.8,3.2-13H97.5v-6.3h20.6l0,0c0,5-0.6,10-1.8,14.8c-0.2,0.8-0.4,1.4-0.6,2.1C114.8,33.3,113.5,36.1,111.8,38.6z"/>
		<path class="st0" d="M164.6,22.8c-0.4,7-1.8,12.6-3.7,16.8c1.3,1.9,3.2,4.6,5.6,6.3l-2.8,5.5c-2.4-2.2-4.5-4.3-6-6.5
			c-1.4,2-2.4,4-4.9,6.6l-3.5-3.9c-1.1,0.7-2.1,1.4-3.2,2.1c-0.4,0.3-1,0.4-1.6,0.3c-0.6-0.1-1-0.4-1.1-0.9V40h-2.7v0.7
			c-0.1,2.6-0.4,4.6-1.1,6.1c-0.7,1.7-2,3.3-3.8,5.2l-3.3-3.9v3.6h-5.9V37c-1.1,1.2-3.2,3.2-4.1,4l-0.4-7c3.3-3,6.1-6.9,8.4-11.6
			l4.8,3c-0.8,1.7-1.7,3.2-2.7,4.8v16.6c1.1-1.1,1.9-2.3,2.2-3.7c0.3-1.2,0.6-3.1,0.6-5.7v-2.7H149v7l2.7-1.8l0.2,3.1
			c1-1,1.9-2.1,2.7-3.5c-1.1-2.6-1.9-5.7-2.3-9.1c-0.2,0.3-0.4,0.7-0.8,1l-1-2.1v3.7h-16.4v-5.3h15.6l-0.9-1.9h-11.6
			c-1.7,0-3.1-1.4-3.1-3.1v-7.3c-2.9,4.5-7.1,8.5-10.7,11.4l-1.4-6.7c2.9-2.3,5.5-5.3,7.6-9.2l4.9,3.2h3.6v6.5h1.3v-9.6h5.3v9.4h1.3
			v-6.5h4v8.9c1.6-2.7,2.8-6.8,3.9-12.1l5.8,1.4c-0.6,2.2-0.9,3.3-1.4,5.1h7.5v5.7L164.6,22.8L164.6,22.8z M159.3,22.8h-2.9
			c-0.1,0.2-0.1,0.3-0.2,0.6c0.3,3.6,0.8,6.6,1.4,9.2C158.4,30.2,159,26.9,159.3,22.8z"/>
		<path class="st0" d="M209.2,23.3c-0.7,6.7-2.2,12-4.7,16.3c1.8,1.9,2.8,2.9,5.9,4.7l-2.4,7.5c-3.1-2.2-5.7-4.5-7.5-6.6
			c-2.1,2.3-4.9,4.7-8.1,6.9l-2.7-6.1c3.9-2.3,5.5-3.9,7.3-6.5c-1.1-2.1-2.4-4.6-3.2-7.5c-0.7,1-1.1,1.7-1.4,2.2l-3-6.3h-3.9
			c-0.8,0.9-1.4,1.4-1.8,1.9h5.7v4.8l-4.2,3.3l6.1-0.4l0.2,5.5l-7,0.6v1.9c0.1,3.7-1.6,5.7-5.1,5.9c-1.8,0.1-4.8,0.1-7.5,0.1
			l-0.9-5.2c2.1,0,4.2,0,5.2,0c0.7,0,1-0.2,1.3-0.4c0.3-0.3,0.4-0.7,0.4-1.3v-0.4l-9.2,0.7l-0.3-5.5l2.1-0.1l-2.7-4.3
			c1.3-0.7,2.6-1.3,3.6-1.9v-2.9h4.5c0.8-0.6,1.6-1.1,2.3-1.9h-9.4v-5.3h6.8V20h-5.2v-5.2h5.2v-4.2h6.5v4.2h4.6v3
			c1-1.8,1.8-2.9,2.1-3.7l4.9,2.6c-1.4,2.3-2.7,4.2-3.8,5.8h1v2.7c2.1-4.1,3.8-9,4.7-14.5l6.3,1.9c-0.6,2.3-0.7,2.8-1,4.1h10.8v6.6
			H209.2L209.2,23.3z M178,38.3v-0.9l3.7-2.7h-3.9c-1.8,1.3-3.8,2.7-6,4L178,38.3z M185,20h-3.1v2.4h1.2
			C183.6,21.9,184.3,21.2,185,20z M203.2,23.3h-4.7c-0.1,0.2-0.2,0.4-0.3,0.8c0.4,3.7,1.2,6.9,2.4,9.6
			C201.9,30.7,202.7,27.3,203.2,23.3z"/>
		<path class="st0" d="M252.4,28.1h0.9v16.5c0,2.2-0.4,3.9-1.4,4.9c-1,1-2.8,1.7-5.3,1.8c-1.9,0.1-3,0.2-7.1,0.2l-0.6-5.5
			c2.7,0.1,2.3,0,4.6,0c0.9,0,1.4-0.1,1.9-0.3c0.3-0.2,0.6-0.7,0.7-1.2h-20.2v7h-7.3v-21c0-1.2,1-2.2,2.3-2.2h30.5
			c-1.2-0.9-2.2-1.6-2.7-1.9c-9.4,0.2-18.6,0.6-27.7,1c-2.7,0.1-4-1.2-4-3.9v-0.7c2.1-1,4.2-2.2,6.2-3.5h-8.6v-5.3h18.7l0.1-3.3
			l6.9,0.6v2.7h16.9v5.3h-10.5c2.1,1.4,6.5,4.3,9.6,6.3L252.4,28.1z M246.1,34.4v-1.8h-20.2v1.8H246.1z M246.1,40.3v-1.8h-20.2v1.8
			H246.1z M242.3,21.8c-1.2-0.9-2.6-1.7-3.8-2.7h-6c-2,1.2-4.2,2.2-5.6,2.9C230.5,21.9,235.8,21.8,242.3,21.8z"/>
		<path class="st0" d="M299.2,34.1v16.8h-6.7V34.1h-4c-0.1,4-0.7,7.2-1.7,9.8c-1,2.6-2.8,5.3-5.3,8.2l-5-4.6h-8.4c-2.8,0-5-2.2-5-5
			v-7c-0.6,0.8-1.3,1.7-2.3,3L260,31c2.3-3.5,4.9-8.1,6-11.8h-5.1v-4.7h17v4.7h-5.8c-0.7,1.8-1.4,3.7-2.3,5.6h7.8v21.4
			c2.9-3,4.5-7,4.5-12h-3.7v-6.2h3.7v-9h-3v-6.2h23.7v6.2h-3.5v9h4.3v6.2L299.2,34.1L299.2,34.1z M269,42h2.4V30.3H269V42z
			 M292.5,27.8v-9h-3.9v9H292.5z"/>
		<path class="st0" d="M320.5,27.5c-3.6,1.1-8.4,2.6-12.1,3.7l-2.4-5.6c6.1-1.4,11.9-3,17.1-4.9l2.9,5c-2.7,0.9-4.3,1.4-4.9,1.6h6
			c0,1.4,0,2.8-0.1,3.9h9.1c1.9,0,3.5,1.6,3.5,3.5v8.2c0,1,0.3,1.4,1.1,1.4h0.4c0.9,0,1.4-0.6,1.6-1.6c0.2-1.7,0.3-1.8,0.4-4.5
			l6.2,2.4c-0.3,3.6-0.3,3.2-0.7,5c-0.3,1.8-1,3-2.1,3.7c-1.1,0.7-2.8,1.1-5.1,1.1h-3.1c-2.2,0-3.8-0.4-4.8-1.4
			c-1-1-1.4-2.6-1.4-4.8v-7.2h-5.6c-1,3.2-2,5.2-4.2,7.3c-2.2,2.2-5.2,4-10.7,6.1l-5.5-4.1c4.5-1.9,7.6-3.5,9.1-4.7
			c1.8-1.3,4.2-3,4.8-4.9L309.5,37v-5.9H321l0.1-3.9L320.5,27.5z M330.7,14.3h17.5v9h-7.2v-3h-26.4v3h-7.2v-9h17.3v-3.7l6.1,0.9
			V14.3z M348.9,26.4l-2.7,5.7c-5.2-2.1-10.9-4.1-17-6.3l2.9-4.9C338.2,22.7,343.8,24.6,348.9,26.4z"/>
		<g>
			<path class="st0" d="M366.9,43.5c0.7-1.2,1.1-3.1,1.1-5.7c0-3.3-1-6.5-2.9-9.2l2.7-10.7v-6h-14.4v39.6h5.9v-5.9
				c1.1,0.1,3.2,0.6,3.9,0.4C364.9,45.6,366.1,44.9,366.9,43.5z M361.5,38.9c-0.3,0.4-0.7,0.7-1.3,0.7c-0.4,0-0.9,0-1.1,0V18.1h2.8
				l-2.4,10.8c1.8,2.9,2.7,5.3,2.7,7.3C362,37.5,361.9,38.4,361.5,38.9z"/>
			<path class="st0" d="M389.9,41.6c-0.1,2-0.1,1.1-0.3,2.6c0,0.4-0.1,0.8-0.3,1c-0.1,0.2-0.3,0.3-0.7,0.3h-0.2
				c-0.2,0-0.4-0.1-0.6-0.2c-0.1-0.1-0.1-0.4-0.1-0.8v-7.3h7.2v-6h-26.8V37h5c-0.1,2.7-1.3,4.6-2.2,5.9c-1,1.3-3,2.8-6.1,4.2
				l2.8,4.9c3.7-2.1,7.2-4.5,8.5-6.7c1.3-2.2,2.3-4.8,2.9-8.4h2.3v8.8c0,1.8,0.6,3.1,1.6,3.9c1,0.8,2.4,1.1,4.3,1.1h1.6
				c1.8,0,3.1-0.3,4.1-1c0.9-0.6,1.4-1.6,1.7-2.9c0.3-1.7,0.4-1.8,0.7-4.3L389.9,41.6z"/>
			<path class="st0" d="M370.6,28.8h21.5v-5h2.3v-9.4h-10.6v-2.8l-5.6-0.7v3.3h-10.2v9.5h2.3v5H370.6z M374.3,20.3h13.8v3h-13.8
				V20.3z"/>
		</g>
	</g>
</g>
</svg>
