<?xml version="1.0" encoding="utf-8"?>
<!-- Generator: Adobe Illustrator 23.1.0, SVG Export Plug-In . SVG Version: 6.00 Build 0)  -->
<svg version="1.1" id="图层_1" xmlns="http://www.w3.org/2000/svg" xmlns:xlink="http://www.w3.org/1999/xlink" x="0px" y="0px"
	 viewBox="0 0 277.1 61.1" style="enable-background:new 0 0 277.1 61.1;" xml:space="preserve">
<style type="text/css">
	.st0{fill:#E60012;}
	.st1{fill:#EA5006;}
	.st2{fill:#E72410;}
</style>
<path class="st0" d="M0.9,37.3c0,12.7,10.3,23,23,23c10.4,0,19.2-6.9,22.1-16.5l-22.1-6.5v-0.1l0,0v-23C11.2,14.3,0.9,24.6,0.9,37.3
	"/>
<path class="st1" d="M64.1,18.1L64.1,18.1c0-9.6-7.8-17.4-17.4-17.4H24.6v36.1h20.8C55.7,36.8,64.1,28.4,64.1,18.1"/>
<path class="st2" d="M85.8,42.6l-1.3-2.1l-0.7-1.1c-1.4,2.2-3.5,4.7-6.2,7.7l-3.7-3.8c2.8-2.8,5.1-5.7,6.8-8.7
	c-2.2-3.4-4-5.9-5.3-7.7l4-2.4l3.6,5.1c0.6-1.8,1.2-3.8,1.6-6h-8.8v-4.8h13.7v4.8c-0.4,2.3-0.8,4.3-1.3,6c-0.5,1.7-1.1,3.4-1.8,5
	c0.1,0.2,0.2,0.3,0.3,0.5c0.1,0.1,0.2,0.2,0.2,0.4l2.9,4.4L85.8,42.6z M107.2,43l-3.4,4.5c-2.5-1.8-4.6-3.7-6.3-5.9
	c-2.1,2.3-4.6,4.4-7.7,6.2l-3.4-4.2c3.5-2,6.3-4.2,8.2-6.5c-1.9-3.6-3.3-8.1-4.4-13.6v-4.7h15.2v4.7c-0.9,5.5-2.5,10.2-4.9,14
	C102.3,39.7,104.5,41.5,107.2,43z M95.6,23.5c0.5,3.5,1.2,6.4,2.2,8.9c1.1-2.4,2-5.4,2.7-8.9H95.6z"/>
<path class="st2" d="M139.1,41.3c0,0,0.8,0.6,2.5,1.8l-2,4.8c-1.9-1.8-3.4-3.4-4.4-5c-1.1,1.6-2.5,3.3-4.3,5.3l-3.4-3.4
	c1.1-0.9,2-1.9,2.8-2.7l-3.7,3.1l-2.7-2.7c0.4-0.4,0.5-0.9,0.5-1.6v-2.1h-1.8v0.9c0,1.7-0.2,3.1-0.6,4.2s-1.3,2.5-2.6,4.1l-3.1-1.8
	v1.2h-4.4v-9.9c-0.8,0.9-1.6,1.7-2.2,2.3l-1.1-5.3c1.2-1.1,2.4-2.5,3.4-4.1c1.1-1.6,2-3.2,2.8-4.8l2.9,1.6v-7.1
	c-2.1,3.2-4.5,6.1-7.2,8.5l-1.6-5c0.8-0.6,1.8-1.6,2.8-2.9c1.1-1.3,2-2.6,2.7-3.9l3.8,2.5l0,0h2.6v4.8h1v-6.9h4v6.9h1v-4.8h3v6.6
	c0.6-1.1,1.2-2.5,1.7-4.1c0.5-1.6,0.9-3.1,1.1-4.5l4.4,0.5c-0.2,1.2-0.5,2.5-1,4h5.6V26h-1.1c-0.2,2.7-0.5,5.1-1,7.1
	c-0.4,2-1,3.9-1.8,5.6C138.6,40.4,139.1,41.3,139.1,41.3z M130.7,41.5c0.7-0.8,1.3-1.8,2-2.9c-0.8-1.9-1.3-4.1-1.8-6.8l-0.5,0.6
	l-0.8-1.7v2.9h-12.2v-4.1c-0.6,1.1-1.1,1.8-1.3,2.1v13.2c0.8-0.8,1.4-1.7,1.7-2.5c0.3-0.8,0.4-2,0.4-3.6v-4.2h10.2v4.2l1.2-0.9
	L130.7,41.5z M128.5,28.2h-10.4c-0.1,0.2-0.2,0.4-0.3,0.6c-0.1,0.2-0.3,0.5-0.4,0.8h11.7L128.5,28.2z M134.2,26l-0.3,0.7
	c0.2,2.3,0.6,4.4,1.1,6.3c0.6-2.2,1-4.6,1.3-7H134.2z"/>
<path class="st2" d="M175.9,43.4l-3.1,4.4c-2.4-1.7-4.4-3.6-6-5.6c-1.5,1.8-3.6,3.7-6.1,5.7l-3.2-4.1c2.8-1.9,5.1-3.8,6.6-5.7
	c-0.9-1.6-1.6-3.3-2.1-5.1l-1.2,1.7l-1.7-5.4h-2.8c-0.4,0.5-0.8,0.9-1.2,1.3h4.2v3.9l-4,2.6l5.2-0.6l0,1.8l0.1,2.3l-5.6,0.7v2.5
	c0,1-0.1,1.7-0.4,2.3c-0.2,0.5-0.7,0.9-1.3,1.1c-0.6,0.2-1.5,0.3-2.7,0.3h-3.7l-0.9-4.3h2.7c0.5,0,0.8,0,1-0.1
	c0.2-0.1,0.3-0.2,0.4-0.3c0.1-0.2,0.1-0.5,0.1-0.9v-0.1l-6.4,0.8l-0.5-4.1l1.7-0.2l-2-3.4c0.7-0.4,1.4-0.8,2.2-1.4v-2.9h3.9
	c0.3-0.3,0.8-0.7,1.4-1.3h-6.9v-4.1h5v-1.6h-4v-4h4v-2.6h4.4v2.6h3.8v1.8c0.5-1,1-1.9,1.4-2.8l3.8,1.9c-0.8,1.6-1.7,3.2-2.7,4.8h0.3
	v2.4c0.9-1.5,1.6-3.2,2.3-5.1c0.7-1.9,1.1-3.8,1.4-5.7l4.9,0.5c-0.2,0.9-0.4,2-0.8,3.5h8v5.1h-2c-0.4,2.5-0.8,4.8-1.4,6.7
	c-0.6,2-1.3,3.7-2.2,5.4C171.3,39.8,173.3,41.6,175.9,43.4z M150.1,37.7v-1.5l2.2-1.7h-1.5c-1.4,1.1-2.9,2.4-4.8,3.7L150.1,37.7z
	 M153,23.5v1.6h1.2l1.2-1.6H153z M167,33.2c0.8-1.9,1.4-4.4,1.9-7.5h-3.2l-0.6,1.4C165.6,29.4,166.2,31.4,167,33.2z"/>
<path class="st2" d="M209.7,19.3v4.1h-6.2c0.5,0.3,0.8,0.5,1.1,0.7c1.5,1,2.9,1.9,4.2,2.7l-2.7,3.1h0.8V43c0,1.1-0.2,2-0.5,2.6
	c-0.4,0.6-1,1.1-1.8,1.3c-0.8,0.3-2,0.4-3.5,0.4h-6l-0.8-4h5.6c0.5,0,0.9,0,1.1-0.1c0.2,0,0.3-0.1,0.4-0.3c0.1-0.2,0.1-0.4,0.1-0.8
	v-0.2h-15.3v5.3h-5.5V29.9h24.2l-2-1.4l-22.5,0.7l-0.9-4.2c1.4-0.4,2.8-1,4.2-1.6h-6.2v-4.1h13.3c-0.3-1.1-0.5-1.8-0.7-2.1l6.3-0.8
	c0.5,1.3,0.8,2.2,0.9,2.8H209.7z M201.4,34.5v-1.4h-15.3v1.4H201.4z M186.1,37.6v1.3h15.3v-1.3H186.1z M197.9,25.1l-1.3-0.9l0.8-0.8
	h-5.8l-2.3,1.3l-1,0.6L197.9,25.1z"/>
<path class="st2" d="M215.6,27.9c-0.7,0.8-1.5,1.6-2.5,2.4l-1.5-4.8c1.1-1,2.3-2.4,3.6-4.1c1.3-1.7,2.3-3.4,3.1-4.9l5.1,0.7
	c-0.3,0.6-0.7,1.4-1.3,2.5h5.7c-0.3-1.2-0.6-2.1-0.9-2.7l5.6-0.3c0.3,0.7,0.7,1.7,1.1,3h9.2v3.2h-10V24h8.9v2.8h-8.9v1.2h8.9v2.8
	h-8.9v1h10.2v3.2h-27.2V27.9z M242.7,47.3c-2.7-0.7-4.9-1.3-6.8-1.9c-1.9-0.6-3.6-1.3-5.1-2v4.3h-5.2v-4.1c-1.5,0.7-3.2,1.4-5.1,2
	c-1.9,0.6-4.1,1.3-6.8,1.9l-1.9-3.8c4.7-0.9,8.3-1.8,10.8-2.8H213V37h12.6v-1.3h5.2V37h12.6v3.8h-9.3c2.7,1,6.2,1.9,10.4,2.7
	L242.7,47.3z M220.5,24h7.2v-1.2h-7.2V24z M220.5,28.1h7.2v-1.2h-7.2V28.1z M220.5,32h7.2v-1h-7.2V32z"/>
<path class="st2" d="M247.4,47.4V17.8h29.7v29.6h-5.4v-1.5h-18.9v1.5H247.4z M252.8,22v19.8h18.9V22H252.8z M271.1,25.2v4h-2.4v8.3
	c0,1-0.2,1.8-0.5,2.3c-0.4,0.5-0.9,0.9-1.7,1c-0.8,0.2-1.9,0.3-3.3,0.3h-2.5l-1-3.8h2.6c0.5,0,0.9,0,1.1-0.1
	c0.2-0.1,0.3-0.2,0.4-0.3c0.1-0.2,0.1-0.5,0.1-0.9v-3.3c-2.2,2.4-4.9,4.7-8.2,6.8l-2.7-3.8c3.3-1.9,6-4.1,8.1-6.4h-7.2v-4h10.1v-2.5
	h4.9v2.5H271.1z"/>
</svg>
