<?xml version="1.0" encoding="utf-8"?>
<!-- Generator: Adobe Illustrator 23.1.0, SVG Export Plug-In . SVG Version: 6.00 Build 0)  -->
<svg version="1.1" id="图层_1" xmlns="http://www.w3.org/2000/svg" xmlns:xlink="http://www.w3.org/1999/xlink" x="0px" y="0px"
	 viewBox="0 0 1378 1080" style="enable-background:new 0 0 1378 1080;" xml:space="preserve">
<style type="text/css">
	.st0{fill:#B0CDF2;}
	.st1{fill:#3894F4;}
	.st2{fill:#FBE93C;}
	.st3{fill:#63EA93;}
	.st4{fill:#05D682;}
	.st5{fill:#90C2F6;}
	.st6{fill:#D7E5F4;}
	.st7{fill:#7BB5F3;}
	.st8{fill:#F39302;}
	.st9{fill:#FEFEFC;}
	.st10{fill:#E9280A;}
</style>
<path class="st0" d="M700.6,851.8H296.4c-21.4,0-38.7-17.3-38.7-38.7V394.4c0-20.5,16.6-37.2,37.2-37.2h405.7
	c21.4,0,38.7,17.3,38.7,38.7v417.2C739.3,834.5,722,851.8,700.6,851.8z"/>
<path class="st1" d="M661.2,358c-0.1,9.5-0.4,19-0.3,28.4c0,4.9-2,7-6.9,7.8c-30.9,5.1-61.9,4.8-93,3.2c-2.8-0.1-5.6-0.5-8.4-0.7
	c0.1-0.5,0.1-1.1,0.2-1.6c9.1,0,18.2,0,27.3,0c0.1-0.6,0.1-1.3,0.2-1.9c-3.5-0.2-7-0.1-9.1-3.3c1.1-1.5,3-0.4,4.1-1.3
	c1.2-1,2-2.7,0.4-3.1c-4.5-1.1-3.6-5-3.8-7.6c-0.5-5.2-0.8-10.8-4.3-14.5c-3.6-3.9-1.3-10.8-7.8-12.8c-1.8-0.6-1-4.5-4-4.4
	c-3.3,0.1-4.4-1.6-4.3-4.6c0.1-1-0.3-1.9-1.4-2.3c-7.7-2.8-10.1-9.9-13.1-16.4c-0.3-0.6-0.3-1.3-0.4-1.9c-0.6-2.7-2.2-4-5-3.6
	c-0.3-1.4-0.9-2.9-0.9-4.3c0-12.9,0-25.9,0-38.8c0.3-0.1,0.6-0.1,1-0.2c17.3,7.9,34.7,15.8,51.9,23.8c7.8,3.6,15.6,7.4,23.4,11
	c3.2,1.5,5.8,1.7,9-1c14.3-12.1,29-23.9,43.5-35.9c0.3,0.1,0.7,0.2,1,0.3c0.1,21.1,0.2,42.2,0.3,63.3c0,2.3-0.4,4.6,0.5,6.9
	C661.4,347.4,661.3,352.7,661.2,358z"/>
<path class="st2" d="M731.8,617.4c-0.3-0.2-0.6-0.5-0.9-0.7c1.3-1.6,3.1-0.6,4.6-0.6c11-0.3,22,0.5,32.9-0.7
	c3.2-0.3,4.8-2.1,5.5-4.8c0.7-2.7,1-5.6,1.1-8.4c0.1-29,0.1-57.9,0.3-86.9c0-3.6-1.3-4.5-4.7-4.5c-18.3,0.2-36.6,0.1-54.9,0.2
	c-1.6,0-3.2,0-4.8,0c-14.3,0-28.6,0.1-42.9,0.1c-3.1-0.1-6.1-0.3-9.2-0.4c-0.1-0.7,0.1-1.4-0.2-2c-2-3.9-3.1-7.4,1.6-10.3
	c1-0.6,0.9-2.3,0.5-3.3c-1.2-2.6-0.4-4.3,1.5-6.1c2.3-2.1,2.5-4.3-1.1-5c-3.7-0.7-3.6-2.6-1.8-4.8c2.2-2.7,1.3-4.4-1.1-6.1
	c-2.3-1.7-3.3-3.7-0.8-6.2c1.3-1.3,1.7-1.9-0.7-3c-5.3-2.6-11.2-1.6-16.8-3.4c-6.1-1.9-12.9-1.7-19.3-4.2c-6.7-2.6-14.7-2-19.6-8.8
	c-0.8-1-3.3-1.6-4.6-1.2c-4.8,1.3-9.5-0.1-14.3,0c-16.5,0.3-32.9-1.6-49.4-1.2c-2.5,0.1-4.6,0.5-5.9,2.9c-0.3,0.5-0.6,0.9-0.9,1.4
	c0,0.5,0,1,0,1.5c0,15.4,0,30.9,0,46.3c0,1.5-0.2,3,0.9,4.3c0,1,0,2,0,3c0.1,3-0.9,7.6,0.5,8.6c3.5,2.4,2.5,7.8,6.8,9.2
	c1,0.3,1.5,1.7,1.6,2.9c1.1,8.6,4.3,16.9,3,25.8c-0.2,1.3-0.3,2.7,1.5,3.3c0.5,3.3,0.6,6.7,0,10c-2.3,3-2.3,6,0,9
	c0.5,7.1,1,14.2-0.8,21.2c-1.1,1.5-1,3.1,0,4.7c0,0.8,0,1.5,0,2.3c-1.1,2.3-1.2,4.6,0.1,6.9c1.7,3.4,2.5,7.3,7.9,7.3
	c34.3-0.1,68.5,0,102.8,0c2.7,0.5,5.8-0.7,8.1,1.6c-17.6,0.1-35.3,0.3-52.9,0.4c-18.8,0.1-37.6,0-56.5,0c-10.3,0-10.9-0.5-13.3-10.7
	c-3.2-13.5-6.6-27-9.9-40.6c-0.6-2.6-1.2-5.1-1.3-7.8c-0.2-24.5-0.5-48.9-0.8-73.4c-0.1-11.6,0-23.2,0-34.9c0-6.5,2.3-8.5,8.7-7.1
	c4.3,0.9,8.3-0.5,12.4-0.5c27.6,0.1,55.3-0.6,82.9,0.3c28.8,0.9,57.6,0.4,86.4,0.6c4.9,0,7.4,3.2,10.2,6c1.3,1.3,2,3,4.2,3
	c0.5,4.3,4,6.8,6.4,9.7c11.1,13.4,22.6,26.4,34.1,39.5c4.6,5.2,7.6,10.6,7.5,18.2c-0.5,29.5-0.2,58.9-0.2,88.4
	c0,6.1-2.5,8.8-8.8,8.9c-10.2,0.2-20.3,0.1-30.5,0.2C735.4,617,733.6,617.3,731.8,617.4z"/>
<path class="st3" d="M295.8,356.8c11.6-9.3,23.3-18.5,34.7-28.1c4-3.3,8.6-2.9,12.8-2.9c20.6,0,41.3,0,61.9,0.1
	c20.1,0,40.3,0,60.4-0.3c4.4-0.1,8.2,0.9,11.2,4.4c-0.1,0.4-0.2,0.7-0.3,1.1c-1.3,0-2.1,0.8-3,1.6c-7.2,6.9-14.3,13.7-21.5,20.5
	c-10.4,9.9-20.9,19.8-31.3,29.6c-5.3,0-10.7,0-16,0c-46.6,0.1-93.1,0.1-139.7,0.2c2.1-4.9,7.3-6.5,10.9-9.8
	c5.9-5.4,13.2-9.2,18.2-15.7c0,0,0.2-0.1,0.2-0.1C294.8,357.2,295.3,357,295.8,356.8z"/>
<path class="st4" d="M420.8,382.9c10.4-9.9,20.9-19.7,31.3-29.6c7.2-6.8,14.3-13.7,21.5-20.5c0.8-0.8,1.7-1.6,3-1.6
	c0.1,0.3,0.3,0.6,0.4,0.9c-0.2,3-0.4,6,0.2,9c0,6,0.1,12,0.1,17.9c-0.1,7.8-0.3,15.6-0.3,23.5c0,32.6,0,65.3,0,97.9
	c0,1.2-0.2,2.3-0.3,3.5c-2.2-1-1.9-2.9-1.9-4.7c0-3.2,0-6.3-0.1-9.5c0-1-0.5-2-1.6-2.2c-1-0.2-1.8,0.4-1.9,1.2
	c-0.5,4.4-3.8,4.6-7,4.3c-2.5-0.2-3.8,1.3-4.7,3c-2.7,4.8-5.9,9.1-11.2,11.4c-1.4,0.6-1.3,2.1-1.6,3.4c-1,4.1-5.9,6.5-5.2,11.5
	c0,0.3-0.7,0.7-1.1,0.9c-3.5,1.9-7,3.8-11.2,3.9c-7.5,0.2-8.2-0.4-8.3-7.9c-0.1-7.8,0-15.6,0-23.4
	C420.8,444.8,420.8,413.8,420.8,382.9z"/>
<path class="st1" d="M530.9,274c0,12.9-0.1,25.9,0,38.8c0,1.4,0.6,2.9,0.9,4.3c-1,1.6-1,3.5-1,5.3c0,5.7,0,11.3,0,17
	c0,14.7,0,29.3,0,44c0,8.8,1.8,10.7,10.2,10.5c4-0.1,7.9,0.9,11.9,1.2c-0.1,0.5-0.1,1.1-0.2,1.6c-2.4-0.2-4.8-0.3-7.1-0.5
	c-0.9-0.1-1.8-0.1-2.7-0.2c-0.8,0-1.7,0-2.5,0c-9.8-0.5-11.2-1.8-11.3-11.5c-0.1-9.8,0-19.5,0-29.3c0.8-1.5,0.8-2.9,0-4.4
	c0-10.2,0-20.4,0.1-30.6c0.5-0.5,0.5-1,0-1.4c0-13.2,0-26.4,0-39.6c0.5-0.5,0.5-1,0-1.4c-0.1-0.6-0.2-1.2-0.3-1.8
	c0.1-0.9,0.3-1.8,0.4-2.7C529.8,273.5,530.3,273.8,530.9,274z"/>
<path class="st5" d="M530.9,274c-0.5-0.2-1.1-0.5-1.7-0.7c-0.1-3.8,2.8-4.4,5.5-5.2c1.2-0.3,2.6-0.1,4-0.1
	c33.2-0.2,66.4-0.4,99.7-0.7c5.3,0,10.5,1,15.9,0.4c2.1-0.2,4.8,0.2,5.8,3l-0.3,0.4c-8.3-2.6-16.9-2-25.4-2
	c-14.8,0.1-29.7,1.2-44.5,0.4c-14.9-0.8-29.7,0.1-44.5-0.2c-4.5-0.1-10.6-1.5-13.4,4.6C531.5,273.9,531.2,273.9,530.9,274z"/>
<path class="st0" d="M477.1,341c-0.6-3-0.4-6-0.2-9c0.3,0,0.6,0,0.8,0C477.5,335,478.5,338.1,477.1,341z"/>
<path class="st6" d="M295.8,356.8c-0.5,0.2-1,0.4-1.5,0.6c-0.3-0.7-0.7-1.6,0.5-1.9C295.6,355.3,295.6,356.2,295.8,356.8z"/>
<path class="st6" d="M477.7,332c-0.3,0-0.6,0-0.8,0c-0.1-0.3-0.3-0.6-0.4-0.9c0.1-0.4,0.2-0.7,0.3-1.1
	C478.1,330.2,479.2,330.5,477.7,332z"/>
<path class="st7" d="M660.8,271c0,0.3-0.1,0.7-0.1,1c-0.3-0.1-0.7-0.2-1-0.3c0-0.2,0-0.4,0-0.7l0.3-0.4
	C660.3,270.7,660.6,270.8,660.8,271z"/>
<path class="st4" d="M477,502c-1.5,10-3.6,11.8-13.9,11.9c-19.5,0.2-38.9,0.4-58.3,0.5c-2.7,0-5.4,0-8,0c-0.3-0.2-0.6-0.3-0.9,0
	c-2.4,0-4.7,0-7.1,0c-0.3-0.2-0.6-0.2-0.9,0c-7.7,0-15.4,0-23.1-0.1c-0.8-0.1-1.6-0.3-2.5-0.3c-30.5,0-60.9,0-91.4,0
	c-3.8-1.4-6-3.9-6-8.2c0-40.3-0.1-80.6-0.1-120.9c0-0.6,0.2-1.3,0.3-2c46.6-0.1,93.2-0.1,139.7-0.2c5.3,0,10.7,0,16,0
	c0,31,0,61.9,0.1,92.9c0,7.8-0.1,15.6,0,23.4c0.1,7.5,0.8,8.1,8.3,7.9c4.2-0.1,7.7-2,11.2-3.9c0.4-0.2,1.2-0.6,1.1-0.9
	c-0.7-5,4.3-7.3,5.2-11.5c0.3-1.3,0.2-2.8,1.6-3.4c5.3-2.4,8.5-6.6,11.2-11.4c1-1.7,2.2-3.2,4.7-3c3.3,0.3,6.5,0.1,7-4.3
	c0.1-0.8,0.9-1.4,1.9-1.2c1.1,0.3,1.6,1.2,1.6,2.2c0.1,3.2,0.1,6.3,0.1,9.5c0,1.8-0.3,3.8,1.9,4.7c0.1,3.7,0.3,7.4,0.4,11.2
	c0,0.3,0,0.6,0,0.9C477,497.9,477,499.9,477,502z"/>
<path class="st8" d="M667.8,511.1c14.3,0,28.6-0.1,42.9-0.1c1.6,1.3,3.2,1.3,4.9,0c18.3,0,36.6,0,54.9-0.2c3.3,0,4.7,0.9,4.7,4.5
	c-0.2,29-0.1,57.9-0.3,86.9c0,2.8-0.4,5.6-1.1,8.4c-0.7,2.7-2.3,4.5-5.5,4.8c-11,1.1-22,0.3-32.9,0.7c-1.5,0-3.3-1-4.6,0.6
	c-24.1,0-48.3,0.1-72.4,0.1c-2.4-2.3-5.4-1.1-8.1-1.6c0.4-1.1,0.5-2.9,1.2-3.1c5.6-1.8,4-6.3,4.3-10.3c0.4-4.8,1.4-9.5-1.8-13.8
	c-0.3-0.4-0.3-1.4,0-1.9c3.6-6,2.3-12-0.1-18c-0.5-1.3-0.2-3,0.2-4.4c1.5-5.3,2.3-10.8,1.6-16.2c-0.9-7.6,4.5-14.1,3.4-21.7
	c0-0.3,0.2-0.6,0.5-0.9c1.7-1.9,1.1-3.4-0.4-5.2c-2.3-2.6-1.7-4,1.9-5.1C663.3,513.9,667.1,515.3,667.8,511.1z"/>
<path class="st7" d="M529.1,350.8c0.8,1.5,0.8,2.9,0,4.4C528.6,353.7,528.6,352.3,529.1,350.8z"/>
<path class="st1" d="M542.8,396c0.9,0.1,1.8,0.1,2.7,0.2C544.6,396.8,543.7,396.6,542.8,396z"/>
<path class="st7" d="M529.1,277.8c0.5,0.5,0.5,0.9,0,1.4C529.1,278.8,529.1,278.3,529.1,277.8z"/>
<path class="st7" d="M529.1,318.8c0.5,0.5,0.5,1,0,1.4C529.1,319.7,529.1,319.3,529.1,318.8z"/>
<path class="st0" d="M477,495.9c0-0.3,0-0.6,0-0.9c0.1,0.2,0.2,0.4,0.3,0.7C477.4,495.7,477.1,495.8,477,495.9z"/>
<path class="st5" d="M659.7,271c0,0.2,0,0.5,0,0.7c-14.5,11.9-29.2,23.7-43.5,35.9c-3.2,2.7-5.8,2.5-9,1c-7.8-3.6-15.5-7.4-23.4-11
	c-17.3-8-34.6-15.8-51.9-23.8c2.9-6.1,8.9-4.7,13.4-4.6c14.8,0.3,29.7-0.6,44.5,0.2c14.8,0.8,29.7-0.3,44.5-0.4
	C642.8,269,651.4,268.4,659.7,271z"/>
<path class="st1" d="M552.9,395.1c-4-0.3-7.8-1.3-11.9-1.2c-8.5,0.2-10.2-1.7-10.2-10.5c0-14.7,0-29.3,0-44c0-5.7,0-11.3,0-17
	c0-1.8,0-3.7,1-5.3c2.8-0.3,4.4,1,5,3.6c0.2,0.6,0.2,1.4,0.4,1.9c3,6.5,5.4,13.6,13.1,16.4c1.2,0.4,1.5,1.3,1.4,2.3
	c-0.2,3,0.9,4.7,4.3,4.6c3-0.1,2.2,3.9,4,4.4c6.4,2,4.2,9,7.8,12.8c3.5,3.7,3.8,9.2,4.3,14.5c0.2,2.6-0.8,6.5,3.8,7.6
	c1.6,0.4,0.8,2.2-0.4,3.1c-1.2,0.9-3-0.2-4.1,1.3c2.1,3.3,5.7,3.2,9.1,3.3c-0.1,0.6-0.1,1.3-0.2,1.9
	C571,395.1,561.9,395.1,552.9,395.1z"/>
<path class="st8" d="M667.8,511.1c-0.8,4.1-4.5,2.8-6.9,3.5c-3.5,1-4.2,2.5-1.9,5.1c1.5,1.8,2.1,3.3,0.4,5.2
	c-0.2,0.2-0.5,0.6-0.5,0.9c1.2,7.6-4.3,14.1-3.4,21.7c0.6,5.5-0.1,10.9-1.6,16.2c-0.4,1.4-0.7,3.2-0.2,4.4c2.3,6,3.7,12,0.1,18
	c-0.3,0.5-0.3,1.5,0,1.9c3.2,4.3,2.2,9,1.8,13.8c-0.3,3.9,1.3,8.5-4.3,10.3c-0.7,0.2-0.8,2-1.2,3.1c-34.3,0-68.5-0.1-102.8,0
	c-5.4,0-6.2-3.9-7.9-7.3c0-2.3-0.1-4.6-0.1-6.9c0-0.8,0-1.5,0-2.3c1.8-1.5,1.7-3.1,0-4.7c1.8-7,1.3-14.1,0.8-21.2c0.6-3,0.6-6,0-9
	c0.6-3.3,0.6-6.7,0-10c0.9-9.8,0.3-19.6,0.4-29.4c0.1-13.5,0-13.5,13.7-13.5c34.8-0.1,69.6-0.2,104.4-0.3
	C661.7,510.9,664.8,511,667.8,511.1z"/>
<path class="st2" d="M658.7,510.7c-34.8,0.1-69.6,0.2-104.4,0.3c-13.7,0-13.6,0-13.7,13.5c-0.1,9.8,0.5,19.6-0.4,29.4
	c-1.7-0.5-1.7-2-1.5-3.3c1.3-8.9-1.9-17.2-3-25.8c-0.2-1.2-0.6-2.6-1.6-2.9c-4.4-1.4-3.3-6.7-6.8-9.2c-1.5-1-0.4-5.6-0.5-8.6
	c0-1,0-2,0-3c5-1.3,8,0.5,9,5.7c0.2,1.4,0,3.6,2,3.3c1.9-0.3,0.8-2.5,1-3.8c0.1-0.8,0-1.7-0.2-2.5c-3.4-16.3-6.8-32.5-10.3-48.8
	c-0.3-1.6-0.1-3.9-2.4-4.5c0-0.5,0-1,0-1.5c0.3-0.5,0.6-0.9,0.9-1.4c1.3-2.4,3.3-2.8,5.9-2.9c16.5-0.4,32.9,1.5,49.4,1.2
	c4.7-0.1,9.4,1.4,14.3,0c1.4-0.4,3.9,0.2,4.6,1.2c4.9,6.8,12.9,6.2,19.6,8.8c6.3,2.5,13.2,2.3,19.3,4.2c5.6,1.7,11.5,0.8,16.8,3.4
	c2.3,1.1,1.9,1.8,0.7,3c-2.4,2.5-1.5,4.5,0.8,6.2c2.4,1.8,3.3,3.4,1.1,6.1c-1.8,2.2-1.9,4.1,1.8,4.8c3.6,0.7,3.3,2.9,1.1,5
	c-2,1.8-2.7,3.6-1.5,6.1c0.5,1,0.6,2.6-0.5,3.3c-4.7,2.9-3.6,6.5-1.6,10.3C658.8,509.3,658.6,510.1,658.7,510.7z"/>
<path class="st2" d="M525.8,450.7c2.3,0.7,2.1,2.9,2.4,4.5c3.5,16.3,6.9,32.5,10.3,48.8c0.2,0.8,0.3,1.7,0.2,2.5
	c-0.2,1.4,0.9,3.5-1,3.8c-2,0.3-1.8-2-2-3.3c-0.9-5.2-3.9-7-9-5.7c-1.1-1.3-0.9-2.8-0.9-4.3C525.8,481.5,525.8,466.1,525.8,450.7z"
	/>
<path class="st8" d="M715.6,511c-1.6,1.3-3.2,1.3-4.9,0C712.4,511,714,511,715.6,511z"/>
<path class="st8" d="M526.7,447.8c-0.3,0.5-0.6,0.9-0.9,1.4C526.1,448.8,526.4,448.3,526.7,447.8z"/>
<path class="st0" d="M270.8,514.1c30.5,0,60.9,0,91.4,0c0.8,0,1.7,0.2,2.5,0.3c-3.6,2.1-7.4,0.6-11.2,0.6c-25.5,0-51,0-76.5-0.1
	C275,514.9,272.7,515.6,270.8,514.1z"/>
<path class="st9" d="M273,369.6c-0.3-0.1-0.7-0.2-0.8-0.4s0.2-0.5,0.3-0.8c0.3,0.1,0.7,0.2,0.8,0.4C273.4,369,273.2,369.3,273,369.6
	z"/>
<path class="st0" d="M395.8,514.4c0.3-0.2,0.6-0.2,0.9,0C396.4,514.8,396.1,514.8,395.8,514.4z"/>
<path class="st0" d="M387.8,514.4c0.3-0.2,0.6-0.2,0.9,0C388.4,514.8,388.1,514.8,387.8,514.4z"/>
<path class="st10" d="M504.4,791.1c0-0.2,0-0.4,0-0.5h-0.3L388.7,584.9L273.3,790.6H273c0,0.2,0,0.4,0,0.5l0,0h0
	c1,18.4,52.4,33.1,115.7,33.1S503.4,809.5,504.4,791.1L504.4,791.1L504.4,791.1z"/>
</svg>
