<?xml version="1.0" encoding="utf-8"?>
<!-- Generator: Adobe Illustrator 23.1.0, SVG Export Plug-In . SVG Version: 6.00 Build 0)  -->
<svg version="1.1" id="svg" xmlns="http://www.w3.org/2000/svg" xmlns:xlink="http://www.w3.org/1999/xlink" x="0px" y="0px"
	 viewBox="0 0 180 254.6" style="enable-background:new 0 0 180 254.6;" xml:space="preserve">
<style type="text/css">
	.st0{fill:#FFFFFF;}
	.st1{fill:url(#SVGID_1_);}
	.st2{fill:url(#SVGID_2_);}
	.st3{fill:url(#SVGID_3_);}
	.st4{fill:url(#SVGID_4_);}
	.st5{fill:url(#SVGID_5_);}
	.st6{fill:url(#SVGID_6_);}
	.st7{fill:url(#SVGID_7_);}
	.st8{fill:url(#SVGID_8_);}
	.st9{fill:url(#SVGID_9_);}
	.st10{fill:#428DCC;}
	.st11{fill:#97DDEF;}
	.st12{fill-rule:evenodd;clip-rule:evenodd;fill:#2E81C9;}
	.st13{fill:#E57723;}
</style>
<path class="st0" d="M167.8,254.6H12.2c-6.7,0-12.2-5.5-12.2-12.2V12.2C0,5.5,5.5,0,12.2,0h155.6c6.7,0,12.2,5.5,12.2,12.2v230.2
	C180,249.1,174.5,254.6,167.8,254.6z"/>
<linearGradient id="SVGID_1_" gradientUnits="userSpaceOnUse" x1="3.6" y1="-413.7595" x2="180" y2="-413.7595" gradientTransform="matrix(1 0 0 -1 0 -280)">
	<stop  offset="0" style="stop-color:#97DDEF"/>
	<stop  offset="3.010994e-02" style="stop-color:#94DAEE"/>
	<stop  offset="0.4482" style="stop-color:#6FB7DF"/>
	<stop  offset="0.7863" style="stop-color:#58A2D5"/>
	<stop  offset="1" style="stop-color:#509AD2"/>
	<stop  offset="1" style="stop-color:#4690CE"/>
	<stop  offset="1" style="stop-color:#428DCC"/>
</linearGradient>
<path class="st1" d="M16.2,108.9c-0.8,1.7-1.5,3.4-3.3,4.4c-0.7,0.4-1.3,0.5-2.1,0.6c-3.8,0.6-7.2-0.5-7.2-0.9
	c0-0.3,1.6,0.1,3.4-0.9c0.7-0.3,1.2-0.8,2.2-1.9c2-2.1,3.2-4.1,3.8-5c1.6-2.5,2.7-4.5,2.7-4.6c2.8-5.1,9.9-8,15.4-10.3
	c3.5-1.4,7.8-2.2,16.4-3.8c1.3-0.2,3.7-0.6,6.3,0.3c0.9,0.3,2.1,0.8,3.1,1.9c1.1,1.2,1.4,2.7,1.4,7.6c0,5-0.4,5.2-0.2,8.3
	c0.3,4.9,1.4,6.8,1.9,7.5c0.6,0.9,1.7,2.6,3.7,3.2c1.3,0.4,2.4,0,4.7-0.6c0.8-0.2,2.9-0.8,4.8-1.7c6.8-3.3,12.5-9.6,12.5-9.6
	c1.6-1.8,9.4-6.6,25.1-16.1c17.3-10.5,16.5-9.5,21-12.8c7.8-5.8,9.6-8.5,17.3-12.8c7.8-4.4,13.7-6.1,15.4-6.5
	c6.3-1.6,11.7-1.9,15.5-1.9v146.1c-24.6,9-42.4,8.5-53.8,6.5c-14.6-2.4-28.8-6.4-28.8-6.4c-12.4-3.6-17-5.9-26.7-6.6
	c-5.7-0.4-13.1-0.9-22.1,1.9c-14,4.4-23.1,14-25,17.8c-0.1,0.3-0.9,1.8-1.1,1.7c-0.3-0.1,1-4.5,1.3-5.6c4.3-14.2,13-23.8,13-23.8
	c6.5-7.3,13.1-10.7,20.4-14.5c11.7-6.1,22.4-8.6,25.8-9.4c9.2-2,11.6-1.2,19.4-4c0.8-0.3,0.1,0,14.9-7c5.5-2.6,8.2-3.8,11.3-6.5
	c2.8-2.4,4.3-4.6,6.2-7.2c4.9-7,6.9-13.3,9.2-20.2c1.2-3.8,1.7-5.9,2.1-7.9c0.7-4.7,1.3-8.1-0.3-11.4c-2.1-4.2-6.6-5.8-8.8-6.6
	c-5.6-2-10.4-1-17.1,0.4c-7.1,1.5-12.2,3.9-18.9,6.9c-4.8,2.2-7.3,3.4-10.3,5.5c-2.8,2.1-3.9,3.4-8.7,7c-3.7,2.8-3.4,2.2-5.5,3.9
	c-4.5,3.6-4.9,5.1-9.9,9.7c-2.4,2.2-4.1,3.8-6.8,4.2c-0.7,0.1-3.8,0.5-6.4-1.2c-5.6-3.5-4.9-13.1-4.7-15.2c0.6-6,2.4-11.1,2.4-11.1
	c0.8-2.2,2-5.3,0.7-6.7c-0.3-0.4-1.1-0.8-2.6-1.5c-0.4-0.2-0.7-0.4-1.3-0.6c-0.8-0.3-1.4-0.4-1.8-0.4c-2.1-0.2-5.1,0.4-5.5,0.5
	c-2.6,0.6-4.8,1.1-5.2,1.2c-1.3,0.3-4.9,1.5-8.8,4c-2.8,1.8-5.1,3.3-7,6.1C18.9,103.8,17.5,106.1,16.2,108.9z"/>
<linearGradient id="SVGID_2_" gradientUnits="userSpaceOnUse" x1="93.9191" y1="-359.075" x2="85.1211" y2="-359.075" gradientTransform="matrix(1 0 0 -1 0 -280)">
	<stop  offset="5.076142e-03" style="stop-color:#F7C223"/>
	<stop  offset="0.2682" style="stop-color:#F99D20"/>
	<stop  offset="0.5035" style="stop-color:#FA821F"/>
	<stop  offset="0.6421" style="stop-color:#FB781E"/>
	<stop  offset="0.6786" style="stop-color:#FA6F1D"/>
	<stop  offset="0.8061" style="stop-color:#F7521C"/>
	<stop  offset="0.9176" style="stop-color:#F5411A"/>
	<stop  offset="1" style="stop-color:#F43B1A"/>
</linearGradient>
<path class="st2" d="M91.8,81.4c1.2,0,1.6,0,1.9-0.3c0.4-0.4,0.3-0.9-0.7-1.7c-0.4-0.3-0.5-0.5-0.4-0.4c0.2,0.1,0.2,0.1,0.1,0
	s-0.2-0.2-0.3-0.2c-0.4,0-1.2-0.6-1.1-0.7s0-0.2-0.1-0.1c-0.4,0.1-0.7,0-0.6-0.2c0.1-0.1-0.1-0.2-0.2-0.2c-0.4,0-2-0.4-2.6-0.7
	c-0.5-0.2-1-0.2-1.3,0c-0.1,0.1-0.2,0.3-0.2,0.4c0,0.2,0,0.2,0.1,0.2c0.3-0.3,0.7,0.4,0.6,1.1s-0.8,1.6-1.2,1.6
	c-0.1,0-0.3,0.1-0.3,0.2s-0.1,0.1-0.3,0.1c-0.2-0.1-0.2-0.1,0,0.1C85.5,80.8,89.6,81.4,91.8,81.4z"/>
<linearGradient id="SVGID_3_" gradientUnits="userSpaceOnUse" x1="104.1828" y1="-379.1" x2="55.9142" y2="-379.1" gradientTransform="matrix(1 0 0 -1 0 -280)">
	<stop  offset="5.076142e-03" style="stop-color:#F7C223"/>
	<stop  offset="0.2682" style="stop-color:#F99D20"/>
	<stop  offset="0.5035" style="stop-color:#FA821F"/>
	<stop  offset="0.6421" style="stop-color:#FB781E"/>
	<stop  offset="0.6786" style="stop-color:#FA6F1D"/>
	<stop  offset="0.8061" style="stop-color:#F7521C"/>
	<stop  offset="0.9176" style="stop-color:#F5411A"/>
	<stop  offset="1" style="stop-color:#F43B1A"/>
</linearGradient>
<path class="st3" d="M103.9,116.5c-0.2,0-0.3,0.1-0.2,0.3c0,0.2-0.2,0.3-0.6,0.3c-0.6,0-2.7-0.4-3-0.7c-0.1-0.1-0.3-0.1-0.4-0.2
	c-0.1,0-0.5-0.2-0.9-0.5c-0.4-0.2-1.1-0.6-1.5-0.7c-0.4-0.2-0.8-0.4-0.8-0.5s-0.1-0.2-0.2-0.2c-0.3,0-2.5-1.4-2.9-1.8
	c-0.2-0.2-0.4-0.4-0.6-0.4c-0.1,0-0.5-0.2-0.7-0.4c-0.3-0.2-0.7-0.4-0.8-0.4c-0.2,0-0.5-0.2-0.7-0.4c-0.3-0.3-0.3-0.5-0.1-1
	c0.1-0.3,0.4-0.6,0.5-0.7c0.2-0.1,0.2-0.2,0.2-0.4c-0.1-0.2,0-0.3,0.1-0.3s0.2-0.1,0.1-0.2s0-0.2,0.1-0.2s0.2-0.1,0.1-0.2
	s0-0.2,0.1-0.2s0.2-0.1,0.2-0.2c-0.1-0.5,0.1-0.8,0.5-1.3c0.3-0.3,0.4-0.5,0.4-0.6c-0.1-0.2,0.2-0.8,0.4-0.7c0.1,0.1,0.2,0,0.1-0.2
	c-0.1-0.3,0-0.4,1.2-0.6c1.1-0.2,5.3,0.9,5.3,1.3c0,0.1,0.2,0.2,0.5,0.3c0.3,0.1,0.8,0.3,1.1,0.5c0.3,0.2,0.6,0.3,0.6,0.2
	c0-0.1,0.1-0.1,0.2,0.1s0.4,0.2,1.1,0c0.8-0.2,1-0.3,1-0.7c0-0.4-1.4-1.9-1.8-1.9c-0.1,0-0.2-0.1-0.2-0.2s-0.1-0.2-0.2-0.1
	s-0.2,0-0.2-0.1s-0.1-0.2-0.2-0.1s-0.2,0-0.2-0.1s-0.1-0.2-0.2-0.1s-0.8-0.1-1.6-0.3c-1-0.3-2.2-0.4-4-0.5c-1.7,0-2.5-0.1-2.5-0.3
	c0-0.1,0-0.2-0.2-0.2c-0.1,0-0.1-0.1-0.1-0.2c0.1-0.1,0.1-0.2-0.1-0.1c-0.1,0.1-0.4-0.1-0.6-0.4s-0.5-0.5-0.6-0.5s-0.2-0.1-0.2-0.2
	c0.1-0.1,0-0.2-0.1-0.2s-0.6-0.1-1.1-0.2c-0.7-0.1-0.8-0.1-1.1,0.4c-0.1,0.3-0.2,0.8-0.1,1.1c0.1,0.7-0.1,1-1,1
	c-1.1,0-1.3-0.3-1.1-1.2c0.2-0.9,0.7-2.1,1.2-2.6c0.6-0.6,2.6-1.2,3.8-1.1c0.6,0.1,1.2,0.2,1.2,0.3c0.1,0.2,1.9-0.2,1.7-0.4
	c-0.1-0.1,0-0.2,0.1-0.3c0.1-0.1,0.1-0.5-0.1-1c-0.3-0.8-0.4-0.9-1.2-1.1c-1.3-0.4-1.4-0.6-0.8-2.1c0.4-1,0.5-1.5,0.4-2
	c-0.1-0.4-0.1-0.7-0.1-0.8c0-0.1,0-0.1-0.2,0c-0.1,0.1-0.2,0-0.3-0.1c-0.1-0.1-0.4-0.2-0.8-0.3c-0.4-0.1-0.8-0.3-1.1-0.4
	c-0.4-0.3-0.4-0.3-0.1-0.6c0.2-0.1,0.3-0.3,0.2-0.4c-0.1-0.1,0.1-0.2,0.3-0.2c0.2-0.1,0.4-0.2,0.3-0.3c-0.1-0.1,0-0.2,0.2-0.3
	c0.2-0.1,0.8-0.7,1.3-1.4c1-1.2,1.3-1.7,0.8-1.4c-0.1,0.1-0.4-0.1-0.6-0.3c-0.2-0.2-0.4-0.4-0.4-0.3s-0.3,0-0.6-0.2
	c-0.3-0.2-0.6-0.4-0.6-0.5c0-0.3-1.7-0.4-2.4-0.2c-0.5,0.2-1.9,0.8-2.6,1.3c-0.4,0.2-1,0.5-1.4,0.6s-1.1,0.2-1.6,0.3
	c-1,0.2-3.1,0-4.1-0.6c-0.1,0.1-0.4,0-0.4,0.1c0,0.3,0.7,2.4,0.8,2.5c0.1,0.1,0.3,0.4,0.6,0.7c0.3,0.3,0.5,0.6,0.5,0.6
	s0.4,0.1,0.8,0.3c0.4,0.2,1,0.4,1.3,0.4c0.9,0.2,0.8,0.8-0.6,2.2c-1.8,1.9-2.1,2.7-1.4,5.1c0.1,0.5,0.1,0.5-1.2,1
	c-1.6,0.5-2.9,1.3-2.9,1.8c0,0.4,1.1,1.4,1.6,1.4c1,0.1,1.6,0.1,1.7-0.1c0.1-0.1,0.4-0.2,0.8-0.2s0.6-0.1,0.6-0.1
	c-0.1-0.1,1.9-1,2.4-1c0.3,0,0.4,0.2,0.4,1.1c0,1.2-0.4,2.1-1.1,2.5c-0.6,0.3-2.3,0.8-5.2,1.6c-1.7,0.5-2.9,0.7-4.3,0.7l-2,0.1v-0.9
	c0-0.5,0.1-1,0.2-1c0.2-0.1,0.3-0.7,0.5-1.9c0-0.1,0.1-0.3,0.2-0.3s0.2-0.1,0.2-0.3c0-0.4,0.7-1.5,0.9-1.4c0.1,0.1,0.1,0.1,0.1-0.1
	c-0.1-0.3,0.5-1.3,0.7-1.2c0.1,0.1,0.2,0,0.2-0.1s0.2-0.4,0.4-0.6c0.5-0.5,1.3-1.6,1.3-1.8c0-0.1-0.1,0-0.3,0.1s-0.3,0.2-0.3,0.1
	s-0.1,0-0.3,0.2c-0.2,0.2-0.4,0.3-0.5,0.2c-0.1-0.1-0.2,0-0.3,0.1c0,0.1-0.3,0.3-0.5,0.3s-0.6,0.1-0.9,0.2c-0.4,0.1-0.5,0-0.5-0.6
	c0-0.4,0.1-0.9,0.2-1.2c0.1-0.3,0.3-1.1,0.5-1.8c0.4-1.5,0.7-1.9,1.6-2.5c0.4-0.2,0.6-0.4,0.5-0.5s0-0.2,0.2-0.2s0.3-0.1,0.2-0.2
	c-0.1-0.1,0.1-0.3,0.4-0.4c0.4-0.2,0.5-0.4,0.6-1.1c0.1-0.5,0.2-1.1,0.2-1.4c0.1-0.5,0-0.5-0.5-0.4s-0.7,0-0.9-0.4
	c-0.2-0.3-0.5-0.5-0.7-0.5c-0.4,0-0.3-0.9,0.2-1.6c0.2-0.3,0.4-0.6,0.4-0.8c0-0.1,0.1-0.2,0.2-0.1s0.2,0,0.2-0.1s0.1-0.5,0.1-0.8
	c0.1-0.5,0-0.7-0.3-1.1c-0.3-0.3-0.4-0.6-0.4-0.7s0-0.1-0.1,0s-0.3-0.1-0.4-0.3c-0.1-0.2-0.3-0.4-0.5-0.4S74.2,80,74,79.8
	s-0.3-0.4-0.3-0.3s-0.2,0-0.5-0.2c-0.6-0.4-1.5-0.4-1.9,0c-0.2,0.2-0.2,0.3,0.1,0.3c0.2,0,0.3,0.1,0.2,0.2c-0.1,0.1,0,0.2,0.1,0.3
	c0.1,0.1,0.4,0.4,0.5,0.8c0.7,1.5-0.1,4.8-1.5,6.3c-1.4,1.4-3.4,2.6-2.2,1.3L69,88l-0.5,0.3c-0.3,0.1-0.6,0.2-0.7,0.2
	s-0.1,0-0.1,0.1c0.2,0.2-1.8,1.3-2.1,1.2c-0.1-0.1-0.2,0-0.1,0.1c0.2,0.3-0.6,0.5-0.9,0.3c-0.1-0.1-0.2-0.1-0.2,0
	c0.1,0.4-0.1,0.7-0.5,0.8c-0.3,0.1-0.7,0.4-1.1,0.6c-0.7,0.5-1.5,0.6-2.7,0.2c-0.7-0.3-0.9-0.3-1.1,0c-0.2,0.2-0.2,0.3,0,0.2
	c0.4-0.2,0.5,0.2,0.1,0.9c-0.3,0.5-0.4,0.6-0.9,0.6c-0.6-0.1-0.6-0.1-0.5,0.9c0.1,0.6,0,1-0.2,1.1s-0.2,0.1-0.1-0.1
	c0.1-0.1,0-0.3-0.1-0.4s-0.2-0.1-0.1,0.1c0.1,0.1,0,0.3-0.1,0.3c-0.5,0.3-0.2,0.5,0.4,0.2c0.4-0.1,0.6-0.3,0.5-0.5s0-0.2,0.2-0.2
	c0.2,0.1,0.5-0.1,0.8-0.5c0.6-0.6,0.9-0.8,0.9-0.3c0,0.1-0.2,0.4-0.5,0.5s-0.5,0.4-0.5,0.6s-0.1,0.4-0.2,0.3c-0.1-0.1-0.2,0-0.2,0.1
	s-0.2,0.1-0.3,0.1C58,95.8,57.9,95.8,58,96s0,0.2-0.2,0.1s-0.3,0-0.3,0.2c0,0.3-0.1,0.3-0.4,0.1c-1.1-0.6-1.6,0.2-0.8,1
	c1,1.1,1,1.1,0.7,1.2c-0.1,0.1,0,0.1,0.3,0c0.3,0,0.6,0,0.7,0.1c0.1,0.1,0.2,0.1,0.4,0.1c0.2-0.1,0.5,0.1,0.8,0.4
	c0.4,0.4,0.8,0.5,1.7,0.6c0.6,0,1.2,0,1.3,0c0.1-0.1,0.5-0.3,1-0.6c0.5-0.3,0.9-0.6,1-0.6c0-0.1,0.3-0.3,0.7-0.5
	c0.3-0.2,0.6-0.2,0.5-0.1c-0.1,0.2,0.5,0,0.7-0.2c0.1-0.1,0.3-0.2,0.6-0.2c0.3,0,1-0.6,1.6-1.1c1.6-1.5,1.8-1.4,1.7,0.9
	c0,1.3-0.2,1.9-0.4,2c-0.2,0.1-1,0.6-1.8,1.1s-2.1,1.3-2.8,1.7c-1.9,1.2-2.4,1.4-3.2,1.1c-0.6-0.2-0.7-0.2-1,0.2
	c-0.5,0.6-0.5,0.8,0,2.3c0.2,0.7,0.4,1.3,0.4,1.4c0.4,1.3,0.8,1.6,2.1,1.6c0.8,0,1.1,0.1,1.4,0.5c0.2,0.2,0.3,0.5,0.3,0.6
	c0.8,0.4,1.4,1.3,1.8,2.2c0.6,0.7,1.2,1.5,1.7,2.2c0.9,1.3,2,2.6,2.3,4.2c0.1,0,0.1,0.1,0,0.2c0,0,0,0,0,0.1c0,0,0,0,0,0.1
	c0.1,0,0.1,0,0.3-0.1c0.9-0.5,0.9-0.5,0.8-8.1v-1.4l1.5-0.2c0.8-0.1,1.6-0.3,1.9-0.5c0.2-0.1,0.5-0.1,0.5-0.1c0.1,0.1,0.2,0,0.3-0.1
	c0.1-0.1,0.4-0.3,0.6-0.3s0.4-0.1,0.3-0.2c-0.1-0.2,0.2-0.2,0.7-0.2c0.2,0,0.2,0,0.2-0.1c-0.2-0.2,0.8-0.7,1.3-0.7
	c0.3,0,0.4,0.2,0.5,1.6c0.1,0.9,0.2,1.7,0.2,1.8c0.1,0.2,0.5,0.3,1.2,0.3c1.6,0,2.9,0.4,2.9,0.8c0,0.9-5.1,3.1-7,3
	c-0.9-0.1-1.3,0-1.3,0.2c0,0.1,0.1,0.2,0.2,0.2c0.4-0.1,0.7,0,0.6,0.2c-0.1,0.1,0.1,0.2,0.3,0.2c0.2,0,0.8,0.2,1.3,0.3
	c1.7,0.6,5.8,0.3,7-0.4c0.2-0.2,0.6-0.2,0.7-0.1s0.2,0.1,0.1,0c-0.1-0.2,1.9-1.5,2.4-1.5c0.3,0,2.3,1,3.1,1.6
	c0.4,0.3,0.7,0.6,0.7,0.8c0,0.2,0.1,0.3,0.2,0.3s0.5,0.2,0.9,0.5s0.9,0.5,1.1,0.5s0.6,0.3,0.9,0.7c0.3,0.4,0.6,0.7,0.6,0.7
	c0.1,0,0.2,0.1,0.2,0.3c0,0.2,0.6,0.3,2.9,0.3h2.9l0.8-0.6c0.4-0.3,1-0.7,1.3-0.9C104.1,116.9,104.3,116.5,103.9,116.5z M58.5,94.2
	c-0.1,0-0.2-0.1-0.1-0.2c0.1-0.1,0.2-0.2,0.2-0.2s0.1,0.1,0.1,0.2S58.6,94.2,58.5,94.2z M59.3,93.3c-0.1,0.1-0.2,0-0.2-0.2
	c0-0.4,0.1-0.4,0.3-0.1C59.5,93.1,59.4,93.2,59.3,93.3z M56.3,96.6c0-0.1,0.2-0.1,0.4-0.1c0.2,0.1,0.4,0.1,0.4,0.2
	c0,0-0.2,0.1-0.4,0.1C56.5,96.8,56.3,96.7,56.3,96.6z M57,97.4c-0.4,0-0.4,0,0-0.3s1-0.4,1.2-0.1C58.3,97.2,57.7,97.4,57,97.4z
	 M60.2,99c-0.3,0.3-0.6,0.4-0.7,0.3c-0.1-0.1,0.1-0.3,0.4-0.5l0.5-0.4l-0.7,0.1c-0.4,0.1-0.7,0-0.7-0.1c0-0.2,1-0.3,1.4,0
	C60.7,98.5,60.6,98.7,60.2,99z M69.2,106.6c0,0.4,0.1,1.5,0.2,2.4l0.2,1.7h-0.7c-0.9,0-2.8-0.6-2.8-0.8c0-0.1-0.1-0.1-0.2-0.1
	c-0.1,0.1-0.3,0-0.3-0.2c-0.1-0.2-0.2-0.3-0.4-0.3s-0.3-0.1-0.3-0.2s-0.3-0.3-0.7-0.5c-0.4-0.2-0.7-0.4-0.7-0.6
	c0-0.3,1.5-1.5,1.8-1.5c0.1,0,0.5-0.3,0.8-0.6c0.4-0.3,0.7-0.6,0.8-0.6c0.1,0,0.4-0.2,0.7-0.5c0.3-0.3,0.6-0.4,0.7-0.4
	c0.1,0.1,0.2,0,0.2-0.1c0-0.2,0.2-0.2,1.1-0.4c0.1,0,0.2,0.2,0.2,0.4c0,0.2-0.1,0.7-0.3,1C69.3,105.5,69.2,106.1,69.2,106.6z
	 M83.5,97.2c0,0.1-0.4,0.1-1,0.1c-0.9,0-1,0-0.9-0.4c0-0.2,0.3-0.6,0.6-0.7c0.3-0.1,0.5-0.4,0.5-0.5s0.2-0.3,0.5-0.5
	c0.3-0.1,0.5-0.3,0.5-0.4s0.1-0.2,0.3-0.2c0.2,0,0.5-0.2,0.8-0.5s1.1-0.8,1.9-1.2c0.8-0.4,1.5-0.8,1.6-0.9s0.5-0.2,0.9-0.2
	c0.6,0,0.7,0.1,0.7,0.5c0,0.3-0.2,0.6-0.4,0.8c-0.2,0.2-0.4,0.5-0.4,0.7s-0.2,0.4-0.5,0.5s-0.5,0.2-0.5,0.4c0,0.4-2.5,1.7-3.2,1.7
	C84.2,96.4,83.5,96.8,83.5,97.2z M88.4,105.9c-0.3,0.4-0.5,0.8-0.5,1c0,0.6-1.2,2-1.7,2c-0.6,0-2.6-0.9-2.6-1.2
	c0-0.2,0.3-0.5,1.7-1.7c0.7-0.6,2.8-1.7,3.2-1.6c0.2,0,0.3,0.3,0.3,0.5C88.9,105,88.7,105.5,88.4,105.9z"/>
<path d="M102,72.6c0.1-0.1,0.1-0.3,0-0.5c-0.3-0.5-0.4-0.5-0.2,0.1C101.8,72.5,101.9,72.7,102,72.6z"/>
<linearGradient id="SVGID_4_" gradientUnits="userSpaceOnUse" x1="68.1766" y1="-368.5875" x2="67.5501" y2="-368.5875" gradientTransform="matrix(1 0 0 -1 0 -280)">
	<stop  offset="5.076142e-03" style="stop-color:#F7C223"/>
	<stop  offset="0.2682" style="stop-color:#F99D20"/>
	<stop  offset="0.5035" style="stop-color:#FA821F"/>
	<stop  offset="0.6421" style="stop-color:#FB781E"/>
	<stop  offset="0.6786" style="stop-color:#FA6F1D"/>
	<stop  offset="0.8061" style="stop-color:#F7521C"/>
	<stop  offset="0.9176" style="stop-color:#F5411A"/>
	<stop  offset="1" style="stop-color:#F43B1A"/>
</linearGradient>
<path class="st4" d="M67.6,88.6c0.1,0.1,0.4,0.1,0.5,0s0-0.1-0.3-0.1C67.6,88.5,67.5,88.5,67.6,88.6z"/>
<linearGradient id="SVGID_5_" gradientUnits="userSpaceOnUse" x1="59.5417" y1="-372.263" x2="59.1358" y2="-372.263" gradientTransform="matrix(1 0 0 -1 0 -280)">
	<stop  offset="5.076142e-03" style="stop-color:#F7C223"/>
	<stop  offset="0.2682" style="stop-color:#F99D20"/>
	<stop  offset="0.5035" style="stop-color:#FA821F"/>
	<stop  offset="0.6421" style="stop-color:#FB781E"/>
	<stop  offset="0.6786" style="stop-color:#FA6F1D"/>
	<stop  offset="0.8061" style="stop-color:#F7521C"/>
	<stop  offset="0.9176" style="stop-color:#F5411A"/>
	<stop  offset="1" style="stop-color:#F43B1A"/>
</linearGradient>
<path class="st5" d="M59.3,92.7c0.1-0.1,0.2-0.3,0.2-0.5s-0.1-0.4-0.2-0.4s-0.2,0.2-0.2,0.5S59.2,92.8,59.3,92.7z"/>
<linearGradient id="SVGID_6_" gradientUnits="userSpaceOnUse" x1="138.6149" y1="-376.6671" x2="96.0555" y2="-376.6671" gradientTransform="matrix(1 0 0 -1 0 -280)">
	<stop  offset="5.076142e-03" style="stop-color:#F7C223"/>
	<stop  offset="0.2682" style="stop-color:#F99D20"/>
	<stop  offset="0.5035" style="stop-color:#FA821F"/>
	<stop  offset="0.6421" style="stop-color:#FB781E"/>
	<stop  offset="0.6786" style="stop-color:#FA6F1D"/>
	<stop  offset="0.8061" style="stop-color:#F7521C"/>
	<stop  offset="0.9176" style="stop-color:#F5411A"/>
	<stop  offset="1" style="stop-color:#F43B1A"/>
</linearGradient>
<path class="st6" d="M138.4,69.2c-0.1-0.1-0.2-0.2-0.3-0.4c-0.1-0.1-0.2-0.2-0.2-0.4c0,0-0.1-0.1-0.1-0.2c-0.2-0.6-1.4-1.2-1.8-1.6
	c-0.6-0.5-1.1-1.2-1.8-1.7c-0.3-0.2-0.6-0.4-0.9-0.5c-0.6-0.2-1.1-0.5-1.7-0.6c-0.3-0.1-0.7-0.2-1-0.3c-1,0-2.4,0.1-4.3,0.3
	c-1.5,0.2-3.6,0.4-4.7,0.5l-2.1,0.1l0.1-0.6c0.1-1.1,0.3-1.7,0.8-3.7c0.7-2.6,0.8-4.1,0.2-4.9c-0.2-0.3-0.4-0.7-0.4-0.8s0-0.1-0.1,0
	s-0.2,0-0.3-0.1c-0.1-0.2-1.6-0.9-2.8-1.3c-0.4-0.2-0.9-0.3-1.1-0.4c-0.5-0.2-2.2-0.2-2.5-0.1c-0.2,0.1-0.3,0.9-0.3,3.5
	c0,3.3,0.1,3.5,0.5,0.9c0.1-0.5,0.2-0.9,0.3-0.9c0.1,0,0.2-0.1,0.2-0.3s0.1-0.2,0.5,0.2c0.4,0.5,0.5,0.8,0.4,3.4
	c0,2.5-0.1,3.6-0.6,6c-0.1,0.3-0.4,0.7-0.9,1.1c-0.4,0.3-0.8,0.5-0.8,0.4s-0.1-0.1-0.2,0.1c-0.1,0.1-1,0.6-2,1.2
	c-1,0.5-2.2,1.2-2.7,1.5s-1.2,0.7-1.5,0.8c-0.3,0.2-0.9,0.6-1.4,1s-1,0.8-1.2,1c-0.3,0.2-0.6,0.5-0.8,0.7c-0.3,0.4-0.3,0.4-0.4,0.1
	c0-0.2,0.1-0.4,0.2-0.4s0.2-0.3,0.2-0.6c0-0.4-0.1-0.6-0.3-0.6c-0.2,0-0.3-0.1-0.3-0.3c0-0.2-0.1-0.3-0.3-0.3
	c-0.2,0-0.3-0.2-0.3-0.5c0-0.4-0.1-0.5-0.3-0.3c-0.1,0.1-0.5,0.2-0.7,0.2c-0.3,0-0.4-0.1-0.2-0.3c0.1-0.2,0.1-0.3,0-0.3
	s-0.3-0.2-0.3-0.5c-0.1-0.4-0.2-0.5-0.3-0.3c-0.3,0.5-0.4,0.1-0.2-0.5c0.1-0.3,0.1-0.6,0.1-0.7c-0.3-0.3-1.1,0-1.1,0.5
	c0,0.2-0.1,0.4-0.4,0.4s-0.4,0.1-0.3,0.4s0.1,0.3-0.3,0c-0.2-0.2-0.4-0.3-0.5-0.1c0,0.1-0.2,0.2-0.3,0.1c-0.2-0.1-0.2-0.1,0,0.1
	c0.3,0.4,0.1,1-0.4,1c-0.2,0-0.4,0.1-0.4,0.4c0,0.5,1,6.9,1.2,8.2c0.1,0.6,0.2,1.2,0.3,1.4c0,0.2,0.1,0.5,0.2,0.7s0.3,1,0.5,1.8
	s0.4,1.8,0.6,2.1c0.2,0.5,0.5,1.6,0.6,2.1c0.1,0.3,0.6,1.4,0.8,1.4c0.1,0,0.4,0.3,0.8,0.6c0.4,0.3,0.7,0.6,0.8,0.5
	c0.1-0.1,0.3,0.2,0.6,0.5c0.2,0.3,0.4,0.4,0.3,0.3c-0.1-0.2,0-0.2,0.2-0.1s0.3,0.2,0.3,0.3s0.2,0.3,0.4,0.6c0.3,0.3,0.5,0.3,0.7,0.2
	c0.1-0.1,0.2-0.3,0.2-0.4c-0.1-0.1,0-0.3,0.1-0.4s0.2-1,0.2-1.9s0.1-1.7,0.1-1.8c0,0,0.2,0,0.4,0.1c0.2,0.1,0.4,0.1,0.5,0.1
	s0.2,0.1,0.2,0.2s0.1,0.2,0.1,0.1c0.1-0.1,0.3,0,0.5,0.1c0.3,0.2,1.5,0.6,3.5,1c0.2,0,0.4,0,0.5-0.1s0.5-0.3,1-0.4s0.9-0.3,0.9-0.4
	s0.1-0.2,0.3-0.2c0.2,0,0.3-0.1,0.2-0.2c-0.1-0.2,0.5-0.6,1.1-0.6c0.4,0,0.4,0.1,0.4,7.5c0,16.1,0,18.5,0,22.2c0,2.2,0,4.9,0.1,6.1
	c0.1,1.4,0.1,2.2,0,2.2c-0.2,0-0.2,7.2,0,8.2c0.1,0.5,0.4,0.6,0.8,0.1c0.4-0.4,0.9-0.1,0.9,0.6c0,0.3,0.1,0.5,0.2,0.5
	c0.2,0,0.4-1.5,0.4-2.8c0-0.5,0.1-1,0.2-1.1s0.2-0.9,0.2-1.8c0-1,0.1-1.7,0.2-1.8c0.2-0.1,0.2,0.3,0.1,1.6c-0.1,1.4-0.1,1.8,0.1,1.9
	s0.3,1.2,0.3,4.4c0,2.3,0,4.2-0.1,4.2s-0.2,0.2-0.3,0.4c-0.1,0.2-0.2,0.4-0.3,0.3c-0.2-0.1-0.1,0.8,0.1,1.4l0.1,0.4l0.5-0.5
	c0.3-0.3,0.6-0.8,0.6-1.3c0.2-1,0.2-6.8,0.1-12.8c-0.1-5.5,0.1-35.9,0.3-36.9c0.2-1.4,0.6-2.6,1-3.3c0.1-0.3,0.2-0.6,0.4-0.8
	c0.7-0.8,1.4-0.6,2.3-0.4c0.2,0,0.3,0.1,0.5,0.1c0.1,0,0.2,0,0.2,0.1c0.7,0.1,1.6,0.3,2.3,0.6c0.5,0.1,1,0.1,1.5-0.1
	c1.5-0.6,0.7-2.4,0.1-3.5c-0.3-0.3-0.5-0.6-0.7-1c-0.4-1.2,0.6-1.9,1.4-2.5c0.6-0.4,1.2-0.8,1.8-1.2c0.8-0.6,1.5-1.3,2.2-1.9
	c0.7-0.5,1.4-1,2.1-1.5c0.1-0.1,0.3-0.2,0.4-0.2c0.1-0.1,0.2-0.1,0.3-0.2c0.3-0.3,0.9-0.8,1.5-1.4c0.8-0.8,1.5-1.4,1.8-1.6
	c0,0,0,0,0.1-0.1s0.1-0.3,0.1-0.4V70C138.6,69.7,138.5,69.5,138.4,69.2z M98,70.8c-0.2-0.3,0.1-1,0.4-0.9c0.2,0.1,0.3,0.2,0.3,0.2
	C98.7,70.4,98.1,71,98,70.8z M101.4,72.6c-0.1-0.1-0.3-0.6-0.3-1.1c-0.1-1,0.1-0.6,0.4,0.6C101.5,72.6,101.5,72.8,101.4,72.6z
	 M102.3,72.6c-0.1,0.1-0.1,0-0.1-0.3s0-0.4,0.1-0.3C102.3,72.2,102.3,72.5,102.3,72.6z M113.9,80.2c-0.3,0.7-1.4,1.1-4.1,1.6
	c-1.5,0.3-2.9,0.6-3.7,1c-1.5,0.7-1.6,0.7-1.4,0.3c0.1-0.2,0-0.3-0.2-0.4s-0.3-0.5-0.2-1.8c0.2-3.2,1.1-5.2,2.9-6.1
	c0.5-0.3,3.1-1.1,4.8-1.5c0.4-0.1,0.9-0.3,1.1-0.4c0.4-0.3,0.8-0.2,0.9,0.1C114.2,73.6,114.1,79.7,113.9,80.2z M115.9,131.8
	c-0.1,0.2-0.1,0.1-0.1-0.1c0-0.2,0-0.3,0.1-0.3C115.9,131.5,115.9,131.7,115.9,131.8z M126.9,71.7c-0.3,0.3-0.8,1-1.2,1.5
	c-1.1,1.4-4.3,4.6-4.9,4.9s-0.6,0.3-1-2.4c-0.2-1.3-0.2-2.4,0-4.1c0.1-1.3,0.2-2.4,0.2-2.5s0.1-0.2,0.1-0.2s0.3-0.2,0.7-0.5
	c0.3-0.3,0.9-0.6,1.3-0.7s1.1-0.2,1.7-0.4c1.3-0.4,2.2-0.4,4-0.1c0.8,0.1,1.5,0.3,1.5,0.5C129.4,68.1,128.3,70,126.9,71.7z"/>
<linearGradient id="SVGID_7_" gradientUnits="userSpaceOnUse" x1="165.0041" y1="-377.7501" x2="119.2193" y2="-377.7501" gradientTransform="matrix(1 0 0 -1 0 -280)">
	<stop  offset="5.076142e-03" style="stop-color:#F7C223"/>
	<stop  offset="0.2682" style="stop-color:#F99D20"/>
	<stop  offset="0.5035" style="stop-color:#FA821F"/>
	<stop  offset="0.6421" style="stop-color:#FB781E"/>
	<stop  offset="0.6786" style="stop-color:#FA6F1D"/>
	<stop  offset="0.8061" style="stop-color:#F7521C"/>
	<stop  offset="0.9176" style="stop-color:#F5411A"/>
	<stop  offset="1" style="stop-color:#F43B1A"/>
</linearGradient>
<path class="st7" d="M164,90.8c-1.1-0.7-5.5-1.6-6.2-1.3c-0.5,0.2-2.2,0.2-2.6,0c-0.2-0.1-0.2-0.2-0.1-0.2c0.1,0,0.3-0.2,0.3-0.4
	c0-0.2,0.4-0.8,0.9-1.3c0.9-0.9,3-2.3,3.4-2.3c0.1,0,0.2-0.1,0.2-0.2s0.1-0.2,0.3-0.2s0.3-0.1,0.3-0.2s0.1-0.2,0.3-0.2
	s0.3-0.1,0.3-0.2s0.1-0.2,0.3-0.2s0.3-0.1,0.3-0.2s0.1-0.2,0.2-0.2s0.4-0.2,0.5-0.4c0.2-0.2,0.2-0.2,0.1-0.1
	c-0.1,0.2-0.1,0.2,0.1,0.1c0.1-0.1,0.2-0.2,0.1-0.3c-0.1-0.1,0.1-0.3,0.3-0.6c0.4-0.5,0.4-0.5,0.1-1.2c-0.4-0.8-1.2-1.7-1.4-1.5
	c-0.1,0.1-0.2,0-0.2-0.2c-0.1-0.2-0.3-0.3-0.4-0.3s-0.3-0.1-0.3-0.2s-0.1-0.2-0.2-0.1c-0.1,0.1-0.3,0-0.5-0.2
	c-0.4-0.4-1.8-0.6-1.8-0.2c0,0.2,0.1,0.3,0.2,0.3c0.3,0,0.2,1.4-0.1,1.5c-0.2,0.1-0.3,0.2-0.2,0.3c0.1,0.2-0.8,1.1-3.4,3.8
	c-0.4,0.4-1,0.9-1.5,1.2c-0.4,0.3-1.5,1.2-2.3,2s-1.8,1.8-2.1,2.1c-1.4,1.3-3.6,2-3.6,1.1c0-0.2,0.1-0.4,0.2-0.5
	c0.1,0,0.2-0.3,0.3-0.5c0-0.3,0.2-0.6,0.4-0.8c0.2-0.2,0.3-0.5,0.3-0.7s0.1-0.4,0.2-0.4c0.1,0,0.2-0.1,0.1-0.2s0-0.2,0.1-0.2
	s0.2-0.1,0.1-0.1c-0.1-0.1,0.1-0.3,0.4-0.5c0.3-0.2,0.5-0.4,0.4-0.4s0.1-0.2,0.4-0.4c0.3-0.2,0.7-0.3,0.9-0.3c0.2,0.1,0.3,0,0.2-0.1
	c-0.1-0.2-0.1-0.3,0.5-0.3c0.1,0,0.4-0.1,0.5-0.3c0.1-0.1,0.4-0.2,0.5-0.1s0.3,0,0.3,0c0.2-0.3,1.5-0.9,1.7-0.8
	c0.1,0.1,0.2,0,0.2-0.1s0.2-0.2,0.4-0.2s0.4-0.1,0.4-0.3c0-0.2,0.1-0.4,0.3-0.5c0.4-0.3,0.3-1.4-0.2-1.8c-0.2-0.1-0.3-0.4-0.2-0.5
	s0-0.2-0.2-0.1s-0.4,0-0.5-0.1c-0.1-0.2-0.4-0.3-0.7-0.4c-1-0.2-2.8-1.1-3.1-1.6c-0.4-0.6-0.3-2.1,0.2-2.5c0.2-0.2,0.4-0.4,0.4-0.6
	c0.1-0.4-1.2-2-1.5-2c-0.2,0-0.5-0.2-0.8-0.4c-0.2-0.2-0.6-0.4-1-0.5c-0.3-0.1-0.6-0.2-0.6-0.3s-0.1-0.2-0.2-0.1
	c-0.1,0.1-0.2,0-0.3-0.1s-0.3-0.2-0.5-0.2s-0.4-0.1-0.4-0.2s-0.1-0.2-0.3-0.1s-0.4,0-0.4-0.1c-0.1-0.1-0.3-0.2-0.6-0.2
	s-0.5-0.1-0.5-0.2s-0.7-0.2-1.6-0.2c-0.9,0-1.6,0.1-1.6,0.2s-0.1,0.2-0.3,0.2c-0.5,0-0.4,0.1,0.4,1.1c0.1,0.1,0.4,0.5,0.5,0.8
	c0.3,0.6,1.3,1.5,1.4,1.4c0.1-0.1,1.9,0.7,2.1,0.9c0.1,0.1,0.1,1.5,0,3l-0.1,2.8l-1.1,0.8c-1.5,1.1-3.8,2.1-5,2
	c-0.9,0-3.1-0.6-3.4-0.9c-0.5-0.5-1.2,0.1-1,0.8c0.5,1.3,5.5,4.7,7,4.7c0.8,0,1.8,0.6,1.2,0.8c-0.1,0-0.2,0.2-0.3,0.3
	c-0.1,0.4-0.9,1.3-1.9,2.4c-0.7,0.7-1,0.9-1.5,0.9c-0.4,0-0.9,0.1-1.2,0.3c-0.3,0.2-0.8,0.3-1.1,0.3s-0.5,0.1-0.6,0.2
	s-0.4,0.2-0.8,0.2s-0.8,0.1-0.9,0.2c-0.1,0.1-0.2,0.2-0.2,0.1s-0.1-0.1-0.3,0c-0.1,0.1-1,0.4-2,0.5c-0.9,0.2-2,0.4-2.4,0.5
	s-1.6,0.1-2.7,0.1c-2-0.1-2-0.1-3,0.6c-0.6,0.4-1.2,0.6-1.3,0.6c-0.1,0-0.3,0-0.3,0.1s-0.1,0.2-0.2,0.1s-0.2,0-0.2,0.1
	s-0.2,0.4-0.4,0.6c-0.2,0.2-0.5,0.6-0.6,0.8c-0.3,0.5-0.3,2,0,2c0.1,0,0.2,0.1,0.2,0.3c-0.1,0.5,1.3,0.4,2.3-0.1
	c0.8-0.4,1-0.4,1.3-0.2c0.2,0.1,0.3,0.3,0.2,0.5c-0.1,0.2,1.1,0.1,2.7-0.4c2.2-0.6,3.1-0.8,3.4-0.8c0.2,0,0.4,0,0.4-0.1
	s0.4-0.3,0.9-0.4s1-0.3,1.3-0.4c0.9-0.4,5.1-1.8,5.5-1.8c0.3,0,0.4-0.1,0.4-0.2c-0.1-0.1,0.4-0.2,0.8-0.2c0.1,0,0.3-0.1,0.5-0.3
	c0.2-0.2,0.4-0.3,0.5-0.2c0.1,0.1,0.3,0,0.5-0.2s0.4-0.3,0.5-0.2c0.1,0.1,0.3,0,0.4-0.1c0.1-0.1,0.5-0.2,0.9-0.2
	c1.2-0.1,0.9,0.4-2.8,4.2c-1.5,1.6-2.8,2.9-2.8,3.1c0,0.4-8.1,8.1-8.4,8c-0.1,0-0.3,0.2-0.6,0.4c-0.2,0.2-0.5,0.4-0.6,0.4
	s-0.5,0.3-1,0.7c-0.5,0.4-0.9,0.7-1,0.6c0,0-0.2,0.1-0.4,0.2c-0.2,0.2-0.4,0.2-0.5,0.2c-0.1-0.1-0.2,0-0.3,0.2s-0.2,0.3-0.3,0.2
	c-0.1-0.1-0.2,0-0.3,0.2s-0.2,0.3-0.3,0.2c-0.1-0.1-0.2,0-0.3,0.2c-0.1,0.2,0.1,0.2,1,0c0.6-0.2,1.3-0.3,1.5-0.3s0.4-0.1,0.4-0.3
	c0.1-0.2,0.4-0.3,0.8-0.4s0.7-0.2,0.7-0.3c0-0.1,0.2-0.2,0.4-0.2c0.2,0,0.5-0.2,0.7-0.3c0.2-0.2,0.7-0.5,1.2-0.7s1.2-0.7,1.5-1
	s0.5-0.5,0.4-0.3s0.1,0.1,0.3-0.1c0.3-0.2,0.9-0.8,1.4-1.3s1-0.8,1.1-0.7c0.2,0.2,0.8-0.3,0.6-0.6c-0.1-0.1,0-0.2,0.1-0.1
	s0.4-0.1,0.5-0.4c0.2-0.3,0.4-0.5,0.6-0.5c0.1,0,0.7-0.5,1.2-1.1c0.6-0.6,0.9-0.9,0.7-0.7c-0.1,0.2,0.2,0,0.7-0.6c0.9-0.9,1-1,1.9-1
	c0.5,0,1.3-0.1,1.8-0.3c0.4-0.2,1-0.3,1.3-0.3c0.4,0,0.5,0.1,0.5,0.8c0,0.7-0.1,0.9-0.6,1.4c-2.2,1.8-2.3,2.1-1.5,4.6
	c0.4,1.3,0.5,1.5,0.9,1.4c0.3,0,0.5-0.1,0.5-0.2c0-0.2,1.2-0.7,1.5-0.6c0.1,0,0.2-0.1,0.2-0.2s0.1-0.2,0.2-0.1
	c0.1,0.1,0.2,0,0.2-0.1c0-0.2,0.7-0.5,1.1-0.5c0.1,0,0.2-0.1,0.2-0.2s0.3-0.2,0.6-0.3s0.6-0.2,0.6-0.3c0-0.1,0.1-0.2,0.3-0.1
	s0.3,0,0.3-0.1c0-0.2,1.1-0.7,1.5-0.7c0.2,0,0.3-0.1,0.3-0.2c0-0.2,1.2-0.2,1.6,0c0.5,0.3,0.4,4.4-0.2,6.2c-0.3,0.8-0.5,1.6-0.6,1.8
	c-0.1,0.2-0.2,0.7-0.3,1.1c-0.2,1.2-0.8,1.4-4.5,1.3c-2.4,0-3-0.1-4-0.4c-1-0.4-1.3-0.3-0.8,0.2c0.1,0.1,0.3,0.1,0.4,0.2
	c1.2,0.6,2.2,1.5,3.2,2.5s2,2.1,3,3.1c0.5,0.5,1.1,0.9,1.6,1.3c0.1,0,0.3-0.1,0.5-0.2c0.3-0.2,0.6-0.3,0.6-0.2
	c0,0.1,0.2-0.1,0.4-0.4s0.5-0.5,0.5-0.4c0.1,0.1,0.5-0.3,0.9-0.7c0.5-0.5,0.9-0.8,0.9-0.8c0.1,0,0.2-0.1,0.4-0.3
	c0.1-0.2,0.2-0.3,0.2-0.3c-0.1,0,0.3-0.5,0.9-1c0.5-0.6,1-1.1,1-1.2c0-0.2,1-1.5,1.2-1.7c0.1-0.1,0.1-0.1,0-0.2
	c-0.2,0-0.2-0.1-0.1-0.5c0.1-0.2,0.1-0.6,0.1-0.7s0-0.3,0.1-0.4s0.2-0.3,0.2-0.6c0-0.2,0.1-0.6,0.2-0.7c0.1-0.1,0.3-0.4,0.3-0.6
	c0.2-1.2,0.3-2.1,0.3-2.8c0-0.5,0.1-0.9,0.2-0.9c0.1,0,0.1-0.4,0.1-0.9c0-0.7-0.1-0.9-0.4-1c-0.2-0.1-0.3-0.2-0.3-0.3
	c0-0.1-0.1-0.4-0.2-0.8c-0.2-0.5-0.5-0.8-1.7-1.3c-3.2-1.5-3-1.5-5.5-1.5c-1.3,0-2.3-0.1-2.3-0.2s0.1-0.3,0.1-0.4
	c0-0.2,0.2-0.6,0.5-0.9c0.6-0.8,0.7-1.5,0.2-1.9s-0.5-1,0-1.2c0.2-0.1,0.5-0.2,0.8-0.3c0.2-0.1,0.6-0.2,0.8-0.2s0.4-0.1,0.4-0.2
	s0.8-0.4,1.8-0.7c1.8-0.5,3.2-0.6,4.3-0.2c0.5,0.2,0.6-0.5,0.2-1.3c-0.2-0.4-0.4-0.7-0.5-0.7s-0.4-0.2-0.6-0.4
	c-0.3-0.2-0.6-0.4-0.8-0.5c-0.7-0.2-2.2,0-3.3,0.4c-0.3,0.1-0.5,0.1-0.6,0.1s-0.4,0-0.8,0.2c-0.7,0.3-3.2,0.7-3.2,0.5
	c0-0.3,0.5-1.1,0.6-1.1s0.2-0.2,0.3-0.4c0.1-0.2,0.2-0.4,0.2-0.3c0,0,0.5-0.3,0.9-0.7c0.5-0.4,1-0.7,1.1-0.7c0.2,0.1,0.3,0,0.2-0.1
	c0-0.1,0.1-0.2,0.2-0.2c0.2,0,0.3,0,0.4-0.1c0.3-0.4,1.8-0.9,3.3-1.1c1.3-0.2,2.3-0.2,4,0c2.4,0.2,3.1,0.4,3.8,1
	c0.6,0.6,1.2,0.6,1.7,0.1c0.3-0.2,0.6-0.4,0.7-0.3c0.1,0.1,0.2,0,0.1-0.1c0-0.1,0-0.3,0.1-0.5C165.2,92.2,164.6,91.2,164,90.8z
	 M128.6,99.7c-0.1,0.1-0.5,0.2-0.8,0.3c-0.6,0.1-0.6,0.1-0.2-0.2C128,99.5,129,99.4,128.6,99.7z"/>
<linearGradient id="SVGID_8_" gradientUnits="userSpaceOnUse" x1="133.8281" y1="-392.4125" x2="133.2172" y2="-392.4125" gradientTransform="matrix(1 0 0 -1 0 -280)">
	<stop  offset="5.076142e-03" style="stop-color:#F7C223"/>
	<stop  offset="0.2682" style="stop-color:#F99D20"/>
	<stop  offset="0.5035" style="stop-color:#FA821F"/>
	<stop  offset="0.6421" style="stop-color:#FB781E"/>
	<stop  offset="0.6786" style="stop-color:#FA6F1D"/>
	<stop  offset="0.8061" style="stop-color:#F7521C"/>
	<stop  offset="0.9176" style="stop-color:#F5411A"/>
	<stop  offset="1" style="stop-color:#F43B1A"/>
</linearGradient>
<path class="st8" d="M133.4,112.5C133.1,112.8,133.2,112.8,133.4,112.5c0.4-0.2,0.5-0.4,0.4-0.4
	C133.7,112.1,133.5,112.3,133.4,112.5z"/>
<linearGradient id="SVGID_9_" gradientUnits="userSpaceOnUse" x1="64.978" y1="-378.8609" x2="20.1673" y2="-378.8609" gradientTransform="matrix(1 0 0 -1 0 -280)">
	<stop  offset="5.076142e-03" style="stop-color:#F7C223"/>
	<stop  offset="0.2682" style="stop-color:#F99D20"/>
	<stop  offset="0.5035" style="stop-color:#FA821F"/>
	<stop  offset="0.6421" style="stop-color:#FB781E"/>
	<stop  offset="0.6786" style="stop-color:#FA6F1D"/>
	<stop  offset="0.8061" style="stop-color:#F7521C"/>
	<stop  offset="0.9176" style="stop-color:#F5411A"/>
	<stop  offset="1" style="stop-color:#F43B1A"/>
</linearGradient>
<path class="st9" d="M64.5,113.3c-0.5,0-0.9,0.4-0.5,0.4c0.1,0,0,0.2-0.3,0.3c-0.4,0.2-1.2,0.4-2,0.4s-1.7,0.1-2,0.2s-1.3,0-2.2-0.2
	c-1.7-0.3-4-0.6-8-0.9c-1.4-0.1-2.6-0.3-2.7-0.4c-0.1-0.1-0.2-0.2-0.3-0.1c-0.6,0.4-0.8-1.3-0.4-3.3c0.3-1.9,0.6-2.4,1.5-2.4
	c0.4,0,0.7,0.1,0.7,0.2s0.2,0.1,0.4,0s0.6-0.2,0.8-0.2c0.3,0,0.5-0.2,0.5-0.4c0.1-0.2,0.2-0.4,0.3-0.4s0.3-0.3,0.4-0.8
	c0.2-0.8-0.1-3.1-0.4-3.1c-0.1,0-0.2-0.1-0.2-0.3c0-0.2-0.2-0.4-0.4-0.5s-0.4-0.3-0.3-0.4c0.1-0.1-0.1-0.2-0.4-0.2
	c-0.3,0-0.7-0.1-1-0.2c-0.5-0.2-0.6-0.2-0.4-1.2c0.1-0.6,0.2-1.2,0.4-1.5c0.1-0.2,0.2-0.5,0.2-0.6s0.2-0.3,0.4-0.5s0.6-0.7,1-1.1
	c0.3-0.4,0.6-0.6,0.5-0.4C49.8,96,49.8,96.1,50,96s0.2-0.2-0.1-0.4c-0.5-0.3-3.3-2.9-3.2-3c0.2-0.2-1.8-0.1-2.2,0.1
	c-0.7,0.4-0.7,0.6-0.3,1.5c0.2,0.5,0.4,1,0.3,1.2c-0.1,0.3-3.3,2.1-3.8,2.1c-0.4,0-0.2-2.1,0.2-2.6c0.2-0.2,0.3-0.5,0.2-0.6
	c0-0.1,0-0.3,0.1-0.4s0.2-0.3,0.2-0.5s0.1-0.4,0.2-0.4c0.1,0,0.2-0.1,0.1-0.1c-0.4-0.4,2.4-3.7,3.1-3.7c0.2,0,0.5-0.1,0.6-0.3
	c0.1-0.2,0.4-0.3,0.5-0.3s0.4-0.1,0.7-0.2s0.5-0.2,0.5-0.1s0.1,0,0.3-0.1s0.6-0.3,0.9-0.3c0.3,0,0.6-0.1,0.5-0.2s0-0.2,0.2-0.2
	c0.4,0,2.2-1.2,2.2-1.5c0-0.1-0.4-0.6-0.8-1.1c-0.5-0.5-0.8-0.8-0.7-0.8s-0.2-0.3-0.7-0.7c-0.5-0.4-0.8-0.7-0.8-0.8
	c0-0.1-0.2-0.4-0.4-0.6s-0.6-0.7-0.8-0.9c-0.2-0.3-0.4-0.4-0.4-0.3s-0.1,0-0.2-0.2c-0.1-0.2-0.2-0.4-0.2-0.5c0,0-0.3-0.4-0.8-0.9
	c-0.9-0.9-1.4-1-2-0.4c-0.2,0.2-0.5,0.3-0.5,0.3c-0.1-0.1-0.1,0,0,0.1s-0.1,0.8-0.5,1.4c-0.3,0.7-0.6,1.3-0.6,1.4s-0.1,0.2-0.2,0.3
	c-0.2,0.1-0.3,0.7-0.3,1.9l-0.3,2l-0.8,0.4c-0.5,0.2-1.2,0.5-1.7,0.7c-1.3,0.6-2.1,0.5-2.8,0c-0.3-0.3-0.5-0.5-0.5-0.6
	c0.1-0.1-0.2-0.2-0.6-0.2c-0.6-0.1-0.7,0-0.7,0.3s-0.1,0.4-0.6,0.3c-0.3-0.1-0.7-0.2-0.9-0.2c-0.3-0.1-0.4,0-0.4,0.3
	c0,0.2,0.1,0.5,0.2,0.5c0.1,0.1,0.4,0.6,0.7,1.2s0.6,1.1,0.7,1.1s0.4,0,0.4,0.1c0,0.2,0.5,0.7,1,1.2c0.6,0.5,1,1,1,1.2
	c0,0.1,0.1,0.2,0.1,0.1c0.1-0.1,0.2,0,0.4,0.1c0.1,0.1,0.6,0.2,1.1,0.2c0.7,0,0.8,0.1,0.8,0.4c0,0.2-0.1,0.7-0.2,1.1
	c-0.1,0.4-0.2,0.8-0.4,0.8c-0.1,0-0.2,0.1-0.1,0.1c0.2,0.2-0.4,1-1.7,2.4c-0.8,1-0.9,1.2-0.9,1.8c0,0.4,0.3,1,0.5,1.3
	s0.4,0.6,0.4,0.7s0.3,0.4,0.6,0.7c0.5,0.4,0.9,0.6,1.4,0.6c0.8,0,1.6,0.5,1.6,1.1c0,0.1-0.6,0.7-1.4,1.2c-2.3,1.5-2.3,1.5-2.1,2.5
	c0.3,1.2,1.5,2.8,2.6,3.5c0.5,0.3,1,0.8,1.1,0.9c0.1,0.2,0.3,0.3,0.4,0.3c0.3,0,0.4,0.2,0.3,0.7c0,0.1,0.2,0.2,0.4,0.2
	c0.4,0,0.4,0-0.2,0.2c-0.8,0.2-4.6-0.2-5.3-0.6c-0.1-0.1-0.3-0.1-0.4-0.2c-0.7-0.2-1.1-0.3-1.9-0.6c-0.5-0.2-1.1-0.4-1.3-0.4
	c-0.2,0-0.6-0.1-0.9-0.2c-0.5-0.1-1.7-1.1-1.3-1.1c0.1,0,0-0.2-0.3-0.4c-0.2-0.2-0.4-0.5-0.3-0.6s0.1-0.2-0.1-0.1
	c-0.1,0.1-0.3-0.1-0.5-0.3c-0.1-0.2-0.2-0.4,0-0.3c0.1,0.1,0.2,0,0.1-0.2s-0.2-0.3-0.3-0.2c-0.1,0.1-0.4-0.5-0.8-1.3
	c-0.7-1.5-0.7-2,0-2.9c0.5-0.7,0.5-1.1,0-1.9c-0.2-0.3-0.4-0.8-0.4-1s-0.1-0.4-0.2-0.4s-0.2-0.1-0.2-0.3c0-0.2-0.3-0.4-0.6-0.6
	c-0.4-0.2-0.6-0.4-0.6-0.8c-0.1-0.6-0.7-1.3-1.3-1.3c-0.3,0-1.5-1.2-1.3-1.2c0.1,0,0-0.1-0.2-0.3c-0.2-0.2-0.2-0.6-0.2-1.1
	c0.1-0.8,0.1-0.8,0.7-0.7c0.4,0.1,1.2,0.1,1.9,0.1c0.7,0,1.6-0.1,2-0.1s1-0.2,1.2-0.3c1.3-1,1.4-1.7,0.4-2.3
	c-0.4-0.2-0.6-0.5-0.5-0.6s0-0.1-0.1,0s-0.5-0.1-0.9-0.4s-0.8-0.5-0.9-0.5s-0.6-0.3-1.1-0.6c-0.9-0.6-3.1-1.1-3.1-0.8
	c0,0.1-0.2,0.2-0.4,0.3c-0.5,0.2-0.5,0.4,0,0.9c0.2,0.2,0.4,0.5,0.3,0.6s0,0.2,0.1,0.2s0.2,0.1,0.1,0.1c-0.1,0.1,0.4,0.3,1.1,0.6
	c1,0.3,1.3,0.5,1.3,0.9c0,0.3,0,0.4-0.3,0.4c-0.2,0-0.3,0.1-0.3,0.2s-0.4,0.3-0.9,0.6c-0.5,0.2-1,0.5-1.2,0.7s-0.6,0.4-1.3,0.4
	c-0.6,0-1,0.1-1,0.3c0,0.3,1,1.1,1.3,1.1s0.5,0.9,0.6,2c0,0.3-0.1,0.8-0.3,1.1c-0.3,0.5-0.3,0.6,0.2,1.5c0.3,0.5,0.8,1.3,1.3,1.8
	c0.4,0.4,0.8,0.9,0.8,1.1c0,0.1,0.1,0.3,0.2,0.3c0.3,0,0.9,1.2,0.8,1.6c-0.1,0.3,0.3,0.8,1.3,1.8l1.5,1.4l-0.5,1
	c-0.5,1-0.9,1.4-1.6,1.4c-0.4,0-1.1-0.8-1.2-1.4c0-0.2-0.6-0.8-1.2-1.4c-0.9-0.8-1.3-1.1-1.7-1c-1.1,0.1-0.7,1.7,1,3.8
	c0.6,0.7,1,1.3,1.2,1.7c0.3,0.2,0.4,0.6,0.4,0.9c0.2,0.2,0.6,0.5,1.1,0.7c0.4,0.2,0.9,0.3,1.3,0.2c0.3-0.1,1.4-0.2,2.3-0.4
	c1.6-0.3,3.7-0.4,5.4-0.2c0.2-0.1,0.4-0.1,0.7-0.1c0.5,0.1,1,0.3,1.5,0.4c0,0,0,0,0.1,0c1.4-0.1,2.7,0.6,3.9,1.1
	c0.7,0.3,1.5,0.5,2.1,0.8c0.8,0.4,1.6,0.9,2.5,1.2h0.1c1.6,0.4,3.4,0.6,5,0.5c1.2-0.1,5.5-1.1,6.1,0.6c0.1,0,0.1,0.1,0.1,0.3
	c0,0.1,0,0.2,0,0.3c0.1,0.1,0.2,0.1,0.5,0.1s0.7-0.1,0.7-0.3c0-0.1,0.3-0.2,0.5-0.2c0.7,0,1.9-0.4,2.2-0.7c0.3-0.3,0.3-0.3,0.9-0.5
	c0.9-0.2,2.2-1,2.4-1.4c0.1-0.2,0.3-0.4,0.4-0.3c0.1,0.1,0.1,0,0-0.1s0-0.4,0.1-0.5c0.1-0.2,0.4-0.6,0.6-1l0.4-0.7l0,0V113.3z
	 M45.5,82.2c0.1,0,0.2-0.2,0.2-0.4c0-0.3,0.3-0.4,0.5-0.1c0.1,0.1,0.2,0.2,0.3,0.1s0.2,0,0.2,0.2s0.1,0.4,0.3,0.5
	c0.3,0.2,0.5,0.6,0.5,0.9c0,0.1,0.2,0.3,0.4,0.5c0.3,0.2,0.5,0.4,0.5,0.6c0,0.4-1.5,1.3-2.2,1.3c-0.5,0-1.5-0.4-1-0.4
	c0.1,0,0.1-0.1-0.1-0.3C44.9,84.8,45.2,82.3,45.5,82.2z M43.8,108.3c-0.3,2.6-0.2,2.5-1.6,2.4c-0.7-0.1-1.6-0.3-2.1-0.5
	c-0.4-0.2-0.9-0.4-1.1-0.4c-0.4-0.1-1-0.9-1.1-1.4c0-0.5,0.1-0.6,1.5-0.7c1.6-0.1,2.7-0.4,2.7-0.5c0-0.2,1.2-0.4,1.5-0.2
	C43.9,106.9,43.9,107.5,43.8,108.3z M44.1,101.2c-0.5,1.3-1.7,1.9-3.1,1.7c-0.5-0.1-1-0.2-1.2-0.4c-0.1-0.1-0.4-0.3-0.5-0.3
	c-0.4-0.1,0-0.7,0.6-1c1.2-0.5,2.3-1.1,2.3-1.3c0-0.5,1.7-0.6,2-0.1C44.5,100.2,44.4,100.5,44.1,101.2z"/>
<path d="M16.1,109.4"/>
<path d="M22,100.6"/>
<g>
	<path class="st10" d="M39.8,221l-18.7,3.4l-14.8-12l-0.8,0.8c0.3,0.3,15.2,12.5,15.2,12.5l19.4-3.6L39.8,221z"/>
	<path class="st10" d="M13.7,212.1c-0.3-0.2-0.8-0.5-1.5-0.7c-0.2-0.1-0.5-0.1-0.8-0.2c-0.4,0-1.2-0.1-2.2,0.5L7,212.4
		c0.3,0,14.1,11.5,14.1,11.5s18.3-3.2,18-3.3c-0.3-0.2-1.5-1.9-2.9-2.8c-0.3-0.2-0.8-0.5-1.5-0.6c-1.2-0.3-2,0.6-5.8,2.1
		c-0.8,0.3-5.8,3.4-6.4,3.6c1.7-0.8,8.7-5.7,8.7-5.7l-2-1.2l-3.7,2.2c0,0-0.1,0.1-0.9,0.8c-1.2,1-2.8,3.3-3.2,3.9
		c0-0.1-0.1-0.2-0.1-0.4c0,0-0.3-3.5-0.9-5.2c-0.4-1-0.4-1.2-0.4-1.2l-2.1-3.8h-2.3c1.1,1.2,2.3,2.9,3.4,5.1c1,2,1.6,3.8,2,5.3
		C18.6,219.3,16.1,215.7,13.7,212.1z"/>
	<path class="st10" d="M20,216.3L20,216.3C20,216.4,20,216.4,20,216.3z"/>
	<path class="st10" d="M25.5,218.4L25.5,218.4C25.5,218.3,25.5,218.4,25.5,218.4z"/>
</g>
<path class="st11" d="M65,67.7c-0.2-0.4,2.2-3,5.3-3.3c0.7-0.1,1.7-0.2,2.7,0.4s0.8,1.4,1.9,2.4c0.4,0.3,1.5,1.4,3,1.5s2.6-1,3-0.6
	c0.2,0.3-0.3,0.8,0,1.2c0.2,0.3,0.9,0.2,1.2,0.2c2.7-0.5,3.5-1.3,4.8-1.1c1.2,0.2,2,1,2.4,1.5c1.3,1.4,1.6,3.3,1.4,3.3
	c-0.1,0-0.3-0.5-0.9-1.2c-0.3-0.3-0.8-0.8-1.5-1.1c-0.7-0.3-1.3-0.2-2.3,0c-2.9,0.6-2.7,0.8-3.8,0.9c-1.9,0.2-2.8-0.3-3.4,0.4
	c-0.4,0.5-0.4,1.1-0.8,1.2c-0.5,0.1-1.3-0.6-1.2-0.8l0.1-0.1c0.3-0.2,0.6-0.5,0.5-0.7c0-0.2-0.5-0.1-1-0.3c-0.6-0.2-0.9-0.7-1.3-1.3
	c-0.9-1.2-1.9-2.1-2.4-2.4c-1-0.7-1.9-0.9-2.4-0.9C67.4,66.3,65.2,68,65,67.7z"/>
<path class="st10" d="M10.6,198.8c0,0.1,1.4-0.1,3.5,0.2c0.9,0.1,1.5,0.3,2.4,0.6c1.9,0.5,2.2,0.9,2.4,1.2c0.4,0.6,0.4,1.3,0.4,1.3
	c0,0.5-0.1,0.8,0.1,0.9c0.2,0.2,0.5,0.1,0.8,0s0.5-0.1,0.6-0.3c0.2-0.2,0.1-0.4,0-1.2c0,0,0-0.4,0-0.6c0.1-0.8,0.8-1.3,1.5-1.9
	c0.9-0.9,0.8-1.2,1.5-1.9c1.9-1.9,4.9-1.5,4.9-1.8c0-0.2-1.8-0.4-3.4-0.2c-1,0.1-1.5,0.3-1.8,0.4c-0.8,0.4-1.3,1-1.6,1.4
	c-0.6,0.8-0.3,0.9-1.1,2.2c-0.3,0.5-0.6,0.9-0.7,1.5c0,0.3,0,0.5-0.1,0.6c-0.1,0-0.3-0.5-0.5-0.9c-0.4-0.7-1-1-1.9-1.3
	c-1.8-0.8-3.5-0.8-4-0.8C11.9,198.3,10.6,198.6,10.6,198.8z"/>
<path class="st10" d="M32.2,188.5c0,0-0.5,0-1.2,0.1c-0.3,0-0.5,0.1-0.8,0.2c-0.7,0.2-0.8,0.3-0.8,0.4c-0.1,0.2-0.1,0.4-0.1,0.4
	c0,0.2,0,0.3,0,0.3c-0.1,0.1-0.2,0-0.3,0c-0.1,0-0.2,0-0.2-0.1c-0.1-0.1,0-0.1,0-0.4c0,0,0-0.1,0-0.2c0-0.3-0.3-0.4-0.5-0.7
	c-0.3-0.3-0.3-0.4-0.5-0.7c-0.7-0.7-1.7-0.5-1.7-0.6s0.6-0.1,1.2-0.1c0.4,0,0.5,0.1,0.6,0.1c0.3,0.1,0.5,0.4,0.6,0.5
	c0.2,0.3,0.1,0.3,0.4,0.8c0.1,0.2,0.2,0.3,0.2,0.5c0,0.1,0,0.2,0,0.2s0.1-0.2,0.2-0.3c0.1-0.2,0.4-0.3,0.7-0.5
	c0.6-0.3,1.2-0.3,1.4-0.3C31.7,188.3,32.2,188.5,32.2,188.5z"/>
<path class="st12" d="M35.1,17.9c-1.2,0.2-1.9,0.4-2.7,0.8c-1.2,0.6-2.2,1.6-2.9,2.7c-0.4,0.7-0.8,1.6-1,2.5c-0.1,0.6-0.2,2.3,0,2.9
	c0.2,0.9,0.6,2,1,2.6c0.1,0.2,0.3,0.4,0.3,0.5c0.2,0.3,1,1.1,1.3,1.4c1.1,0.9,2.3,1.4,3.6,1.6c0.5,0.1,1.7,0.1,2.2,0
	c1.2-0.2,2.6-0.8,3.5-1.5c0.4-0.3,1-1,1.3-1.2c0.4-0.5,0.9-1.3,1.1-1.9c0.1-0.3,0.3-0.8,0.4-1.6c0.1-0.4,0.1-2,0-2.4
	c-0.3-1.3-0.5-1.9-1-2.8c-0.7-1.2-2.2-2.5-3.5-3c-0.1-0.1-0.3-0.1-0.4-0.1c-0.4-0.2-1-0.3-1.8-0.4C36,17.8,35.6,17.8,35.1,17.9
	 M36.5,18.4c0.7,0.1,1.5,0.3,2.1,0.6c0.2,0.1,0.3,0.1,0.3,0.1c0.1,0,1.3,0.8,1.6,1.2c0.8,0.8,1.5,1.8,1.8,2.9c0.2,0.7,0.4,2,0.4,2.5
	c-0.1,1.5-0.4,2.2-0.9,3.2c-0.2,0.4-0.7,1-1,1.4c-0.5,0.5-1.4,1.2-2.1,1.6c-0.4,0.2-1.3,0.5-1.4,0.5c-0.1,0-0.1,0-0.2,0
	c0,0-0.4,0.1-0.8,0.1c-0.6,0.1-0.8,0.1-1.4,0c-0.4,0-0.7-0.1-0.8-0.1s-0.2-0.1-0.3-0.1c-0.5-0.1-1.5-0.5-2-0.9
	c-0.5-0.3-0.6-0.4-1-0.8c-1.5-1.5-2.3-3.4-2.2-5.5c0-0.3,0-0.7,0.1-0.8c0-0.1,0.1-0.4,0.1-0.6c0.3-1.3,1.1-2.6,2.2-3.6
	C32.7,18.8,34.5,18.2,36.5,18.4 M35.3,18.5C34.1,18.6,33,19,32,19.6c-0.9,0.6-1.6,1.4-2.2,2.4c-0.1,0.3-0.3,0.5-0.3,0.5
	s0,0.1-0.1,0.2c0,0.1-0.1,0.3-0.2,0.6c-0.7,2.2-0.2,4.6,1.3,6.5c1,1.2,2.6,2.1,4.1,2.4c1.1,0.2,2.4,0.1,3.4-0.3
	c1.7-0.6,3.2-1.9,4-3.5c0.3-0.6,0.4-1.1,0.6-1.9c0.1-0.3,0.1-1.9,0-2.3c-0.4-2-1.4-3.6-3.1-4.7C38.3,18.8,36.8,18.4,35.3,18.5
	 M37.6,19.2c0,0.1,0,0.1,0,0.2c-0.1,0.2-0.1,0.3,0.1,0.3c0.3,0,0.4,0.2,0.1,0.3c-0.5,0.1-0.5,0.1-0.6,0.5c-0.1,0.3-0.2,0.2-0.1-0.1
	c0-0.2,0-0.3-0.1-0.3c-0.1,0.1-0.3-0.2-0.2-0.5c0-0.2,0.2,0,0.2,0.2c0,0,0,0.1,0.1,0.1c0,0,0.1,0,0.1-0.1v-0.1l0,0c0,0,0,0,0.1,0
	s0.2-0.1,0.3-0.4C37.5,19.1,37.6,19,37.6,19.2 M33.7,19.4C33.7,19.5,33.7,19.6,33.7,19.4c0.2-0.1,0.2-0.1,0.1,0.2
	c0,0.4,0,0.4,0.3,0.2c0.1-0.2,0.2-0.2,0.2-0.1c0.1,0,0.1,0.1,0,0.1c0,0.1,0,0.1,0.1,0.2s0.1,0.2,0.1,0.2c0,0.1,0,0.1,0.1,0.2
	s0.1,0.1,0.1,0.2s0,0.1-0.2,0s-0.2-0.1-0.3,0S34,20.7,34,20.7c-0.1,0-0.1,0.1-0.2,0.1c-0.1,0.1-0.3,0.2-0.3,0c0,0,0-0.1,0-0.2
	s0-0.2,0-0.3c0-0.1-0.1-0.1,0-0.2c0-0.1,0-0.1-0.1,0s-0.1,0,0-0.2s0.2-0.4,0.1-0.4c0,0-0.1,0-0.1,0.1c-0.1,0.1-0.2,0.1-0.2,0
	l0.1-0.1c0.1,0,0.1-0.1,0.1-0.1c0-0.1,0-0.1,0.1-0.1C33.6,19.4,33.6,19.4,33.7,19.4C33.7,19.2,33.7,19.3,33.7,19.4 M34,20.1
	c-0.1,0.1-0.1,0.2-0.1,0.2s0,0.1,0.1,0.2v0.1l0.1-0.1c0.1-0.1,0.1-0.1,0.1-0.1s0-0.1,0.1-0.1c0.1-0.1,0.1-0.3,0-0.4
	C34.2,19.9,34.1,19.9,34,20.1 M33.8,20.1c-0.1,0.1-0.1,0.2,0,0.2C33.8,20.2,33.9,20,33.8,20.1C33.8,20,33.8,20,33.8,20.1 M31.7,20.6
	c0.1,0.1,0.3,0.3,0.5,0.5s0.4,0.3,0.4,0.3s-0.1,0.1-0.1,0.2c-0.1,0.1-0.1,0.1-0.1,0s0-0.1-0.5-0.6c-0.2-0.2-0.4-0.4-0.4-0.4
	l-0.1-0.1c-0.1,0-0.1-0.1,0-0.1C31.4,20.4,31.5,20.4,31.7,20.6 M33.7,20.7C33.6,20.7,33.7,20.7,33.7,20.7
	C33.8,20.7,33.8,20.6,33.7,20.7C33.7,20.6,33.7,20.6,33.7,20.7 M39.2,20.6c0,0.1-0.3,0.3-0.4,0.3c-0.1,0-0.1-0.1,0.1-0.2
	C39.1,20.6,39.2,20.6,39.2,20.6 M31.3,20.8c0.1,0,0,0.1,0,0.2c-0.1,0.1-0.1,0.1,0,0.1c0.1,0.1,0.1,0.1-0.1,0.1c-0.1,0-0.1,0-0.1,0
	v-0.1c0,0,0.1-0.1,0.1-0.3C31.2,20.6,31.3,20.6,31.3,20.8L31.3,20.8 M36.7,20.9c0.6,0.1,0.7,0.2,1.1,0.3c0.7,0.4,1.5,1,1.9,1.6
	c0.2,0.3,0.5,0.9,0.5,1v0.1c0,0,0.1,0.2,0.1,0.4c0.1,0.4,0.1,1.7,0,2.1c-0.4,1.4-1.3,2.6-2.6,3.2c-0.4,0.2-0.4,0.2-0.4,0.1
	s0.1-0.1,0.4-0.3c1.1-0.6,1.9-1.5,2.3-2.8c0.1-0.4,0.1-1.9,0-2.3c-0.4-1.2-1-2.1-2-2.7s-2.3-0.8-3.4-0.5c-1.3,0.3-2.4,1.4-2.9,2.6
	c-0.7,1.7-0.2,3.6,1.1,4.9c0.2,0.2,1,0.7,1.1,0.8c0.1,0,0.1,0.2,0,0.2s-0.6-0.3-0.9-0.5c-1-0.8-1.6-1.9-1.8-3.1
	c-0.3-2.2,1-4.2,3.1-4.9c0.2-0.1,0.5-0.2,0.6-0.2s0.3,0,0.3-0.1C35.4,20.7,36.3,20.8,36.7,20.9 M39.4,20.9c0,0,0,0.1-0.1,0.2
	c-0.1,0.2-0.1,0.3,0.1,0.4c0.1,0.1,0.3,0.1,0.3,0c0.1-0.1,0.1,0,0.1,0.2s-0.1,0.2-0.4,0.1c-0.2-0.1-0.4-0.4-0.4-0.6
	C39,21.1,39.2,20.9,39.4,20.9C39.3,20.9,39.4,20.9,39.4,20.9 M39.9,21.3c0.2,0.2,0.3,0.4,0.3,0.5c-0.1,0.2-0.2,0-0.2-0.2
	c0-0.1-0.1-0.2-0.4-0.3c-0.1,0,0-0.2,0.1-0.2C39.6,21,39.7,21.1,39.9,21.3 M31.7,21.2c0,0.1,0,0.2,0,0.2c0,0.1,0.1,0.3,0.2,0.2v-0.1
	c0-0.1,0-0.1,0.1-0.1c0.1,0.1,0,0.4-0.1,0.4c0,0-0.1-0.1-0.2-0.1l-0.1-0.1v0.1c0,0.1,0,0.1-0.1,0.1c-0.1-0.3-0.1-0.4-0.1-0.5
	C31.5,21.1,31.6,21.1,31.7,21.2 M31.5,22.1c0.1,0.1,0.2,0.3,0.1,0.3S31.2,22,31.2,22s0,0,0.1,0C31.4,21.9,31.5,22,31.5,22.1
	 M36.3,23.1c0.2,0,0.3,0.1,0.7,0.5l0.4,0.4h0.3c0.2,0,0.5-0.1,0.8-0.2s0.6-0.2,0.7-0.2h0.2l-0.2,0.2c-0.2,0.3-1,0.7-1.3,0.7
	c-0.4,0-0.5,0-1-0.5l-0.4-0.4H36c-0.7,0-0.8,0-1.3,0.5c-0.4,0.4-0.6,0.5-1,0.5c-0.3,0-0.8-0.1-1-0.3c-0.1-0.1-0.2-0.1-0.2-0.1
	c-0.1,0-0.2-0.2-0.2-0.2c0-0.1,0.2-0.4,0.3-0.4c0,0,0.1,0.1,0.2,0.1c0.2,0.2,0.5,0.4,0.9,0.3c0.3,0,0.4,0,0.5-0.1
	c0.2-0.1,0.4-0.4,0.5-0.5c0.1-0.2,0.4-0.4,0.7-0.4C35.8,23,36.1,23,36.3,23.1 M41.4,23.6l0.1,0.2h0.3c0.1,0,0.3,0,0.3,0
	S42,23.9,41.9,24c-0.2,0.1-0.2,0.2-0.1,0.4c0,0.1,0.1,0.2,0,0.2c0,0-0.1,0-0.2-0.1l-0.2-0.1l-0.1,0.1c-0.1,0.1-0.2,0.1-0.2,0.1
	s0,0-0.1,0c0,0,0-0.1,0-0.4c0-0.1,0-0.1-0.1-0.2c-0.2-0.2-0.2-0.2,0.1-0.2h0.2L41.4,23.6c-0.1-0.1,0-0.2,0-0.2
	C41.3,23.3,41.4,23.5,41.4,23.6 M30.4,23.6c0.1,0.2,0.1,0.2,0.3,0.2c0.3,0,0.3,0.1,0.1,0.2c-0.2,0.2-0.3,0.2-0.2,0.5
	c0,0.1,0.1,0.2,0,0.2c0,0-0.1-0.1-0.2-0.1l-0.2-0.1L30,24.6c-0.1,0.1-0.2,0.1-0.2,0.1s0-0.1,0-0.2l0.1-0.2L29.8,24
	c-0.1-0.1-0.2-0.2-0.2-0.2s0.1,0,0.2,0c0.2,0,0.2,0,0.4-0.3C30.3,23.3,30.4,23.3,30.4,23.6 M36.3,23.8c0.1,0,0.3,0.2,0.4,0.3
	c0.4,0.5,0.5,0.6,0.8,0.6c0.1,0,0.3,0.1,0.3,0.1c0,0.1,0,4,0,4.1l-0.4,0.2c0,0,0-0.8,0-1.7c0-1,0-1.8,0-1.8
	c-0.1-0.2-0.2-0.2-0.8-0.3c-0.6,0-0.6,0-0.6,0.1s0.1,0.1,0.6,0.1c0.3,0,0.6,0,0.6,0.1c0,0,0.1,0.1,0.1,0.2V26h-0.5
	c-0.4,0-0.5,0-0.5-0.1c0,0,0-0.1-0.1-0.1s-0.1,0-0.1,0.3c0,0.5,0.1,0.6,0.8,0.6h0.4v1.7v1.7L36.6,30c-0.2,0-0.6,0-0.8,0
	c-0.4,0-1.2-0.1-1.4-0.2l-0.1-0.1v-1.6v-1.6h0.5c0.4,0,0.5,0,0.6-0.1s0.1-0.1,0.1-0.4s0-0.4-0.1-0.4s-0.1,0-0.1,0.1
	s-0.1,0.1-0.5,0.1h-0.5v-0.1c0-0.3,0.1-0.3,0.7-0.3c0.5,0,0.6,0,0.6-0.1s0-0.1-0.6-0.1c-0.7,0-0.7,0-0.8,0.2
	C34,25.5,34,25.7,34,27.2c0,0.9,0,1.7,0,1.7s-0.1-0.1-0.2-0.1l-0.2-0.1v-2v-2l0.3-0.1c0.3-0.1,0.5-0.2,0.7-0.5
	c0.3-0.3,0.4-0.4,0.7-0.5C35.7,23.7,36.1,23.7,36.3,23.8 M35.3,26.2v0.1h-0.5c-0.5,0-0.5,0-0.5-0.1s0-0.1,0-0.1s0.3,0,0.5,0
	C35.3,26,35.3,26,35.3,26.2 M37.1,26.2v0.1h-0.5h-0.5v-0.1v-0.1h0.5h0.5V26.2 M30.8,26.6l0.1,0.2L30.7,27l-0.2,0.2h0.2
	c0.3,0,0.4,0.1,0.4,0.4c0,0.1,0,0.2,0,0.2s-0.2,0.1-0.4,0.1c-0.4,0.2-0.5,0.1-0.5-0.1c0-0.1,0-0.1,0.3-0.2l0.3-0.1h-0.4
	c-0.4,0-0.4,0-0.4-0.1s0-0.2,0.2-0.3c0.2-0.2,0.2-0.2,0.1-0.2S30.1,27,30,27s-0.1,0.1-0.2,0.1s-0.1-0.1,0-0.2c0.1,0,0.1,0,0.5-0.2
	c0.2-0.1,0.3-0.1,0.3-0.1C30.7,26.4,30.7,26.5,30.8,26.6 M41.3,26.8c-0.1,0.2,0,0.3,0.3,0.3c0.1,0,0.2,0,0.2,0.1l-0.1,0.3
	c0,0-0.6-0.2-0.7-0.2c0,0,0-0.1,0-0.2s0.1-0.2,0.1-0.3c0-0.1,0.1-0.1,0.1-0.1C41.3,26.7,41.3,26.7,41.3,26.8 M35.2,26.8
	c-0.2,0.1-0.5,0.2-0.5,0.4c0,0.2,0.2,0.3,0.5,0.3c0.4,0,0.4,0.1,0,0.2c-0.2,0-0.3,0.1-0.4,0.2c-0.2,0.2-0.1,0.4,0.1,0.5
	c0.1,0.1,0.2,0.1,0.4-0.1c0.5-0.2,0.6-0.2,0.7-0.2c0.1,0,0.4,0.3,0.4,0.3c0,0.1,0,0.1,0.1,0c0.1,0,0.1-0.1,0-0.2
	c-0.2-0.4-0.6-0.4-1.1-0.2c-0.4,0.2-0.4,0.2-0.5,0.1s0.1-0.3,0.3-0.3s0.5-0.1,0.6-0.3c0.1-0.2-0.2-0.3-0.7-0.3c-0.1,0-0.1,0-0.1-0.1
	s0.2-0.2,0.6-0.2c0.4,0,0.7,0.1,0.7,0.2s0,0.1-0.2,0.1s-0.2,0-0.2,0.1s0,0.1,0.2,0.1c0.3,0,0.4-0.1,0.4-0.3c0-0.2-0.1-0.3-0.5-0.4
	C35.7,26.7,35.5,26.7,35.2,26.8 M41,27.7c0.1,0.1,0.1,0.2,0,0.4c-0.1,0.2-0.1,0.3-0.1,0.3s0.1-0.1,0.2-0.2c0.1-0.2,0.2-0.3,0.2-0.2
	c0,0.1-0.3,0.7-0.4,0.7c-0.1,0.1-0.5-0.2-0.5-0.3c0-0.2,0.3-0.8,0.4-0.8C40.9,27.6,41,27.6,41,27.7 M31.4,28c0.1,0.1,0.1,0.2,0,0.2
	s-0.2-0.2-0.2-0.3C31.2,27.9,31.3,27.9,31.4,28 M40.7,28c-0.1,0-0.1,0.2,0,0.2S40.9,28,40.7,28C40.8,28,40.8,28,40.7,28 M31.2,28.1
	c0.1,0.1,0.1,0.2,0,0.2l-0.1,0.1c0,0-0.1,0.1-0.2,0.1l-0.2,0.1l-0.1-0.2l-0.1-0.2l0.2-0.1c0.1-0.1,0.2-0.2,0.3-0.2
	C31.1,28,31.1,28,31.2,28.1 M31.6,28.8c0.2,0.3,0.3,0.4,0.3,0.5s-0.4,0.4-0.5,0.4l-0.1-0.1l-0.1-0.1l0.2-0.2
	c0.2-0.2,0.2-0.2,0.2-0.3c-0.1-0.1-0.1-0.1-0.3,0.1l-0.2,0.2L31,29.2c-0.1-0.1-0.1-0.1-0.1-0.2l0.5-0.5
	C31.4,28.6,31.5,28.7,31.6,28.8 M40.3,28.7c0,0,0,0.1-0.1,0.2s-0.1,0.1,0.1,0.2l0.2,0.1l0.1-0.1c0.1-0.1,0.2-0.1,0.2,0
	s-0.4,0.4-0.4,0.4s-0.1-0.1-0.3-0.2c-0.1-0.1-0.2-0.1-0.2-0.1s0,0-0.1,0s-0.1-0.4,0-0.5c0,0,0.1-0.1,0.2-0.1c0,0,0.1,0,0.2-0.1
	C40.2,28.6,40.3,28.6,40.3,28.7 M39.7,29.6C39.8,29.7,40,30,40,30c0,0.1-0.3,0.2-0.3,0.2c-0.2-0.3-0.3-0.4-0.4-0.4
	c-0.2,0-0.1,0.1,0.1,0.4c0.1,0.1,0.2,0.2,0.2,0.2s-0.1,0.1-0.2,0.1l-0.1,0.1L39,30.3L38.8,30l0.3-0.3C39.4,29.5,39.6,29.4,39.7,29.6
	 M33,29.8c0.1,0,0.1,0.1,0.1,0.1c0,0.1-0.4,0.6-0.5,0.7c-0.1,0-0.1,0-0.4-0.1c-0.1-0.1-0.3-0.2-0.3-0.3c0-0.1,0.1-0.1,0.2,0l0.1,0.1
	l0.1-0.1c0.2-0.2,0.2-0.2,0.3-0.4c0-0.1,0.1-0.1,0.1-0.1C32.9,29.7,33,29.7,33,29.8 M33.7,30.1c0.1,0,0.1,0.1,0.1,0.1
	c0,0.1-0.1,0.1-0.3,0S33.5,30,33.7,30.1 M38.7,30.3c0,0.1,0.1,0.2,0.1,0.2s-0.1,0.1-0.3,0.1c-0.1,0.1-0.2,0.1-0.2,0.2s0.2,0,0.3-0.1
	s0.2-0.1,0.2,0c0.1,0.1,0,0.1-0.4,0.3c-0.2,0.1-0.3,0.1-0.4,0.1c-0.1,0-0.3-0.4-0.3-0.5s0.1-0.2,0.4-0.3
	C38.5,30.1,38.6,30.2,38.7,30.3 M33.6,30.4c0,0,0,0.1-0.1,0.3c-0.1,0.2-0.2,0.3-0.2,0.3s-0.1,0-0.2-0.1c-0.1-0.1-0.2-0.1-0.1-0.2
	c0,0,0.1-0.1,0.2-0.3c0.1-0.2,0.1-0.3,0.2-0.2C33.5,30.3,33.5,30.4,33.6,30.4 M37.5,30.4C37.5,30.5,37.4,30.5,37.5,30.4
	c-0.1,0.1-0.2,0.1-0.3,0.1s-0.1,0.1-0.1,0.3c0,0.1,0.1,0.3,0.1,0.3c0,0.1,0.2,0.1,0.4,0c0.1-0.1,0.2,0,0.1,0.1
	c-0.1,0.1-0.6,0.2-0.7,0.1c-0.1,0-0.1-0.2-0.2-0.5c0-0.2,0-0.3,0-0.4C36.9,30.4,37.5,30.3,37.5,30.4 M38.1,30.5L38.1,30.5
	c0,0.2,0.3,0.1,0.2,0C38.3,30.4,38.2,30.4,38.1,30.5 M34.4,30.7c0.2,0.1,0.4,0.1,0.4,0.2s-0.1,0.5-0.2,0.6c0,0-0.5-0.1-0.7-0.2
	c-0.1,0-0.2-0.1-0.2-0.2c0-0.3,0-0.3,0.4-0.2c0.3,0,0.4,0,0.1-0.1c-0.3-0.1-0.3-0.1-0.3-0.2s0.1-0.1,0.2,0
	C34.2,30.6,34.3,30.6,34.4,30.7 M36,30.9c0.1,0.1,0.1,0.4,0,0.6c0,0.1-0.1,0.1-0.4,0.1c-0.5,0-0.6,0-0.5-0.4c0-0.1,0-0.3,0.1-0.3
	C35.1,30.8,35.9,30.8,36,30.9 M35.4,31.1c0,0.2,0,0.3,0.1,0.3s0.1,0,0.1-0.2s0-0.3-0.1-0.3C35.5,31,35.4,31,35.4,31.1 M34.1,31.1
	c0,0.1,0.1,0.1,0.2,0.1c0.1-0.1,0.1-0.1-0.1-0.1C34.1,31,34.1,31.1,34.1,31.1 M38.3,33.9c0,0,0,0.2,0,0.4c0.1,0.4,0,1.7-0.1,1.9
	c-0.1,0.1-0.2,0.2-0.6,0.3l-0.2,0.1l0.1,0.1c0.1,0.1,0.2,0.1,0.3,0.1c0.2,0,0.4,0.2,0.4,0.3s-0.2,0.4-0.4,0.4
	c-0.1,0-0.1-0.1-0.3-0.2c-0.4-0.7-0.7-0.9-1-0.9h-0.1v0.4c0,0.4,0,0.4,0.3,0.7c0.1,0.1,0.1,0.2,0.1,0.4s0.1,0.4,0.3,0.5
	s0.5,0.1,0.7-0.1c0.1-0.1,0.2-0.1,0.2-0.1c0.1,0,0.1,0.2,0.2,0.9c0,0.6,0,0.7,0.2,0.9c0.2,0.4,0.3,0.4,0.3,0c0-0.2,0-0.4,0.1-0.6
	c0-0.2,0-0.5,0-0.8c0-0.4,0-0.6,0.1-0.7c0.1-0.2,0.4-0.4,0.6-0.4c0.2,0,0.2-0.1,0.3-0.2c0-0.1,0.1-0.2,0.2-0.2
	c0.3-0.1,0.6-0.3,0.7-0.4C41,36.2,41,36.2,41,36s0-0.2-0.1-0.3c-0.2-0.1-0.6-0.1-1.2,0.1c-0.3,0.1-0.5,0.1-0.6,0.1S39,35.8,39,35.2
	c0-1,0-0.9-0.1-1.1c-0.1-0.1-0.3-0.3-0.5-0.3C38.4,33.8,38.3,33.8,38.3,33.9 M32.1,34c0,0,0,0.2,0.1,0.3c0,0.1,0.1,0.3,0.1,0.3
	c0,0.1-0.6,0.4-0.9,0.4c-0.2,0-0.3,0.1-0.3,0.1s0,0.1,0.1,0.2c0.2,0.2,0.3,0.2,0.7,0c0.2-0.1,0.3-0.2,0.4-0.2c0.1,0,0.2,0.1,0.3,0.2
	c0,0.1,0,0.2-0.3,0.5c-0.2,0.2-0.6,0.4-0.8,0.6c-0.3,0.2-0.5,0.3-0.5,0.4c0,0.2,0.2,0.3,0.5,0.1c0.2-0.1,0.2-0.1,0.3,0
	c0,0,0,0.1-0.1,0.3c-0.1,0.1-0.2,0.2-0.2,0.3s0.2,0.4,0.3,0.6c0.1,0.1,0,0.1-0.2,0.4c-0.3,0.3-0.6,0.8-0.6,0.9c0,0,0.1,0.1,0.1,0.2
	c0.1,0.1,0.1,0.1,0.4,0.1s0.6-0.1,0.8-0.3c0.1-0.1,0.1-0.1,0.4-0.1c0.4,0.1,0.8,0,1.2-0.1c0.2-0.1,0.4-0.1,0.4-0.1s0.2,0.1,0.3,0.3
	c0.7,0.6,0.8,0.7,0.9,0.3c0.1-0.4,0-0.5-0.3-0.8l-0.3-0.3l0.2-0.2c0.2-0.2,0.2-0.4,0.2-0.6c-0.1-0.2-0.3-0.5-0.4-0.6l-0.1-0.1
	c0-0.1,0.2-0.4,0.4-0.4c0.1,0,0.1-0.2,0-0.4s-0.3-0.3-0.5-0.1c-0.4,0.2-0.9,0.5-1,0.6c-0.3,0.3-0.5,0.1-0.4-0.6c0-0.4,0-0.4,0.2-0.7
	c0.1-0.2,0.2-0.3,0.2-0.3s0.1-0.1,0.2-0.1C34,35,34,34.9,34,34.9c-0.1-0.1-0.2-0.1-0.5,0.2c-0.3,0.2-0.4,0.3-0.5,0.2s-0.1-0.4,0-0.4
	s0.3-0.2,0.3-0.4s0-0.2-0.2,0c-0.2,0.3-0.3,0.2-0.5-0.2C32.2,34,32.1,33.9,32.1,34 M27.5,34.6c-1,0.4-1,0.6,0,0.6
	c0.8,0,0.8,0,0.8,2.1v1.5h-0.1c-0.1,0-0.1,0.1-0.1,0.1s0.1,0.1,0.1,0.2c0.1,0.1,0.1,0.2,0.1,0.3c0,0.2,0.1,0.3,0.3,0.4
	c0.2,0.1,0.2,0.1,0.3,0c0.2-0.2,0.3-0.3,0.2-1.2c-0.1-1-0.2-2-0.1-2.5c0-0.2,0-0.5,0.1-0.7c0-0.3,0-0.3-0.1-0.6
	c-0.1-0.1-0.2-0.3-0.4-0.4C28.2,34.4,27.9,34.4,27.5,34.6 M24.6,35.2c0,0,0.1,0.1,0.1,0.2c0.1,0.1,0.1,0.2,0,0.4L24.6,36h0.1
	c0.1,0,0.2-0.1,0.2-0.1c0.1-0.1,0.2-0.2,0.3-0.2c0.1-0.1,0.1-0.2-0.1-0.3C25,35.2,24.6,35.1,24.6,35.2 M26.2,36c0,0,0,0.1,0.1,0.2
	c0.1,0.1,0.1,0.2,0.1,0.2s-0.2,0.1-0.4,0.2c-0.3,0.1-0.4,0.1-0.5,0.1s-0.1-0.1-0.1-0.1l0,0c0,0,0,0.7,0,0.8s0.1,0.2,0.1,0.2
	c0.1,0,0.2-0.2,0.2-0.4c0-0.1,0-0.2,0.1-0.2s0.3,0,0.3,0c0,0.1-0.2,0.5-0.2,0.5c-0.1,0-0.1,0.4,0,0.4c0,0,0.1,0,0.1,0.1
	c0.1,0.1,0.1,0.1,0.1,0.4c0,0.4,0,0.5,0.3,0.4c0.2-0.1,0.6-0.3,0.7-0.5c0.1-0.1,0.2-0.1,0.4,0.1c0.2,0.3,0.5,0.2,0.4-0.3
	c0-0.2-0.3-0.6-0.4-0.6s-0.1-0.1,0-0.2c0-0.1,0-0.1-0.1-0.2C27.1,37,27,37,27.3,36.9c0.1-0.1,0.2-0.1,0.3-0.1c0,0,0.1-0.1,0.2-0.1
	s0.1-0.3,0-0.3c-0.3-0.2-0.6-0.2-0.9-0.1c-0.1,0-0.1,0-0.2-0.1S26.6,36,26.5,36C26.3,35.9,26.2,35.9,26.2,36 M45.8,36.2
	c-0.1,0-0.3,0.1-0.4,0.1c-0.2,0.1-0.3,0.1-0.7,0.1s-0.5,0-0.5,0.1c-0.1,0.1,0,0.3,0.2,0.5c0.3,0.3,0.4,0.3,0.7,0
	c0.2-0.2,0.8-0.5,0.9-0.5c0.2,0,0.4,0.2,0.5,0.3c0.1,0.2,0.3,0.3,0.6,0.2s0.4-0.2,0.4-0.3s-0.2-0.4-0.3-0.5
	C47,36.2,46.2,36.1,45.8,36.2 M39.7,36.3c0,0.1-0.4,0.4-0.5,0.4s-0.1,0-0.1-0.1s0.1-0.1,0.3-0.3C39.7,36.2,39.8,36.2,39.7,36.3
	 M24.3,36.7c0.1,0.1,0.1,0.2,0,0.4c-0.2,0.5-0.2,0.8-0.2,1.5c0,0.4,0.3,0.8,0.4,0.5c0-0.1,0.1-0.2,0-0.5c0-0.3,0-0.5,0-0.9
	c0-0.3,0.1-0.5,0.1-0.6c0.1-0.2-0.2-0.6-0.4-0.6C24.3,36.6,24.3,36.6,24.3,36.7 M42.3,36.8c-0.2,0-0.3,0.3-0.4,1.1
	c-0.1,0.3,0.2,0.7,0.5,0.7c0.2,0,0.4-0.4,0.3-0.6c0-0.1-0.1-0.4-0.2-0.9C42.4,36.8,42.4,36.7,42.3,36.8 M32.8,37
	c0,0.1-0.6,0.6-0.6,0.6c-0.1,0-0.3-0.1-0.3-0.2c0,0,0.1-0.2,0.3-0.4l0.3-0.3l0.1,0.1C32.7,36.9,32.8,37,32.8,37 M43.3,37
	c0,0.1-0.1,0.2-0.1,0.3s0,0.2,0,0.3s0,0.3,0.1,0.4c0,0.1,0.1,0.3,0.1,0.4c0.2,0.3,0.8,0.5,1.2,0.5c0.5,0,1.9-0.4,2.2-0.6
	c0.1,0,0.1-0.1,0.1-0.2c0.1-0.2,0-0.3-0.3-0.5c-0.1-0.1-0.4-0.3-0.6-0.5c-0.2-0.2-0.3-0.3-0.3-0.3c-0.1,0,0,0.2,0.1,0.6
	c0.2,0.4,0.2,0.5-0.1,0.7c-0.3,0.1-1.2,0.3-1.4,0.3c-0.3-0.1-0.5-0.3-0.7-0.8s-0.3-0.8-0.4-0.8C43.4,36.8,43.3,36.9,43.3,37
	 M33.9,37c0,0.1,0.1,0.2,0.2,0.3c0.1,0.1,0.2,0.2,0.2,0.2c0,0.1-0.3,0.6-0.5,0.7c-0.1,0.1-0.2,0.1-0.4,0c-0.3,0-0.3,0-0.2,0.2
	c0.1,0.1,0.1,0.1,0,0.2c-0.1,0.1-0.7,0.5-0.9,0.5c-0.1,0-0.2-0.1-0.1-0.3c0.1-0.1,0.2-0.5,0.1-0.6c0,0-0.1-0.1-0.1-0.2
	c0-0.2,0-0.2,0.4-0.5c0.4-0.4,0.9-0.7,1-0.7C33.8,36.9,33.9,36.9,33.9,37 M26.9,37.7c0,0-0.3,0.2-0.4,0.2s-0.1-0.1,0.1-0.2
	C26.7,37.7,26.9,37.6,26.9,37.7 M31.8,38.6c0,0.1-0.3,0.5-0.4,0.6s-0.1,0.1-0.2,0s0-0.2,0.2-0.5C31.7,38.5,31.8,38.5,31.8,38.6
	 M27.8,41.9c0,0.5,0,0.6,0.1,0.7c0.1,0,0.1,0,0.1-0.4c0-0.2,0-0.5,0-0.5s0.1,0.1,0.1,0.3c0.2,0.7,0.3,0.8,0.5,0.3
	c0-0.1,0.1-0.3,0.1-0.3s0-0.1,0.1-0.2c0.1-0.3,0.1-0.1,0.1,0.3c0,0.4,0,0.5,0.1,0.5s0.1-0.1,0.1-0.6v-0.6H29c-0.1,0-0.1,0.1-0.3,0.5
	c-0.1,0.3-0.2,0.5-0.2,0.5s-0.1-0.1-0.1-0.2c0-0.1,0-0.2-0.1-0.2s-0.1-0.1-0.1-0.2c0-0.1-0.1-0.2-0.1-0.2s0-0.1-0.1-0.2
	c0-0.1-0.1-0.1-0.1-0.1h-0.1L27.8,41.9 M29.6,41.4c0,0.1,0.1,0.1,0.1,0C29.8,41.3,29.7,41.3,29.6,41.4
	C29.7,41.3,29.6,41.3,29.6,41.4 M32.5,41.3c0,0,0,0.3,0,0.5c0,0.4,0,0.5-0.1,0.6s-0.2,0-0.3-0.1s-0.2-0.1-0.2,0
	c0,0.2,0.4,0.3,0.6,0.1c0.1-0.1,0.1-0.1,0.1-0.6C32.7,41.3,32.6,41.2,32.5,41.3 M33.3,41.4C33.3,41.4,33.3,41.5,33.3,41.4
	C33.4,41.5,33.4,41.4,33.3,41.4C33.4,41.4,33.3,41.3,33.3,41.4C33.3,41.3,33.3,41.3,33.3,41.4 M37.2,41.4c-0.4,0.3-0.3,0.9,0,1.2
	c0.2,0.1,0.5,0.1,0.7-0.1c0.1-0.2,0.2-0.2,0.1-0.3c0,0-0.1,0-0.1,0.1c-0.1,0.3-0.4,0.3-0.6,0.1c-0.1-0.1-0.1-0.2-0.1-0.4
	c0-0.3,0.1-0.4,0.3-0.5c0.1-0.1,0.3,0,0.4,0.1c0,0.1,0.1,0.1,0.1,0.1c0.1,0,0.1-0.1-0.1-0.3C37.7,41.2,37.4,41.2,37.2,41.4
	 M41.2,41.4c0,0,0,0.1-0.1,0.2c0,0.1,0,0.1,0,0.1s0.1,0.2,0.1,0.4c0,0.4,0.1,0.5,0.3,0.4c0.1,0,0.1,0,0-0.1s-0.1-0.6,0-0.7
	c0.1,0,0.1-0.1,0-0.1c0,0-0.1-0.1-0.1-0.2C41.3,41.3,41.3,41.3,41.2,41.4 M30.6,41.7c0,0-0.1,0-0.2,0s-0.1,0-0.1,0.4s0,0.5,0.1,0.5
	s0.1-0.1,0.1-0.3s0-0.3,0.1-0.4c0.2-0.2,0.4-0.1,0.4,0.4c0,0.3,0,0.3,0.1,0.3s0.1-0.1,0.1-0.4c0-0.3,0-0.4-0.1-0.5
	C30.9,41.6,30.7,41.6,30.6,41.7 M34.1,41.7c-0.1,0-0.1,0.1-0.1,0.2c0,0.1,0.1,0.1,0.2,0c0.1-0.1,0.3-0.1,0.4,0
	c0.1,0.1,0.1,0.1,0,0.1c0,0-0.1,0-0.2,0c-0.2,0-0.4,0.1-0.4,0.2c0,0.1,0,0.1,0.1,0.2c0.1,0.1,0.2,0.1,0.4,0.1c0.1,0,0.1,0,0.2,0h0.1
	c0,0,0-0.6,0-0.8C34.6,41.6,34.3,41.5,34.1,41.7 M35.4,41.7c-0.2,0.1-0.3,0.2-0.3,0.5c0,0.6,0.8,0.7,0.9,0.1
	C36.1,41.8,35.8,41.5,35.4,41.7 M38.7,41.7c-0.1,0.1-0.1,0.2-0.1,0.4s0,0.3,0.1,0.4c0.1,0.1,0.2,0.1,0.3,0.1s0.2-0.1,0.3-0.1
	c0.1-0.1,0.1-0.1,0-0.1c0,0-0.1,0-0.2,0.1c-0.1,0.1-0.3,0.1-0.4,0c0-0.1-0.1-0.1-0.1-0.1s0.1,0,0.3,0c0.4,0,0.4-0.1,0.3-0.3
	C39.2,41.6,38.9,41.5,38.7,41.7 M40.1,41.7C40,41.7,40,41.8,40.1,41.7h-0.2c0,0,0,0.2,0,0.8c0,0,0,0.1,0.1,0.1s0.1-0.1,0.1-0.3
	s0-0.3,0.1-0.4c0.1-0.1,0.3-0.1,0.3,0c0,0,0.1,0.4,0.1,0.7c0,0.1,0,0.1,0.1,0.1c0,0,0-0.2,0-0.4c0-0.4,0-0.4-0.1-0.5
	C40.4,41.6,40.2,41.6,40.1,41.7 M42.2,41.7c-0.2,0-0.2,0.1-0.2,0.4s0.1,0.5,0.4,0.5c0.2,0,0.4-0.1,0.4-0.2c0-0.1-0.2,0-0.2,0
	c0,0.1-0.3,0.1-0.4,0c-0.1-0.2-0.1-0.2,0.3-0.2h0.3V42c0-0.2,0-0.3-0.2-0.4C42.4,41.6,42.3,41.6,42.2,41.7 M43.5,41.6L43.5,41.6
	h-0.2v0.5c0,0.5,0.1,0.6,0.1,0.1c0-0.4,0.1-0.4,0.2-0.4c0.1,0,0.1,0,0.1-0.1S43.6,41.6,43.5,41.6 M29.6,42.1c0,0.4,0,0.5,0.1,0.5
	s0.1-0.1,0.1-0.5s0-0.5-0.1-0.5S29.6,41.7,29.6,42.1 M33.3,42.1c0,0.4,0,0.5,0.1,0.5s0.1-0.1,0.1-0.4c0-0.3,0-0.4-0.1-0.5
	S33.3,41.8,33.3,42.1 M35.8,41.8c0.1,0.1,0.1,0.4,0,0.5s-0.3,0.1-0.4,0c-0.1-0.2-0.1-0.5,0-0.6C35.6,41.7,35.7,41.7,35.8,41.8
	 M39.2,41.8c0.1,0.1,0.1,0.2-0.2,0.2s-0.3,0-0.2-0.2C38.8,41.7,39.1,41.7,39.2,41.8 M42.5,41.8c0.1,0.1,0.1,0.2-0.2,0.2
	c-0.2,0-0.3,0-0.3-0.1s0.1-0.2,0.3-0.2C42.4,41.7,42.5,41.8,42.5,41.8 M34.6,42.2c0,0,0,0.1-0.1,0.2c-0.1,0.1-0.1,0.1-0.2,0.1
	c-0.3,0-0.3-0.3,0-0.3C34.5,42.1,34.6,42.1,34.6,42.2"/>
<g>
	<path class="st13" d="M69.1,33.7c0-0.2,0-0.4,0-0.5c0,0,0.1,0,0.2,0c0.2,0,0.3,0,0.4,0h1.1v-0.3c0-0.3,0-0.6,0-0.8
		c0.2,0,0.3,0.1,0.4,0.1s0.1,0.1,0,0.1c-0.1,0.1-0.1,0.1-0.1,0.2v0.6H72c0.1,0,0.3,0,0.4,0s0.1,0,0.1,0v0.1c0,0.2,0,0.3,0,0.4v0.7
		c0,0.1,0,0.2,0,0.3s0,0.2,0,0.2c-0.1,0-0.3,0-0.5,0h-1.1v0.8c0,0.4,0,0.6,0,0.8h-0.3c0-0.3,0-0.6,0-0.8v-0.8h-1.1
		c-0.2,0-0.4,0-0.5,0c0-0.1,0-0.3,0-0.5L69.1,33.7L69.1,33.7z M70.6,34.7v-1.3h-1.3v1.3H70.6z M72.2,33.4h-1.4v1.3h1.4V33.4z"/>
	<path class="st13" d="M75.2,32.7v-0.3c0,0,0-0.1,0-0.2c0-0.1,0-0.2,0-0.2c0.1,0,0.2,0,0.3,0.1l0,0c0,0,0,0,0,0.1
		c-0.1,0-0.1,0.1-0.1,0.2v0.3h0.4c0.2,0,0.3,0,0.4,0v0.2c-0.1,0-0.1,0-0.2,0s-0.2,0-0.2,0h-0.4v0.6h0.5c0.4-0.5,0.7-0.9,0.9-1.2
		c0.1,0,0.2,0.1,0.3,0.2v0.1c0,0-0.1,0.1-0.2,0.2c-0.2,0.2-0.4,0.4-0.6,0.7h1.1c0.3,0,0.5,0,0.6,0v0.2c-0.2,0-0.4,0-0.6,0H76
		c-0.1,0.1-0.2,0.3-0.4,0.5c-0.1,0.1-0.1,0.1-0.1,0.1h1.4c0.3,0,0.4,0,0.5,0v0.2c-0.2,0-0.4,0-0.5,0h-1c-0.1,0.2-0.1,0.4-0.2,0.6
		h0.9c0.1,0,0.3,0,0.5,0c-0.1,0.2-0.1,0.4-0.2,0.7c-0.1,0.4-0.3,0.7-0.5,0.6c-0.3,0-0.6,0-0.9,0c0-0.1-0.1-0.2-0.1-0.3
		c0.3,0,0.6,0.1,0.9,0c0.2,0,0.4-0.3,0.5-0.9h-0.9c-0.1,0-0.2,0.1-0.4,0.2c0,0,0-0.1-0.1-0.2c-0.1-0.1-0.1-0.1-0.1-0.2
		c0.1,0,0.2-0.1,0.3-0.2c0-0.1,0.1-0.3,0.2-0.5h-0.3c-0.7,0.6-1.2,1-1.6,1.3c0-0.1-0.1-0.1-0.2-0.2c0.8-0.5,1.6-1.1,2.3-1.9h-1.7
		c-0.1,0-0.3,0-0.5,0v-0.2c0,0,0.2,0,0.3,0c0.1,0,0.2,0,0.2,0h1.1v-0.6h-0.6h-0.1c-0.1,0-0.2,0-0.3,0v-0.2c0.1,0,0.2,0,0.3,0
		c0.1,0,0.1,0,0.1,0h0.4L75.2,32.7L75.2,32.7z"/>
	<path class="st13" d="M78.7,36.2c-0.1,0-0.2-0.1-0.2-0.1c0.3-0.4,0.4-0.8,0.5-1.2c0.1,0,0.2,0,0.3,0.1c0.1,0,0.1,0.1,0,0.1
		c0,0-0.1,0.1-0.1,0.2C79,35.7,78.8,36,78.7,36.2z M80.6,33.1c0.4-0.4,0.6-0.7,0.8-0.9c0,0,0.1,0,0.1,0.1c0.1,0,0.1,0.1,0.1,0.1v0.1
		c0,0-0.1,0-0.2,0.1c0,0,0,0-0.1,0c-0.2,0.2-0.3,0.4-0.5,0.5h0.5c0,0,0.1,0,0.2,0s0.2,0,0.2,0c0,0.1,0,0.3,0,0.4V34
		c0,0.1,0,0.3,0,0.4c0,0-0.1,0-0.2,0s-0.2,0-0.2,0h-1.8c0,0-0.1,0-0.2,0s-0.2,0-0.2,0s0-0.1,0-0.3c0-0.1,0-0.1,0-0.2v-0.5
		c0,0,0-0.1,0-0.2c0-0.1,0-0.2,0-0.2s0.1,0,0.3,0c0.1,0,0.1,0,0.2,0L80.6,33.1L80.6,33.1z M80,33.1c-0.1-0.2-0.3-0.4-0.6-0.6
		l0.2-0.2c0.2,0.2,0.5,0.4,0.7,0.7L80,33.1z M81.6,34.2v-0.9h-2.1v0.9H81.6z M79.9,36.2c-0.2,0-0.3-0.1-0.3-0.3v-0.5
		c0-0.2,0-0.3,0-0.5h0.1c0.1,0,0.2,0,0.2,0c0.1,0,0.1,0.1,0,0.1c-0.1,0.1-0.1,0.1-0.1,0.2v0.5c0,0.1,0,0.2,0.2,0.2h1
		c0.2,0,0.3-0.1,0.4-0.4c0.1,0.1,0.2,0.2,0.2,0.2c-0.1,0.4-0.3,0.5-0.6,0.5H79.9z M80.7,35.4c-0.2-0.3-0.4-0.5-0.6-0.7l0.2-0.2
		c0.2,0.2,0.4,0.4,0.6,0.7L80.7,35.4z M82.3,36c-0.3-0.4-0.5-0.8-0.8-1.1l0.2-0.2c0.3,0.3,0.5,0.7,0.8,1.1L82.3,36z"/>
	<path class="st13" d="M83.1,33.4c0.6-0.3,0.9-0.8,1.1-1.3l0,0c0.1,0.1,0.2,0.1,0.2,0.1v0.1c0,0-0.1,0-0.1,0.1s-0.1,0.1-0.1,0.2h2.3
		c0.2,0,0.3,0,0.6,0v0.2c-0.2,0-0.3,0-0.6,0h-2.4c-0.2,0.3-0.5,0.6-0.8,0.8C83.3,33.5,83.3,33.5,83.1,33.4L83.1,33.4z M83.9,33.1
		c0.1,0,0.2,0,0.4,0h1.9c0.1,0,0.3,0,0.5,0c0,0.2,0,0.3,0,0.4v0.6c0,0.1,0,0.3,0,0.4c-0.2,0-0.3,0-0.4,0h-1.6c0,0,0,0.1-0.1,0.1
		c0,0.1-0.1,0.1-0.2,0.2h1.3c0.3,0,0.5,0,0.8,0c-0.3,0.3-0.6,0.6-1,0.9c0.5,0.2,1,0.3,1.7,0.4c-0.1,0.1-0.1,0.2-0.1,0.3
		c-0.4-0.1-1-0.2-1.8-0.5c-0.5,0.2-1.1,0.4-1.8,0.5c0-0.1-0.1-0.1-0.1-0.2c0,0,0,0,0-0.1c0.7,0,1.3-0.2,1.8-0.4
		c-0.2-0.1-0.4-0.3-0.7-0.5l0.2-0.2c0.3,0.2,0.6,0.4,0.8,0.5c0,0,0,0,0.1-0.1c0.3-0.2,0.5-0.4,0.6-0.5h-1.7
		c-0.2,0.2-0.4,0.4-0.7,0.6c0,0-0.1-0.1-0.2-0.1s-0.1,0-0.1-0.1c0.4-0.2,0.7-0.6,1-1h-0.2c-0.1,0-0.3,0-0.4,0c0-0.1,0-0.3,0-0.4
		v-0.6C84,33.4,84,33.2,83.9,33.1z M84.2,33.3v0.4h2.3v-0.4H84.2z M84.2,34.3h2.3v-0.4h-2.3V34.3z"/>
	<path class="st13" d="M88.4,35.3c1.1-0.3,1.9-0.6,2.6-0.9c0,0.2,0,0.3,0,0.3c-0.5,0.2-1.1,0.4-2,0.7c-0.2,0.1-0.4,0.1-0.5,0.2
		C88.5,35.4,88.4,35.3,88.4,35.3z M88.9,32.8c-0.2,0-0.4,0-0.5,0v-0.3c0,0,0.2,0,0.3,0c0.1,0,0.2,0,0.2,0H91c0.2,0,0.4,0,0.7,0
		c0,0.3,0,0.5,0,0.7c0,0.1,0,0.2,0,0.4c0,1,0,1.7-0.1,2.2c0,0.3-0.4,0.5-1.1,0.5c0-0.1,0-0.2-0.1-0.3c0.7,0.1,1,0,1-0.2
		c0-0.8,0.1-1.8,0.1-2.9h-2.6V32.8z M90,34.2c-0.3-0.3-0.7-0.5-1.1-0.7l0.2-0.2c0.5,0.3,0.8,0.5,1.1,0.7L90,34.2z"/>
	<path class="st13" d="M92.7,33.6c0.1,0,0.2-0.1,0.3-0.3c0.2-0.3,0.3-0.7,0.5-1.1c0,0,0.1,0.1,0.2,0.1h0.1v0.1c0,0,0,0-0.1,0.1v0.1
		c-0.1,0.3-0.3,0.6-0.5,1c0.3,0,0.6,0,0.7-0.1s0.1-0.2,0.2-0.4c0-0.1,0.1-0.1,0.1-0.2c0,0,0,0,0.1,0c0,0,0.1,0.1,0.2,0.1
		c0,0,0,0,0,0.1c0,0,0,0-0.1,0c0,0-0.1,0.1-0.2,0.3c-0.2,0.3-0.4,0.7-0.7,1.2c0.4,0,0.7-0.1,0.9-0.1c0,0.1,0,0.2,0,0.3
		c-0.5,0-0.9,0.1-1.3,0.1c0-0.1-0.1-0.2-0.1-0.3c0.2,0,0.4-0.4,0.8-1c-0.4,0-0.6,0-0.9,0.1C92.8,33.7,92.8,33.6,92.7,33.6z
		 M92.7,35.8c0.5-0.1,1-0.3,1.5-0.5c0,0.1,0,0.2,0.1,0.2c-0.1,0-0.2,0.1-0.3,0.1c-0.2,0.1-0.6,0.2-1.1,0.4
		C92.8,36,92.8,35.9,92.7,35.8z M94.5,36.1C94.4,36,94.3,36,94.3,36c0.3-0.3,0.6-0.6,0.7-0.9c0,0,0.1,0,0.2,0.1h0.1c0,0,0,0,0,0.1
		c0,0,0,0-0.1,0c0,0-0.1,0.1-0.2,0.2C94.9,35.7,94.7,35.9,94.5,36.1z M94.7,33.3c0,0.1,0,0.2,0,0.3h-0.3c0-0.1,0-0.2,0-0.3v-0.2
		c0-0.1,0-0.2,0-0.3c0.2,0,0.3,0,0.3,0h1.7c0.1,0,0.3,0,0.3,0s0,0.1,0,0.2c0,0.1,0,0.1,0,0.2v0.2v0.1c0,0.1,0,0.1,0,0.2h-0.3
		c0,0,0-0.1,0-0.2v-0.1V33h-1.9v0.3H94.7z M95.8,34.7v1.4c0.1,0.3-0.2,0.4-0.6,0.5c0-0.1-0.1-0.2-0.1-0.3c0.4,0,0.6,0,0.5-0.2v-1.4
		h-0.5c-0.2,0-0.4,0-0.6,0v-0.2c0.1,0,0.3,0,0.6,0h1.2c0.2,0,0.4,0,0.5,0v0.2c-0.2,0-0.4,0-0.5,0H95.8z M95.4,33.9
		c-0.3,0-0.4,0-0.6,0v-0.2c0.1,0,0.3,0,0.6,0h0.5c0.3,0,0.4,0,0.5,0v0.2c-0.2,0-0.4,0-0.5,0H95.4z M95.7,32.8
		c-0.2-0.2-0.4-0.4-0.6-0.6l0.2-0.2c0.2,0.2,0.4,0.4,0.6,0.6L95.7,32.8z M96.7,36c0,0-0.1-0.1-0.2-0.2c-0.1-0.1-0.2-0.3-0.5-0.5
		l0.2-0.2c0.2,0.3,0.4,0.5,0.7,0.8L96.7,36z"/>
	<path class="st13" d="M99.6,32c0,0,0.1,0,0.2,0.1c0.1,0,0.1,0.1,0.2,0.1c0,0,0,0,0,0.1c0,0,0,0-0.1,0.1c0,0-0.1,0-0.1,0.1
		c0.4,0.7,1.1,1.2,2.1,1.6c-0.1,0.1-0.2,0.1-0.2,0.2c-0.9-0.5-1.6-1-2-1.7c-0.5,0.7-1.2,1.3-1.9,1.7c0,0-0.1-0.1-0.2-0.2l0,0
		C98.4,33.6,99.2,32.9,99.6,32z M98.3,36.3c0-0.2,0-0.4,0-0.5v-0.5c0-0.2,0-0.4,0-0.5c0.1,0,0.2,0,0.3,0c0.1,0,0.2,0,0.2,0h1.6
		c0.3,0,0.5,0,0.6,0c0,0.2,0,0.4,0,0.5v0.5c0,0.1,0,0.2,0,0.4c0,0.1,0,0.1,0,0.1c-0.1,0-0.3,0-0.5,0h-1.6
		C98.6,36.2,98.5,36.2,98.3,36.3z M98.5,33.8c0.1,0,0.3,0,0.6,0h1.2c0.3,0,0.5,0,0.6,0v0.3c-0.2,0-0.4,0-0.6,0h-1.2
		c-0.3,0-0.4,0-0.6,0V33.8z M100.7,36v-1h-2.1v1H100.7z"/>
	<path class="st13" d="M103.2,35.6c0.3-0.3,0.5-0.5,0.5-0.6c0.1,0.1,0.1,0.2,0.2,0.2c-0.3,0.3-0.6,0.6-0.9,0.8
		c-0.1,0-0.1-0.1-0.2-0.2c0.1,0,0.1-0.2,0.1-0.4v-1.7h-0.3c-0.2,0-0.3,0-0.4,0v-0.2c0,0,0.1,0,0.2,0s0.2,0,0.2,0h0.1
		c0.1,0,0.3,0,0.4,0c0,0.1,0,0.2,0,0.4v1.7H103.2z M103.4,33.2c-0.1-0.1-0.2-0.3-0.4-0.5c-0.1-0.1-0.2-0.2-0.2-0.2l0.2-0.2
		c0.1,0.1,0.3,0.3,0.6,0.6c0,0.1,0.1,0.1,0.1,0.1L103.4,33.2z M103.5,36.4c0.5-0.4,0.7-0.9,0.7-1.6v-1.6c0-0.1,0-0.2,0-0.5
		c0-0.1,0-0.2,0-0.3c0.2,0,0.3,0.1,0.4,0.1l0,0c0,0,0,0,0,0.1c-0.1,0.1-0.1,0.1-0.1,0.3v1.8c0,0.7-0.2,1.3-0.7,1.8
		C103.7,36.4,103.6,36.4,103.5,36.4z M105.3,35.2c0,0.1,0,0.2,0,0.5c0,0.2,0,0.3,0,0.4H105c0-0.1,0-0.4,0-0.8v-1.8
		c0-0.4,0-0.7,0-0.8c0.2,0,0.3,0.1,0.4,0.1s0.1,0.1,0,0.1c-0.1,0.1-0.1,0.1-0.1,0.2V35.2z M106.3,35.6c0,0.4,0,0.6,0,0.8H106
		c0-0.3,0-0.6,0-0.8v-2.5c0-0.3,0-0.5,0-0.8c0.2,0,0.3,0.1,0.4,0.1l0,0c0,0,0,0,0,0.1c-0.1,0.1-0.1,0.1-0.1,0.2V35.6z"/>
	<path class="st13" d="M107.3,33.8c0-0.1-0.1-0.2-0.1-0.3c0.3-0.1,0.5-0.6,0.8-1.4c0.1,0,0.2,0.1,0.3,0.1v0.1c-0.1,0-0.1,0-0.1,0.1
		c-0.2,0.5-0.4,0.8-0.5,1.1c0.2,0,0.5,0,0.7,0c0.1-0.2,0.2-0.4,0.3-0.6c0.1,0.1,0.2,0.1,0.2,0.1v0.1c-0.1,0-0.1,0.1-0.1,0.1
		c-0.3,0.7-0.6,1.2-0.9,1.6c0,0,0.1,0,0.2,0c0.3,0,0.6,0,0.8-0.1c0,0.1,0,0.2,0,0.2c-0.7,0-1.1,0.1-1.3,0.1c0-0.1-0.1-0.2-0.1-0.3
		c0.2,0,0.5-0.4,0.8-1.1C107.9,33.7,107.6,33.7,107.3,33.8z M107.2,35.9c0.5-0.1,1-0.3,1.5-0.5c0,0.1,0,0.2,0,0.2
		c-0.1,0.1-0.3,0.1-0.6,0.2c-0.4,0.1-0.6,0.2-0.8,0.3C107.3,36.1,107.3,36,107.2,35.9z M109.7,33c0,0.1-0.1,0.1-0.1,0.2
		c-0.1,0.2-0.1,0.3-0.1,0.3h0.3c0.1,0,0.1,0,0.2,0s0.2,0,0.2,0c0,0.1,0,0.2,0,0.4v0.5h0.4c0.3,0,0.5,0,0.6,0v0.2c-0.2,0-0.4,0-0.6,0
		h-0.4V36c0,0.3-0.2,0.4-0.7,0.4c0-0.1-0.1-0.2-0.1-0.3l0,0c0.4,0,0.6,0,0.6-0.1v-1.3h-0.6c-0.2,0-0.3,0-0.5,0
		c0-0.1-0.1-0.2-0.1-0.3c0.1,0,0.3-0.3,0.5-0.7h-0.1c0,0-0.1,0-0.2,0s-0.1,0-0.2,0v-0.2c0.1,0,0.1,0,0.3,0c0.1,0,0.1,0,0.2,0h0.2
		C109.6,33.3,109.7,33.1,109.7,33L109.7,33c-0.3-0.1-0.5-0.1-0.6-0.1v-0.2c0.1,0,0.3,0,0.5,0h0.2c0,0,0,0,0-0.1
		c0.1-0.3,0.2-0.5,0.2-0.7c0.1,0,0.2,0.1,0.3,0.1v0.1c0,0,0,0-0.1,0.1c0,0,0,0.1-0.1,0.2c0,0.1-0.1,0.2-0.1,0.2h0.8
		c0.3,0,0.4,0,0.5,0V33c-0.2,0-0.4,0-0.5,0H109.7z M108.7,36c0.3-0.2,0.5-0.5,0.7-0.9c0.1,0,0.2,0.1,0.2,0.1l0,0c0,0,0,0-0.1,0.1
		c0,0-0.1,0-0.1,0.1c-0.2,0.3-0.4,0.5-0.5,0.7C108.9,36.1,108.9,36,108.7,36L108.7,36z M109.1,34.5h0.9v-0.7h-0.5
		C109.3,34,109.2,34.2,109.1,34.5z M111.2,36c-0.2-0.3-0.4-0.5-0.7-0.8l0.2-0.2c0.3,0.3,0.5,0.6,0.7,0.8L111.2,36z"/>
	<path class="st13" d="M112.1,35.3c0.7-0.5,1-1.4,1-2.6c0-0.2,0-0.3,0-0.5c0.1,0,0.2,0,0.3,0c0,0,0,0,0,0.1c0,0-0.1,0.1-0.1,0.2
		c0,0.5,0,0.9-0.1,1.2c0.3,0.3,0.6,0.6,0.8,0.9l-0.2,0.2c-0.2-0.3-0.4-0.6-0.7-0.8c-0.2,0.6-0.4,1-0.8,1.4
		C112.2,35.4,112.1,35.3,112.1,35.3z M112.1,35.9c0.2,0,0.3,0,0.5,0h3.2c0.1,0,0.3,0,0.6,0v0.2c0,0-0.1,0-0.2,0c-0.2,0-0.3,0-0.4,0
		h-3.2c-0.1,0-0.2,0-0.4,0c0.2,0,0.1,0-0.1,0V35.9z M113.6,35.5c0.8-0.5,1.2-1.5,1.1-2.8c0-0.2,0-0.3,0-0.5c0,0,0,0,0.1,0
		s0.2,0,0.2,0s0.1,0,0.1,0.1c0,0,0,0-0.1,0.1c0,0,0,0.1,0,0.3s0,0.5,0,0.9c0-0.3,0-0.3,0,0.1c0.5,0.9,0.9,1.5,1.2,1.8
		c-0.1,0-0.1,0.1-0.2,0.2l0,0c-0.4-0.5-0.7-1.1-1-1.6c-0.1,0.7-0.5,1.3-1,1.7C113.8,35.6,113.7,35.5,113.6,35.5z"/>
	<path class="st13" d="M117.6,33.4c-0.1,0-0.3,0-0.6,0v-0.2c0.1,0,0.2,0,0.3,0c0.1,0,0.2,0,0.2,0h0.9v-0.5c0-0.3,0-0.4,0-0.5
		c0.1,0,0.3,0.1,0.3,0.1l0,0c0,0,0,0,0,0.1c-0.1,0.1-0.1,0.1-0.1,0.2v0.6h1.1c0.1,0,0.2,0,0.4,0c0,0.4-0.1,0.9-0.2,1.3h0.2
		c0.1,0,0.2,0,0.4,0c-0.1,0.6-0.1,0.9-0.1,1c0,0.3-0.3,0.4-1,0.4c0-0.1-0.1-0.2-0.1-0.3c0.6,0.1,0.9,0,0.8-0.2
		c0.1-0.2,0.1-0.5,0.1-0.8h-1.7v1.2c0,0.3,0,0.5,0,0.6h-0.3c0-0.2,0-0.4,0-0.6v-1.2h-1.1c-0.2,0-0.4,0-0.5,0v-0.2c0.1,0,0.3,0,0.5,0
		h1.1v-1.1h-0.6L117.6,33.4L117.6,33.4z M119.9,34.5c0-0.2,0.1-0.5,0.1-0.9c0-0.1,0-0.2,0-0.2h-1.2v1.1
		C118.8,34.5,119.9,34.5,119.9,34.5z M120.6,33.1c-0.2-0.2-0.5-0.4-0.9-0.6l0.1-0.2c0.2,0.1,0.5,0.3,0.9,0.6L120.6,33.1z"/>
</g>
<g>
	<path class="st0" d="M131.3,173.2c-1.3,0.7-2.1,0.7-2.2-0.2v-2h-3.9v2.4c-1.3,0.7-2.1,0.6-2.2-0.2v-2.1h-3c-0.4,0-0.9,0-1.3,0
		l-0.5-0.6c0.3,0,0.5,0,0.7,0.1h4.1v-3.3c0.1,0,0.3,0,0.6,0.1c1.2,0.1,1.9,0.2,2.2,0.4c0.2,0.2,0.2,0.3,0,0.5
		c-0.1,0-0.1,0.1-0.2,0.2c-0.2,0.1-0.3,0.1-0.3,0.2v2h3.9v-3.5c1.5,0.1,2.4,0.2,2.8,0.5c0.2,0.1,0.2,0.2,0,0.4
		c-0.1,0.1-0.2,0.2-0.6,0.4v2.1h1.7c0.1-0.1,0.1-0.2,0.2-0.4c0.5-0.7,1-1.2,1.3-1.5c0-0.1,0.1-0.1,0.2,0c1.2,0.8,2,1.5,2.5,1.9
		c0.2,0.2,0.1,0.3-0.1,0.5h-5.9L131.3,173.2L131.3,173.2z M128.8,180.3c1.9,2.7,4.8,4.2,8.8,4.3c0.2,0,0.2,0.1,0.1,0.2
		c-1.2,0.4-2.1,1.1-2.5,2.1c-0.1,0.1-0.2,0.1-0.3,0.1c-3.7-1.3-5.8-3.5-6.3-6.6H128c-1.1,3.7-4.3,5.9-9.6,6.4
		c-0.2,0-0.2-0.1-0.1-0.2c3.9-0.9,6.4-2.9,7.5-6.2H120c-0.4,0-0.9,0-1.3,0l-0.5-0.6c0.3,0,0.5,0,0.7,0.1h2.5v-5.4
		c0.2-0.1,0.9,0.2,2.3,0.8h2.5v-1.5l-0.1-1.3c0-0.1,0.1-0.1,0.2-0.1c1.1,0.2,1.9,0.4,2.4,0.7c0.1,0.1,0.1,0.2,0,0.3
		s-0.1,0.1-0.2,0.2c-0.1,0.1-0.2,0.1-0.2,0.2v1.5h2.4c0.1,0,0.2-0.2,0.4-0.5c0.2-0.2,0.3-0.3,0.3-0.3c0.9,0.2,1.8,0.7,2.7,1.3
		c0,0.1-0.1,0.3-0.4,0.5l-0.2,0.2v3.5h0.5c0.1-0.1,0.2-0.3,0.4-0.5c0.4-0.6,0.8-1,1-1.2c0.1-0.1,0.2-0.1,0.2,0
		c1.2,0.6,2,1.2,2.4,1.7c0.1,0.2,0,0.3-0.2,0.4L128.8,180.3L128.8,180.3z M125.9,179.8c0.2-0.7,0.3-1.5,0.3-2.4v-1.7h-2.6v4.1
		L125.9,179.8L125.9,179.8z M128.2,178c0,0.7-0.1,1.2-0.2,1.7h3.2v-4.1h-3V178z"/>
	<path class="st0" d="M145.5,182.6c1-0.7,1.7-1.1,2-1.3c0.2,0.1,0.2,0.2,0.2,0.2c-0.3,0.4-0.9,1.4-1.8,2.8c-0.7,1-1.1,1.6-1.2,1.8
		c-0.1,0.1-0.2,0.1-0.3,0c-0.4-0.7-0.7-1.3-1.1-1.9c-0.1-0.2-0.1-0.3,0-0.4c0.2-0.3,0.3-0.7,0.3-1.2v-8.2h-0.8h-1.4L141,174
		c0.1,0,0.2,0,0.6,0.1h0.3h1.2c0.4-0.6,0.7-0.9,0.8-0.9c0.7,0.2,1.3,0.6,2.1,1.2c0,0.1-0.1,0.2-0.2,0.3c-0.2,0.1-0.2,0.2-0.2,0.2
		v7.7H145.5z M142.8,167.2c1.8,0.3,2.9,0.9,3.3,2c0.2,0.7,0,1.2-0.6,1.6c-0.8,0.4-1.3,0.3-1.6-0.2c-0.1-0.2-0.1-0.4-0.1-0.7
		c0-0.2,0-0.3,0-0.3c-0.1-0.8-0.4-1.5-1.2-2.1C142.6,167.3,142.6,167.2,142.8,167.2z M155.1,172.5c0.1-0.1,0.1-0.1,0.2-0.2
		c0.3-0.4,0.5-0.6,0.6-0.7c0.1-0.1,0.2-0.1,0.4,0c0.8,0.3,1.4,0.7,1.9,1c0.1,0.1,0.1,0.2,0,0.3c-0.2,0.1-0.4,0.2-0.6,0.4l-0.5,3.6
		h0.7c0.1-0.2,0.4-0.5,0.8-1.1c0.2-0.3,0.4-0.4,0.4-0.5c0.1,0,0.2,0,0.3,0c1,0.6,1.7,1.2,2.1,1.6c0.2,0.2,0.1,0.3-0.1,0.3h-13.1
		c-0.1,0-0.5,0-1.4,0.1l-0.4-0.6c0.2,0,0.4,0,0.7,0.1h2.7c0.3-1.3,0.5-2.6,0.7-3.9h-1.2c-0.4,0-0.9,0-1.4,0l-0.4-0.6
		c0.3,0,0.5,0,0.7,0.1h2.3c0.2-1,0.3-2.1,0.4-3H149c-0.4,0-0.9,0-1.3,0.1l-0.5-0.6c0.3,0,0.5,0,0.7,0.1h8.7c0.1-0.2,0.4-0.5,0.8-1.1
		c0.2-0.3,0.4-0.4,0.4-0.5c0.1,0,0.1,0,0.2,0c0.9,0.5,1.6,1,2.1,1.6c0.1,0.2,0.1,0.3-0.2,0.3h-6.4l-0.1,0.1l-0.7,0.6
		c-0.1,0.1-0.1,0.5-0.2,1.3c-0.1,0.4-0.2,0.8-0.2,1.1L155.1,172.5L155.1,172.5z M150.5,186c-0.7,1.2-1.3,1.2-2.1,0.2l0.2-6v-1.3
		c0.8,0.2,1.4,0.4,1.9,0.8h5.3c0.1-0.1,0.2-0.2,0.3-0.3c0.2-0.2,0.4-0.4,0.5-0.4c0.1-0.1,0.2-0.1,0.4-0.1c0.7,0.3,1.3,0.7,1.8,1.2
		c0.1,0.1,0.1,0.2,0,0.3l-0.7,0.5l0.2,5.1c-1.1,0.9-1.8,0.9-2.2,0v-0.9h-5.7v0.9H150.5z M150.5,180.3v4.4h5.7v-4.4H150.5z
		 M154.9,177l0.5-3.9h-3c-0.1,0.4-0.2,1.1-0.4,2.1c-0.2,0.9-0.3,1.6-0.3,1.9h3.2V177z"/>
</g>
<g>
	<path class="st0" d="M119.4,190.5l-1.1,2l1.1,2h-0.1l-1.1-2L119.4,190.5L119.4,190.5z M119.7,190.5l-1,2l1,2h-0.1l-1.1-2
		L119.7,190.5L119.7,190.5z"/>
	<path class="st0" d="M121.6,193.6c0,0,0.1,0,0.2,0.1l0,0c0.3,0.2,0.7,0.2,1,0.3c0.4,0,1,0,1.7,0c-0.1,0.1-0.1,0.1-0.1,0.2
		c-0.8,0-1.4,0-1.8,0s-0.7-0.1-1-0.3c-0.1-0.1-0.3-0.1-0.4,0c-0.2,0.1-0.3,0.2-0.4,0.3c0-0.1-0.1-0.2-0.1-0.2
		c0.2-0.1,0.4-0.2,0.7-0.3v-1.4h-0.3c-0.1,0-0.3,0-0.4,0V192c0,0,0.1,0,0.2,0s0.1,0,0.1,0h0.1c0.1,0,0.3,0,0.4,0c0,0.1,0,0.2,0,0.4
		v1.2L121.6,193.6L121.6,193.6z M121.6,191.5c-0.2-0.2-0.4-0.4-0.7-0.6l0.1-0.2c0.3,0.2,0.5,0.4,0.7,0.6L121.6,191.5z M123.1,190.7
		C123.1,190.7,123,190.7,123.1,190.7c-0.1,0.1-0.1,0.2-0.2,0.3c0,0.1-0.1,0.1-0.1,0.1h1c0.1,0,0.1,0,0.3,0c0.1,0,0.2,0,0.2,0v0.2
		c-0.1,0-0.3,0-0.5,0h-1c-0.2,0.4-0.3,0.7-0.5,0.9h0.9v-0.3c0-0.1,0-0.2,0-0.3c0.1,0,0.2,0,0.3,0.1l0,0l0,0c-0.1,0-0.1,0.1-0.1,0.1
		v0.3h0.4c0.2,0,0.4,0,0.5,0v0.2c-0.1,0-0.3,0-0.5,0h-0.4v0.6h0.5c0.2,0,0.4,0,0.5,0v0.2c-0.1,0-0.3,0-0.5,0h-0.5v0.2
		c0,0.1,0,0.1,0,0.2c0,0.1,0,0.2,0,0.3h-0.2c0-0.2,0-0.4,0-0.5v-0.2h-0.8c-0.1,0-0.3,0-0.5,0v-0.2c0,0,0.1,0,0.3,0
		c0.1,0,0.2,0,0.2,0h0.8v-0.6h-0.7c-0.1,0-0.2,0-0.4,0.1c0-0.1-0.1-0.2-0.1-0.2c0.2-0.1,0.4-0.4,0.6-0.9h-0.3c0,0-0.1,0-0.2,0
		s-0.2,0-0.3,0v-0.2c0.2,0,0.3,0,0.5,0h0.3V191c0.1-0.2,0.1-0.3,0.2-0.5C122.9,190.5,123,190.6,123.1,190.7
		C123.1,190.6,123.1,190.6,123.1,190.7C123.1,190.6,123.1,190.7,123.1,190.7z"/>
	<path class="st0" d="M125.8,192.6c0,0,0.1-0.1,0.2-0.1c0.1-0.1,0.1-0.1,0.2-0.1c0,0.1,0,0.1,0.1,0.2c-0.1,0-0.2,0.1-0.4,0.2
		l-0.1,0.1v1.1c0,0.2-0.2,0.3-0.6,0.3c0-0.1,0-0.2-0.1-0.3c0.4,0.1,0.6,0,0.5-0.1V193c0,0-0.1,0-0.2,0.1c-0.1,0-0.2,0.1-0.3,0.1
		c0-0.1-0.1-0.1-0.1-0.2c0.2-0.1,0.4-0.2,0.6-0.3v-1.1h-0.2c0,0,0,0-0.1,0s-0.2,0-0.3,0v-0.2c0.1,0,0.1,0,0.2,0s0.1,0,0.1,0h0.2V191
		c0-0.2,0-0.4,0-0.5h0.1c0.1,0,0.2,0,0.2,0l0,0l0,0c-0.1,0-0.1,0.1-0.1,0.2v0.5h0.1c0.2,0,0.3,0,0.4,0v0.2c-0.2,0-0.3,0-0.4,0h-0.1
		v1.2L125.8,192.6L125.8,192.6z M128,193c-0.1,0.2-0.2,0.5-0.3,0.7c0.3,0.1,0.6,0.2,0.9,0.4l-0.1,0.2c-0.3-0.2-0.5-0.3-0.9-0.4
		c-0.3,0.2-0.7,0.4-1.3,0.5c0-0.1-0.1-0.1-0.1-0.2c0.5-0.1,0.9-0.2,1.2-0.4c-0.3-0.1-0.6-0.2-0.9-0.2c0.1-0.2,0.3-0.4,0.4-0.5h-0.1
		c-0.1,0-0.3,0-0.5,0v-0.2c0.1,0,0.2,0,0.3,0c0.1,0,0.2,0,0.2,0h0.2c0.1-0.1,0.1-0.2,0.2-0.4c0,0,0.1,0,0.2,0h0.1v0.1
		c0,0-0.1,0-0.1,0.1c0,0,0,0.1-0.1,0.2h1.1c0.2,0,0.3,0,0.5,0v0.2c-0.2,0-0.3,0-0.5,0H128V193z M126.7,192.3c-0.1,0-0.3,0-0.5,0
		v-0.2c0.1,0,0.2,0,0.3,0c0.1,0,0.2,0,0.2,0h0.7c0.2-0.2,0.3-0.5,0.5-0.7h0.1h0.1l0,0l0,0c0,0-0.1,0-0.1,0.1
		c-0.1,0.2-0.2,0.3-0.3,0.5h0.5c0.2,0,0.4,0,0.5,0v0.2c-0.1,0-0.3,0-0.5,0L126.7,192.3L126.7,192.3z M126.4,191.1c0,0,0.1,0,0.3,0
		c0.1,0,0.2,0,0.2,0h1.2c0.2,0,0.4,0,0.5,0v0.2c-0.1,0-0.3,0-0.5,0h-1.2c-0.1,0-0.3,0-0.5,0C126.4,191.3,126.4,191.1,126.4,191.1z
		 M127.1,192c-0.2-0.2-0.3-0.4-0.4-0.5l0.1-0.1c0.2,0.1,0.3,0.3,0.5,0.5L127.1,192z M126.8,193.4c0.2,0,0.4,0.1,0.7,0.2
		c0.1-0.2,0.2-0.4,0.3-0.6h-0.7c0,0-0.1,0.1-0.1,0.2C126.9,193.2,126.8,193.3,126.8,193.4z M127.6,191c-0.2-0.2-0.4-0.3-0.6-0.4
		l0.1-0.2c0.2,0.1,0.4,0.3,0.6,0.4L127.6,191z"/>
	<path class="st0" d="M129.5,191.9c0-0.2,0-0.4,0-0.5h0.1c0.1,0,0.3,0,0.3,0h0.9v-0.3c0-0.3,0-0.5,0-0.7c0.2,0,0.3,0,0.3,0.1
		c0.1,0,0.1,0.1,0,0.1s-0.1,0.1-0.1,0.2v0.6h0.9c0.1,0,0.2,0,0.4,0c0.1,0,0.1,0,0.1,0s0,0,0,0.1c0,0.2,0,0.3,0,0.4v0.6
		c0,0.1,0,0.2,0,0.3s0,0.1,0,0.2c-0.1,0-0.2,0-0.5,0H131v0.7c0,0.3,0,0.6,0,0.7h-0.3c0-0.3,0-0.5,0-0.7V193h-0.9c-0.2,0-0.3,0-0.5,0
		c0-0.1,0-0.3,0-0.5v-0.6H129.5z M130.9,192.8v-1.1h-1.2v1.1H130.9z M132.3,191.6h-1.2v1.1h1.2V191.6z"/>
	<path class="st0" d="M134.8,191v-0.2v-0.1c0-0.1,0-0.1,0-0.2c0.1,0,0.2,0,0.3,0.1l0,0l0,0l-0.1,0.1v0.3h0.3c0.2,0,0.3,0,0.4,0v0.2
		c0,0-0.1,0-0.2,0c-0.1,0-0.1,0-0.2,0H135v0.6h0.4c0.4-0.4,0.6-0.8,0.8-1c0.1,0,0.2,0.1,0.2,0.1v0.1c0,0-0.1,0.1-0.2,0.1
		c-0.1,0.2-0.3,0.4-0.6,0.6h0.9c0.2,0,0.4,0,0.5,0v0.2c-0.1,0-0.3,0-0.5,0h-1.1c-0.1,0.1-0.2,0.2-0.4,0.4l-0.1,0.1h1.2
		c0.2,0,0.4,0,0.5,0v0.2c-0.2,0-0.3,0-0.5,0h-0.9c-0.1,0.2-0.1,0.3-0.2,0.6h0.8c0.1,0,0.3,0,0.5,0c-0.1,0.2-0.1,0.4-0.2,0.6
		c-0.1,0.4-0.2,0.6-0.5,0.6c-0.2,0-0.5,0-0.8,0c0-0.1,0-0.2-0.1-0.2c0.2,0,0.5,0.1,0.8,0c0.2,0,0.3-0.2,0.4-0.8h-0.8
		c-0.1,0-0.2,0.1-0.4,0.2c0,0,0-0.1-0.1-0.1c0-0.1-0.1-0.1-0.1-0.1c0.1,0,0.2-0.1,0.2-0.2c0-0.1,0.1-0.2,0.1-0.4h-0.2
		c-0.6,0.5-1.1,0.9-1.4,1.1c0-0.1-0.1-0.1-0.2-0.2c0.7-0.4,1.4-1,2-1.6h-1.4c-0.1,0-0.3,0-0.5,0v-0.2c0,0,0.1,0,0.3,0
		c0.1,0,0.2,0,0.2,0h1v-0.6h-0.5H134c-0.1,0-0.2,0-0.3,0V191c0.1,0,0.1,0,0.2,0c0.1,0,0.1,0,0.1,0H134.8z"/>
	<path class="st0" d="M138.1,190.5L138.1,190.5l1.2,2l-1.1,2h-0.1l1-2L138.1,190.5z M138.4,190.5L138.4,190.5l1.2,2l-1.1,2h-0.1
		l1.1-2L138.4,190.5z"/>
	<path class="st0" d="M143.8,191.1h0.6c-0.2-0.2-0.3-0.3-0.5-0.4l0.1-0.2c0.2,0.1,0.4,0.2,0.6,0.4l-0.1,0.2h0.3c0.1,0,0.3,0,0.5,0
		c0,0.2,0,0.3,0,0.4v0.2c0,0.1,0,0.2,0,0.4c-0.2,0-0.3,0-0.5,0h-1.2c0,0,0,0.1,0,0.2c0,0.1,0,0.2,0,0.2h1.2c0.1,0,0.1,0,0.3,0
		c0.1,0,0.2,0,0.3,0c0,0.2,0,0.4,0,0.5v1c0,0.2-0.1,0.3-0.5,0.4l-0.1-0.1c-0.1-0.1-0.1-0.1-0.1-0.1c0.3,0,0.5,0,0.5-0.2v-0.6h-0.4
		v0.2c0,0.1,0,0.2,0,0.4h-0.2c0-0.1,0-0.1,0-0.3c0-0.1,0-0.1,0-0.2v-0.2h-0.3v0.2c0,0.1,0,0.3,0,0.4H144c0-0.1,0-0.2,0-0.4v-0.2
		h-0.3v0.6c0,0.2,0,0.3,0,0.5h-0.2v-0.1c0-0.2,0-0.3,0-0.4v-0.7c-0.1,0.3-0.3,0.6-0.5,0.9c-0.1,0-0.1-0.1-0.2-0.1l0,0
		c0.1-0.1,0.2-0.2,0.3-0.4c-0.5,0.1-0.8,0.2-1.1,0.3c0-0.1-0.1-0.2-0.1-0.3c0.5-0.1,1-0.2,1.4-0.3c0.2-0.3,0.2-0.7,0.2-1.2v-0.5
		c0-0.1,0-0.2,0-0.5C143.6,191.1,143.7,191.1,143.8,191.1z M141.9,192l-0.1-0.2c0.1-0.1,0.3-0.2,0.4-0.6c0.1-0.2,0.2-0.5,0.3-0.7
		c0.1,0,0.2,0.1,0.3,0.1l0,0l0,0c0,0-0.1,0-0.1,0.1s-0.1,0.2-0.2,0.4c-0.1,0.2-0.2,0.4-0.3,0.5c0.1,0,0.2,0,0.3,0c0.2,0,0.3,0,0.3,0
		c0.1-0.1,0.2-0.3,0.3-0.5c0,0,0.1,0,0.1,0.1l0.1,0.1v0.1c0,0-0.1,0-0.1,0.1s-0.1,0.2-0.3,0.4c-0.2,0.4-0.4,0.6-0.6,0.8
		c0.1,0,0.1,0,0.3,0c0.3,0,0.4-0.1,0.6-0.1c0,0.1,0,0.2,0,0.2c-0.3,0-0.7,0-1.1,0.1c0-0.1,0-0.2-0.1-0.3c0.1,0,0.4-0.3,0.7-0.8
		C142.4,191.9,142.1,192,141.9,192z M145,191.3h-1.4v0.6h1.4V191.3z M143.6,192.6v0.5h0.3v-0.5H143.6z M144.2,193.1h0.3v-0.5h-0.3
		V193.1z M145.1,193.1v-0.5h-0.4v0.5H145.1z"/>
	<path class="st0" d="M146.4,191.3c0,0.1,0,0.2,0,0.2h-0.2c0-0.1,0-0.2,0-0.2v-0.2c0-0.1,0-0.2,0-0.3c0.1,0,0.2,0,0.3,0h2.7
		c0.1,0,0.2,0,0.3,0c0,0.1,0,0.2,0,0.3v0.2c0,0.1,0,0.1,0,0.2h-0.2c0-0.1,0-0.1,0-0.2V191h-2.8v0.3H146.4z M146.7,193.4
		c-0.2,0-0.4,0-0.5,0v-0.2c0.1,0,0.3,0,0.5,0h1.5c0.2,0,0.4,0,0.5,0v0.2c-0.1,0-0.2,0-0.5,0H146.7z M146.9,192.7c0-0.1,0-0.2,0-0.3
		v-0.8c0-0.1,0-0.2,0-0.3h0.1c0.1,0,0.1,0,0.1,0l0,0l0,0c0,0,0,0.1,0,0.2v0.1h1.4c0.2,0,0.4,0,0.5,0v0.2c-0.2,0-0.4,0-0.5,0h-1.4
		v0.6h1.8c0.1,0,0.2,0,0.4,0c0,0.2,0,0.3,0,0.4c0,0.4,0,0.8-0.1,1c0,0.3-0.2,0.4-0.8,0.3c0-0.1,0-0.2-0.1-0.2c0.5,0,0.8,0,0.7-0.1
		c0-0.2,0-0.6,0.1-1.2h-1.8c-0.1,0-0.1,0-0.2,0C147,192.7,146.9,192.7,146.9,192.7z"/>
	<path class="st0" d="M150.1,191.8c0.1,0,0.2-0.1,0.3-0.3c0.1-0.3,0.3-0.6,0.4-1l0,0c0.1,0,0.2,0,0.2,0.1c0,0,0,0,0,0.1
		c0,0-0.1,0.1-0.1,0.2c-0.2,0.4-0.4,0.8-0.5,1c0.1,0,0.2,0,0.3,0c0.2,0,0.3,0,0.4,0c0.1-0.1,0.2-0.3,0.3-0.6c0.1,0,0.1,0.1,0.2,0.1
		l0,0l0,0c0,0-0.1,0.1-0.2,0.2c-0.2,0.4-0.5,0.8-0.8,1.2c0.3,0,0.6,0,1-0.1c0,0,0,0.1,0,0.2c-0.4,0-0.8,0.1-1.3,0.1
		c0-0.1,0-0.2-0.1-0.2c0.1,0,0.4-0.3,0.7-0.9c-0.2,0-0.4,0-0.7,0.1c-0.1,0-0.1,0-0.1,0C150.2,192,150.2,191.9,150.1,191.8z
		 M150.2,193.9c0.4-0.1,0.9-0.3,1.4-0.5v0.1l0,0c-0.1,0.1-0.4,0.1-0.8,0.3c-0.3,0.1-0.5,0.2-0.6,0.2
		C150.3,194,150.2,193.9,150.2,193.9z M152,193.9v-2.8c0-0.1,0-0.3,0-0.4c0.1,0,0.2,0,0.4,0h0.8c0.2,0,0.3,0,0.4,0
		c0,0.1,0,0.2,0,0.4v2.8h0.1c0.2,0,0.3,0,0.4,0v0.2c-0.1,0-0.2,0-0.4,0H152c-0.1,0-0.3,0-0.4,0v-0.2
		C151.6,193.9,151.7,193.9,152,193.9L152,193.9z M153.2,191h-1.1v0.9h1.1V191z M152.2,192.9h1.1V192h-1.1V192.9z M153.2,193h-1.1
		v0.9h1.1V193z"/>
	<path class="st0" d="M159.8,191.1h0.6c-0.2-0.2-0.3-0.3-0.5-0.4l0.1-0.2c0.2,0.1,0.4,0.2,0.6,0.4l-0.1,0.2h0.3c0.1,0,0.3,0,0.5,0
		c0,0.2,0,0.3,0,0.4v0.2c0,0.1,0,0.2,0,0.4c-0.2,0-0.3,0-0.5,0h-1.2c0,0,0,0.1,0,0.2c0,0.1,0,0.2,0,0.2h1.2c0.1,0,0.1,0,0.3,0
		c0.1,0,0.2,0,0.3,0c0,0.2,0,0.4,0,0.5v1c0,0.2-0.1,0.3-0.5,0.4l-0.1-0.1c-0.1-0.1-0.1-0.1-0.1-0.1c0.3,0,0.5,0,0.5-0.2v-0.6h-0.4
		v0.2c0,0.1,0,0.2,0,0.4h-0.2c0-0.1,0-0.1,0-0.3c0-0.1,0-0.1,0-0.2v-0.2h-0.3v0.2c0,0.1,0,0.3,0,0.4H160c0-0.1,0-0.2,0-0.4v-0.2
		h-0.3v0.6c0,0.2,0,0.3,0,0.5h-0.2v-0.1c0-0.2,0-0.3,0-0.4v-0.7c-0.1,0.3-0.3,0.6-0.5,0.9c-0.1,0-0.1-0.1-0.2-0.1l0,0
		c0.1-0.1,0.2-0.2,0.3-0.4c-0.5,0.1-0.8,0.2-1.1,0.3c0-0.1-0.1-0.2-0.1-0.3c0.5-0.1,1-0.2,1.4-0.3c0.2-0.3,0.2-0.7,0.2-1.2v-0.5
		c0-0.1,0-0.2,0-0.5C159.6,191.1,159.8,191.1,159.8,191.1z M157.9,192l-0.1-0.2c0.1-0.1,0.3-0.2,0.4-0.6c0.1-0.2,0.2-0.5,0.3-0.7
		c0.1,0,0.2,0.1,0.3,0.1l0,0l0,0c0,0-0.1,0-0.1,0.1s-0.1,0.2-0.2,0.4c-0.1,0.2-0.2,0.4-0.3,0.5c0.1,0,0.2,0,0.3,0c0.2,0,0.3,0,0.3,0
		c0.1-0.1,0.2-0.3,0.3-0.5c0,0,0.1,0,0.1,0.1l0.1,0.1v0.1c0,0-0.1,0-0.1,0.1s-0.1,0.2-0.3,0.4c-0.2,0.4-0.4,0.6-0.6,0.8
		c0.1,0,0.1,0,0.3,0c0.3,0,0.4-0.1,0.6-0.1c0,0.1,0,0.2,0,0.2c-0.3,0-0.7,0-1.1,0.1c0-0.1,0-0.2-0.1-0.3c0.1,0,0.4-0.3,0.7-0.8
		C158.4,191.9,158.2,192,157.9,192z M161,191.3h-1.4v0.6h1.4V191.3z M159.7,192.6v0.5h0.3v-0.5H159.7z M160.3,193.1h0.3v-0.5h-0.3
		V193.1z M161.2,193.1v-0.5h-0.4v0.5H161.2z"/>
</g>
<g>
	<path class="st0" d="M119.5,163.9h-1.3v-2.2h0.2v2h1.1C119.5,163.7,119.5,163.9,119.5,163.9z"/>
	<path class="st0" d="M120.1,163.9h-0.2v-2.2h0.2V163.9z"/>
	<path class="st0" d="M120.7,163.9h-0.2l0.9-2.2h0.2l0.9,2.2h-0.2l-0.2-0.6H121L120.7,163.9z M121,163.1h1l-0.5-1.2L121,163.1z"/>
	<path class="st0" d="M122.7,163.9v-2.2h0.2l1.2,1.9l0,0v-1.9h0.2v2.2h-0.2l-1.2-1.9l0,0v1.9H122.7z"/>
	<path class="st0" d="M124.6,163.4h0.2c0,0.3,0.2,0.4,0.4,0.4c0.3,0,0.4-0.2,0.4-0.5v-1.5h0.2v1.5c0,0.2,0,0.4-0.1,0.5
		s-0.3,0.2-0.5,0.2C124.9,163.9,124.7,163.7,124.6,163.4z"/>
	<path class="st0" d="M126.6,163.9h-0.2v-2.2h0.2V163.9z"/>
	<path class="st0" d="M128.6,163.9h-1.3v-2.2h1.3v0.2h-1.1v0.8h1v0.2h-1v0.9h1.1V163.9z"/>
	<path class="st0" d="M132,163.9h-1.4v-0.2l1.2-1.8h-1.2v-0.2h1.4v0.2l-1.2,1.8h1.2V163.9z"/>
	<path class="st0" d="M132.6,163.9h-0.2v-2.2h0.2v1h1.2v-1h0.2v2.2h-0.2v-1h-1.2V163.9z"/>
	<path class="st0" d="M136.4,162.8c0,0.7-0.3,1.1-1,1.1c-0.6,0-1-0.4-1-1.1c0-0.7,0.3-1.1,1-1.1C136,161.7,136.4,162.1,136.4,162.8z
		 M134.7,162.8c0,0.6,0.3,0.9,0.8,0.9s0.7-0.3,0.8-0.9c0-0.6-0.3-0.9-0.8-1C134.9,161.9,134.7,162.2,134.7,162.8z"/>
	<path class="st0" d="M136.9,163.9v-2.2h0.2l1.2,1.9l0,0v-1.9h0.2v2.2h-0.2l-1.2-1.9l0,0v1.9H136.9z"/>
	<path class="st0" d="M139.9,162.8h0.7v1c-0.3,0.1-0.5,0.1-0.8,0.1c-0.6,0-0.9-0.4-0.9-1.1c0-0.7,0.4-1.1,0.9-1.1s0.7,0.2,0.8,0.6
		h-0.2c0-0.3-0.2-0.4-0.5-0.4c-0.5,0-0.7,0.3-0.7,1c0,0.6,0.3,0.9,0.8,0.9c0.2,0,0.3,0,0.5-0.1V163H140v-0.2H139.9z"/>
	<path class="st0" d="M141.4,163.9h-0.2v-2.2h0.2v1l1-1h0.2l-1,1l1.1,1.2h-0.3l-1-1.1V163.9z"/>
	<path class="st0" d="M143,163.9h-0.2l0.9-2.2h0.2l0.9,2.2h-0.2l-0.2-0.6h-1.1L143,163.9z M143.3,163.1h1l-0.5-1.2L143.3,163.1z"/>
	<path class="st0" d="M146.9,162.8c0,0.7-0.3,1.1-1,1.1c-0.6,0-1-0.4-1-1.1c0-0.7,0.3-1.1,1-1.1
		C146.5,161.7,146.8,162.1,146.9,162.8z M145.1,162.8c0,0.6,0.3,0.9,0.8,0.9s0.7-0.3,0.8-0.9c0-0.6-0.3-0.9-0.8-1
		C145.4,161.9,145.2,162.2,145.1,162.8z"/>
	<path class="st0" d="M150.4,163.9V163l-0.8-1.2h0.2l0.7,1.1l0.7-1.1h0.2l-0.8,1.2v0.9H150.4z"/>
	<path class="st0" d="M151.9,163.9h-0.2v-2.2h0.2V163.9z"/>
	<path class="st0" d="M152.5,163.9v-2.2h0.2l1.2,1.9l0,0v-1.9h0.2v2.2h-0.2l-1.2-1.9l0,0v1.9H152.5z"/>
	<path class="st0" d="M155.5,162.8h0.7v1c-0.3,0.1-0.5,0.1-0.8,0.1c-0.6,0-0.9-0.4-0.9-1.1c0-0.7,0.4-1.1,0.9-1.1s0.7,0.2,0.8,0.6
		H156c0-0.3-0.2-0.4-0.5-0.4c-0.5,0-0.7,0.3-0.7,1c0,0.6,0.3,0.9,0.8,0.9c0.2,0,0.3,0,0.5-0.1V163h-0.5v-0.2H155.5z"/>
	<path class="st0" d="M157.4,163.9V163l-0.8-1.2h0.2l0.7,1.1l0.7-1.1h0.2l-0.8,1.2v0.9H157.4z"/>
	<path class="st0" d="M158.7,161.7h0.2v1.4c0,0.4,0.2,0.6,0.6,0.6c0.4,0,0.6-0.2,0.6-0.6v-1.4h0.2v1.4c0,0.5-0.3,0.8-0.8,0.8
		s-0.8-0.3-0.8-0.8V161.7z"/>
</g>
<g>
	<path class="st10" d="M22.2,136h4v1.4h-6v-1.1c0.6-1,1.4-1.8,2.5-2.7c0.7-0.5,1.2-1,1.5-1.3c0.2-0.3,0.3-0.6,0.3-0.9
		c0-0.4-0.1-0.6-0.3-0.8c-0.2-0.2-0.5-0.3-1-0.3c-0.8,0-1.3,0.5-1.4,1.5l-1.6-0.3c0.4-1.6,1.4-2.4,3.3-2.4c0.9,0,1.6,0.3,2.1,0.7
		c0.5,0.5,0.7,1,0.7,1.6s-0.1,1.1-0.4,1.4c-0.3,0.4-0.8,0.8-1.5,1.3C23.4,134.7,22.7,135.3,22.2,136z"/>
	<path class="st10" d="M30.5,128.9c1,0,1.8,0.4,2.4,1.1c0.5,0.7,0.8,1.8,0.8,3.2c0,1.5-0.3,2.6-0.8,3.3s-1.3,1-2.4,1
		c-1,0-1.7-0.3-2.3-1c-0.6-0.7-0.9-1.8-0.9-3.3c0-1.4,0.3-2.4,0.8-3.2C28.7,129.3,29.5,128.9,30.5,128.9z M30.5,136.2
		c0.4,0,0.7-0.2,1-0.6c0.3-0.5,0.4-1.3,0.4-2.4c0-1.1-0.1-1.9-0.3-2.4c-0.2-0.5-0.6-0.7-1-0.7s-0.8,0.2-1,0.7
		c-0.3,0.5-0.4,1.3-0.4,2.4C29.1,135.2,29.6,136.2,30.5,136.2z"/>
	<path class="st10" d="M36.5,136h4v1.4h-6v-1.1c0.6-1,1.4-1.8,2.5-2.7c0.7-0.5,1.2-1,1.5-1.3c0.2-0.3,0.3-0.6,0.3-0.9
		c0-0.4-0.1-0.6-0.3-0.8s-0.5-0.3-1-0.3c-0.8,0-1.3,0.5-1.4,1.5l-1.6-0.3c0.4-1.6,1.4-2.4,3.3-2.4c0.9,0,1.6,0.3,2.1,0.7
		c0.5,0.5,0.7,1,0.7,1.6s-0.1,1.1-0.4,1.4c-0.3,0.4-0.8,0.8-1.5,1.3C37.8,134.7,37,135.3,36.5,136z"/>
	<path class="st10" d="M41.6,135.3l1.7-0.4c0.2,0.9,0.7,1.3,1.5,1.3c0.4,0,0.7-0.1,1-0.4c0.3-0.3,0.4-0.6,0.4-1.1s-0.1-0.9-0.4-1.1
		c-0.3-0.3-0.6-0.4-1.1-0.4c-0.6,0-1.1,0.2-1.4,0.6h-1.4l0.3-4.7h5.1v1.4h-3.7l-0.2,2.1c0.5-0.4,1-0.5,1.6-0.5c0.8,0,1.5,0.2,2,0.7
		s0.7,1.1,0.7,1.9c0,0.9-0.3,1.6-0.8,2.1s-1.3,0.8-2.3,0.8C43.1,137.5,42,136.8,41.6,135.3z"/>
</g>
<g>
	<path d="M53.9,131.1c0.3,0.1,0.6,0.3,0.8,0.4c0.1,0,0.2,0.1,0.2,0.1s-0.1,0.1-0.2,0.1c0,0-0.1,0-0.2,0.1c-0.1,0-0.1,0-0.1,0.1
		c-0.2,0.2-0.4,0.4-0.6,0.7c0.1,0,0.1,0.1,0.1,0.1s0,0.1-0.1,0.2c-0.1,0.1-0.1,0.1-0.1,0.2v3.1c0,0.1,0,0.3,0,0.5c0,0.1,0,0.2,0,0.2
		c0,0.1-0.1,0.2-0.4,0.3c-0.3,0-0.5,0-0.5-0.1l0.1-3.6c-0.3,0.3-0.7,0.6-1.1,0.7c-0.2,0.1-0.3,0.1-0.1-0.1c0.6-0.6,1.2-1.5,1.7-2.6
		h-1.1c-0.2,0-0.3,0-0.5,0l-0.2-0.2c0.1,0,0.2,0,0.3,0h1.4c0.1-0.2,0.1-0.3,0.2-0.3C53.7,131.1,53.7,131,53.9,131.1z M52.9,129.3
		c0.7,0,1.1,0.3,1.2,0.7c0,0.7-0.4,0.9-0.9,0.6c-0.1-0.1-0.1-0.3-0.1-0.6C53,129.7,53,129.5,52.9,129.3
		C52.8,129.4,52.8,129.4,52.9,129.3C52.8,129.3,52.8,129.3,52.9,129.3z M54.1,133c0.5,0.1,0.8,0.3,0.9,0.7c0,0.2-0.1,0.4-0.3,0.5
		s-0.4,0-0.5-0.2c0-0.1-0.1-0.3,0-0.5C54.2,133.3,54.2,133.1,54.1,133C54,133,54,133,54.1,133C54,132.9,54,132.9,54.1,133z
		 M55.2,130.1h3.1c0.1-0.2,0.3-0.3,0.5-0.6h0.1c0.3,0.2,0.5,0.4,0.7,0.6c0,0.1,0,0.1,0,0.1h-4c-0.2,0-0.3,0-0.5,0l-0.2-0.2
		C55,130.1,55.1,130.1,55.2,130.1z M56,136.9c-0.2,0.2-0.4,0.3-0.8,0.2c0,0,0-0.1,0-0.3s0-0.4,0-0.6v-2.9c0.3,0.1,0.6,0.2,0.8,0.4
		h2.3c0.2-0.2,0.3-0.4,0.4-0.4c0.3,0.1,0.6,0.3,0.8,0.5c0,0-0.1,0.1-0.2,0.3v0.8c0,0.1,0,0.5,0,1.1c0,0.4,0,0.7,0,0.8
		s-0.1,0.2-0.4,0.3c-0.3,0.1-0.5,0-0.5-0.1v-0.5H56V136.9z M56.4,133c-0.1,0.1-0.3,0.2-0.5,0.2s-0.3-0.1-0.3-0.3v-2.1
		c0.3,0.1,0.5,0.2,0.6,0.3h1.5c0.1-0.2,0.2-0.3,0.4-0.3c0.4,0.1,0.7,0.3,0.8,0.5c0,0.1-0.1,0.1-0.2,0.2v1.3c0,0.1-0.1,0.2-0.4,0.2
		c-0.3,0-0.4,0-0.5-0.1v-0.3h-1.6v0.4L56.4,133L56.4,133z M56.9,134.9v-1.1H56v1.1H56.9z M56.9,136.3v-1.2H56v1.2H56.9z M56.4,131.2
		v1.2H58v-1.2H56.4z M57.9,133.8c0,0.1-0.1,0.2-0.2,0.3v0.9h0.9v-1.1L57.9,133.8L57.9,133.8z M57.6,135.1v1.2h0.9v-1.2H57.6z"/>
	<path d="M67.9,136.1c-0.3,0.2-0.5,0.4-0.5,0.9c0,0.1,0,0.1-0.1,0.1c0,0,0,0-0.1,0s-0.2,0.1-0.3,0.1h-1.3c-1.8,0-3.1-0.4-3.9-1.2
		c-0.5,0.5-1,0.9-1.7,1.1h-0.1c0,0,0,0,0.1-0.1c0.6-0.3,1-0.9,1.3-1.5c-0.4-0.5-0.7-1.2-0.9-2.2c0-0.1,0.1-0.1,0.1,0
		c0.2,0.7,0.6,1.3,1,1.8c0.2-0.6,0.3-1.3,0.3-2h-0.6c-0.1,0.1-0.2,0.1-0.3,0.2h-0.1l0,0c-0.3-0.2-0.5-0.4-0.6-0.5v-0.1
		c0.1,0,0.2-0.1,0.3-0.2l0.8-2.1h-0.6c-0.2,0-0.3,0-0.5,0l-0.2-0.2c0.1,0,0.2,0,0.3,0h1.1c0.1-0.1,0.1-0.2,0.2-0.3c0,0,0,0,0.1,0
		h0.1c0.2,0,0.4,0.2,0.6,0.3c0.1,0,0.1,0.1,0.2,0.1c0,0,0,0.1,0,0.2c-0.2,0.1-0.2,0.2-0.3,0.2l-1,2.2h0.5c0.1-0.1,0.2-0.2,0.4-0.3
		h0.1c0,0,0,0,0.1,0s0.3,0.2,0.6,0.4c0,0,0,0.1,0,0.2l-0.1,0.1c-0.1,0.1-0.1,0.2-0.1,0.2c-0.1,0.9-0.3,1.6-0.6,2.2
		c0.7,0.5,1.6,0.7,2.8,0.7h1.3C66.7,136.2,67.3,136.1,67.9,136.1C67.9,136,67.9,136,67.9,136.1z M65,135.7c0,0.1-0.2,0.2-0.4,0.3
		c-0.2,0-0.4,0-0.4-0.1V135h-0.9c-0.2,0-0.4,0-0.5,0l-0.2-0.2c0.1,0,0.2,0,0.3,0h1.4v-0.9h-0.6c-0.2,0-0.3,0-0.5,0l-0.2-0.2
		c0.1,0,0.2,0,0.3,0h1v-1h-0.6c-0.2,0-0.4,0-0.5,0l-0.2-0.2c0.1,0,0.2,0,0.3,0h1.1v-0.8h-1.2c0,0-0.2,0-0.5,0l-0.2-0.2
		c0.1,0,0.2,0,0.3,0h1.6v-0.9h-0.7h-0.5l-0.2-0.2c0.1,0,0.2,0,0.3,0h1.1v-1.1c0,0,0.2,0,0.3,0c0.3,0,0.5,0,0.6,0.1
		c0.1,0,0.1,0.1,0,0.2c0,0.1-0.1,0.1-0.1,0.1v0.8H66c0,0,0.1-0.1,0.2-0.2c0.1-0.1,0.1-0.1,0.2-0.1c0.3,0,0.6,0.2,0.8,0.5
		c0,0,0,0.1-0.1,0.2L67,131v0.7h0.2c0.2-0.3,0.4-0.4,0.4-0.5h0.1c0.3,0.2,0.5,0.4,0.6,0.6c0,0.1,0,0.1-0.1,0.1H67v1.2
		c0,0-0.1,0.1-0.3,0.2c0.3,0.2,0.5,0.4,0.7,0.6c0,0.1,0,0.1,0,0.1H65v0.9h1.1c0.2-0.3,0.4-0.5,0.5-0.6h0.1c0.3,0.2,0.6,0.4,0.7,0.6
		c0,0.1,0,0.1,0,0.1H65V135.7z M65,130.7v0.9h0.9v-0.9H65z M65,131.7v0.8h0.9v-0.8H65z M65,132.7v1h0.9c0.1-0.2,0.3-0.4,0.5-0.6
		c-0.3,0-0.4-0.1-0.5-0.2v-0.3H65V132.7z"/>
	<path d="M72.6,136.8c0,0.2-0.1,0.3-0.5,0.4c-0.4,0-0.6-0.1-0.5-0.3v-3.3h-2.1v0.5c-0.5,0.4-0.8,0.5-0.9,0.1v-2.7V131
		c0.2-0.1,0.5,0.1,0.9,0.4h2.1v-1.7c0-0.1,0-0.2,0-0.3c0-0.2-0.1-0.2,0-0.3c0.6,0,1,0.1,1.3,0.3c0,0,0,0.1-0.1,0.2
		c-0.1,0-0.1,0.1-0.1,0.1v1.7h1.9c0.2-0.2,0.3-0.4,0.4-0.5c0,0,0,0,0.1,0l0,0c0.4,0.2,0.7,0.3,1,0.6v0.1c-0.1,0.1-0.2,0.2-0.4,0.2
		l0.1,2.2c-0.1,0.2-0.3,0.2-0.6,0.3c-0.3,0-0.4-0.1-0.4-0.3v-0.4h-2.1L72.6,136.8z M71.6,133.5v-1.9h-2.1v1.9H71.6z M72.5,131.6v1.9
		h2.1v-1.9H72.5z"/>
	<path d="M82.6,134.1c0.4,0.2,0.7,0.4,0.8,0.6v0.1c0,0-0.1,0-0.1,0.1c-0.1,0-0.1,0.1-0.2,0.1c-0.1,0.9-0.3,1.4-0.7,1.7
		c-0.3,0.3-1,0.5-2,0.6h-0.1c0-0.5-0.4-0.9-1-1c0-0.1,0-0.1,0-0.2c1.9,0.6,2.8,0.1,2.9-1.4l0,0h-1.6l0,0c0,0-0.2,0.1-0.4,0.3
		c0,0,0,0-0.1,0H80c-0.2-0.1-0.4-0.2-0.7-0.5c0-0.1,0-0.1,0-0.1c0.2,0,0.5-0.3,0.7-0.8h-0.6c-0.8,0.4-1.7,0.8-2.7,1.1
		c-0.1,0-0.1-0.1-0.1-0.1c1.3-0.6,2.6-1.4,3.7-2.3h-3.2c-0.2,0-0.4,0-0.6,0l-0.2-0.2c0.1,0,0.2,0,0.3,0h2.9v-1.3h-1.2
		c0,0-0.2,0-0.6,0l-0.2-0.2c0.1,0,0.2,0,0.3,0h1.6v-0.7v-0.5c0,0,0,0,0.1,0c0.4,0.1,0.7,0.2,0.9,0.3v0.1l-0.1,0.1c0.1,0,0,0-0.1,0
		v0.7h0.3c0.2-0.3,0.4-0.5,0.5-0.6h0.1c0.3,0.2,0.5,0.3,0.7,0.6c0.3-0.3,0.5-0.5,0.7-0.8h0.1c0.5,0.3,0.8,0.5,1,0.7
		c0,0.1,0,0.1,0,0.1c-0.1,0-0.2,0-0.4,0c-0.5,0.5-1,1-1.6,1.4h1.1c0,0,0.1-0.1,0.3-0.3c0.1-0.2,0.2-0.2,0.3-0.3c0,0,0,0,0.1,0l0,0
		c0.4,0.2,0.7,0.4,0.8,0.6c0,0.1,0,0.1-0.1,0.2h-2.7c-0.5,0.4-1.1,0.8-1.8,1.1H82c0,0,0.1-0.2,0.3-0.3c0.1-0.1,0.2-0.2,0.2-0.3h0.1
		c0.3,0.2,0.6,0.5,0.7,0.6c0,0.1,0,0.1,0,0.1h-2.5c0,0,0,0.1-0.2,0.2c0,0.1-0.1,0.2-0.1,0.3c-0.1,0.2-0.1,0.4-0.2,0.5h1.5
		C82.3,134.3,82.4,134.1,82.6,134.1C82.5,134,82.6,134,82.6,134.1z M80.7,132c0.5-0.4,0.9-0.8,1.3-1.3h-1.4L80.7,132L80.7,132z"/>
</g>
<rect x="115.8" y="188.7" class="st0" width="47.3" height="0.1"/>
<rect x="115.8" y="165.4" class="st0" width="47.3" height="0.1"/>
</svg>
