<?xml version="1.0" encoding="utf-8"?>
<!-- Generator: Adobe Illustrator 23.1.0, SVG Export Plug-In . SVG Version: 6.00 Build 0)  -->
<svg version="1.1" id="svg" xmlns="http://www.w3.org/2000/svg" xmlns:xlink="http://www.w3.org/1999/xlink" x="0px" y="0px"
	 viewBox="0 0 180 254.6" style="enable-background:new 0 0 180 254.6;" xml:space="preserve">
<style type="text/css">
	.st0{fill:#FFFFFF;}
	.st1{clip-path:url(#SVGID_2_);}
	.st2{clip-path:url(#SVGID_4_);fill:#E7380D;}
	.st3{clip-path:url(#SVGID_6_);}
	.st4{clip-path:url(#SVGID_8_);fill:#E84D07;}
	.st5{clip-path:url(#SVGID_10_);}
	.st6{fill:#E62C1B;}
	.st7{clip-path:url(#SVGID_12_);}
	.st8{clip-path:url(#SVGID_14_);}
	.st9{fill:#231815;}
	.st10{clip-path:url(#SVGID_16_);}
	.st11{fill:none;}
	.st12{enable-background:new    ;}
	.st13{opacity:0.42;clip-path:url(#SVGID_18_);}
	.st14{fill:#E62310;}
	.st15{opacity:0.42;clip-path:url(#SVGID_20_);}
</style>
<path class="st0" d="M167.8,254.6H12.2c-6.7,0-12.2-5.5-12.2-12.2V12.2C0,5.5,5.5,0,12.2,0h155.6c6.7,0,12.2,5.5,12.2,12.2v230.2
	C180,249.1,174.5,254.6,167.8,254.6z"/>
<g>
	<defs>
		<rect id="SVGID_1_" y="10.6" width="168.3" height="236.8"/>
	</defs>
	<clipPath id="SVGID_2_">
		<use xlink:href="#SVGID_1_"  style="overflow:visible;"/>
	</clipPath>
	<path class="st1" d="M14.5,112.1"/>
</g>
<g>
	<defs>
		<rect id="SVGID_3_" y="10.6" width="168.3" height="236.8"/>
	</defs>
	<clipPath id="SVGID_4_">
		<use xlink:href="#SVGID_3_"  style="overflow:visible;"/>
	</clipPath>
	<path class="st2" d="M-9.7,12.2L-9.7,12.2L-26,12.3c-3.7,0-7.1,2.1-8.6,5.2l-10.8,23.2h35.7h0.5h45.7c4.6,0,8.7-2.2,10.3-5.4
		l11.4-23.1C58.2,12.2-9.7,12.2-9.7,12.2z"/>
</g>
<g>
	<defs>
		<rect id="SVGID_5_" y="10.6" width="173.4" height="244"/>
	</defs>
	<clipPath id="SVGID_6_">
		<use xlink:href="#SVGID_5_"  style="overflow:visible;"/>
	</clipPath>
	<g class="st3">
		<path class="st0" d="M9.6,28.3c0,2.2,1.8,3.9,3.9,3.9c1.8,0,3.3-1.1,3.8-2.8l-3.8-1.1l0,0l0,0v-3.9C11.3,24.4,9.6,26.2,9.6,28.3"
			/>
		<path class="st0" d="M20.4,25L20.4,25c0-1.6-1.3-3-3-3h-3.8v6.2h3.6C19,28.2,20.4,26.8,20.4,25"/>
		<g>
			<path class="st0" d="M24.3,29.3l-0.2-0.3L24,28.7c-0.2,0.3-0.5,0.7-0.9,1.1l-0.5-0.6c0.4-0.4,0.7-0.8,1-1.3
				c-0.3-0.5-0.6-0.9-0.8-1.1l0.6-0.4l0.5,0.8c0.1-0.3,0.2-0.6,0.2-0.9h-1.3v-0.7h2.1v0.7c-0.1,0.3-0.1,0.6-0.2,0.9
				c-0.1,0.3-0.2,0.5-0.3,0.7c0,0,0,0,0,0.1c0,0,0,0,0,0.1l0.4,0.7L24.3,29.3z M27.5,29.4L27,30.1c-0.4-0.3-0.7-0.6-0.9-0.9
				c-0.3,0.3-0.7,0.6-1.1,0.9l-0.5-0.6c0.5-0.3,0.9-0.6,1.2-1c-0.3-0.5-0.5-1.2-0.6-2.1v-0.7h2.3v0.7c-0.1,0.8-0.4,1.5-0.7,2.2
				C26.8,28.8,27.1,29.1,27.5,29.4z M25.8,26.4c0.1,0.5,0.2,1,0.3,1.3c0.2-0.4,0.3-0.8,0.4-1.3H25.8z"/>
			<path class="st0" d="M32.5,29c0,0,0.1,0.1,0.4,0.3l-0.3,0.7c-0.3-0.3-0.5-0.5-0.6-0.7c-0.2,0.2-0.4,0.5-0.6,0.8l-0.6-0.6
				c0.2-0.1,0.3-0.3,0.4-0.4l-0.5,0.4l-0.4-0.4c0.1-0.1,0.1-0.1,0.1-0.2v-0.3H30v0.1c0,0.2,0,0.4-0.1,0.6c-0.1,0.2-0.2,0.4-0.4,0.6
				l-0.4-0.3v0.2h-0.6v-1.4c-0.1,0.1-0.2,0.2-0.3,0.3l-0.2-0.8c0.2-0.2,0.3-0.4,0.5-0.6s0.3-0.5,0.4-0.7l0.4,0.2v-1
				c-0.3,0.5-0.6,0.9-1,1.2l-0.3-0.5c0.1-0.1,0.3-0.2,0.4-0.4c0.2-0.2,0.3-0.4,0.4-0.6l0.5,0.4l0,0h0.4v0.6h0.2v-1h0.6v1h0.1v-0.7
				H31v0.9c0.1-0.2,0.2-0.4,0.2-0.6c0.1-0.2,0.1-0.5,0.2-0.7l0.6,0.1c0,0.2-0.1,0.4-0.1,0.6h0.8v0.6h-0.2c0,0.4-0.1,0.7-0.1,1
				c-0.1,0.3-0.1,0.6-0.3,0.8C32.4,28.9,32.5,29,32.5,29z M31.2,29c0.1-0.1,0.2-0.3,0.3-0.4c-0.1-0.3-0.2-0.6-0.3-1l-0.1,0.1
				L31,27.5v0.4h-1.9v-0.6c-0.1,0.2-0.2,0.3-0.2,0.3v2c0.1-0.1,0.2-0.2,0.2-0.4c0-0.1,0.1-0.3,0.1-0.5V28h1.6v0.6l0.2-0.1L31.2,29z
				 M30.9,27.1h-1.5v0.1c0,0,0,0.1-0.1,0.1h1.6V27.1z M31.7,26.8v0.1c0,0.3,0.1,0.6,0.2,0.9c0.1-0.3,0.1-0.7,0.2-1H31.7z"/>
			<path class="st0" d="M35,27.7h2.9V30h-0.7v-0.2h-1.6V30h-0.7v-1.9l-0.2,0.2c-0.1-0.1-0.1-0.1-0.2-0.2V30h-0.7v-1.4
				c-0.1,0.1-0.2,0.2-0.4,0.3L33,28.1c0.2-0.2,0.4-0.4,0.6-0.6c0.2-0.2,0.3-0.4,0.4-0.6h-0.8v-0.6H34c-0.2-0.2-0.3-0.4-0.4-0.5
				l0.6-0.4c0.2,0.2,0.3,0.5,0.5,0.7l-0.3,0.2H35V27l-0.4,0.5L35,27.7z M34.9,26.2v-0.5H38v0.5H34.9z M35,27.6v-1.2h2.7v1.2H35z
				 M36.1,28.5v-0.2h-0.5v0.2H36.1z M35.5,29v0.2h0.5V29H35.5z M35.8,27.1H37v-0.2h-1.2V27.1z M36.7,28.5h0.5v-0.2h-0.5V28.5z
				 M36.7,29v0.2h0.5V29H36.7z"/>
			<path class="st0" d="M40.1,29.1c0.1,0,0.3,0.1,0.4,0.1c0.1,0,0.3,0,0.6,0h2.2L43.2,30h-2.1c-0.4,0-0.7,0-0.9-0.1
				c-0.3-0.1-0.5-0.2-0.7-0.3c-0.1,0.2-0.3,0.3-0.4,0.5l-0.5-0.6c0.2-0.1,0.3-0.3,0.5-0.5c-0.2-0.3-0.3-0.6-0.4-1l0.5-0.2
				c0.1,0.2,0.1,0.4,0.2,0.5c0-0.2,0.1-0.4,0.1-0.7h-0.8v-0.6l0.7-0.8h-0.7v-0.6h1.4v0.6l-0.6,0.7h0.6v0.6c0,0.3-0.1,0.5-0.1,0.7
				s-0.1,0.4-0.2,0.6C39.9,29,40,29.1,40.1,29.1z M43,25.6v0.7h0.3v0.5H43v0.7h-1.2v0.2H43v0.5h-1.2v0.2h1.3V29h-1.3v0.1H41V29h-1
				v-0.5h1v-0.2h-0.8v-0.5h0.9v-0.2h-0.9v-0.5h0.9v-0.2h-1v-0.5h1v-0.2h-0.9v-0.5h0.9v-0.2h0.7v0.1H43V25.6z M42.2,26.2h-0.5v0.2
				h0.5V26.2z M41.8,27.1h0.4v-0.2h-0.5v0.2H41.8z"/>
		</g>
	</g>
</g>
<g>
	<defs>
		<rect id="SVGID_7_" y="10.6" width="168.3" height="236.8"/>
	</defs>
	<clipPath id="SVGID_8_">
		<use xlink:href="#SVGID_7_"  style="overflow:visible;"/>
	</clipPath>
	<polygon class="st4" points="38.3,187.5 53,158.5 71.5,162.8 87.6,146.1 103.2,147.4 124.8,120.5 119,117.4 136.3,104.3 
		136.3,125.8 129,122.4 108.3,160.8 90.6,155.2 74.9,178.1 54.4,167.1 	"/>
</g>
<g>
	<defs>
		<rect id="SVGID_9_" y="10.6" width="168.3" height="236.8"/>
	</defs>
	<clipPath id="SVGID_10_">
		<use xlink:href="#SVGID_9_"  style="overflow:visible;"/>
	</clipPath>
	<g class="st5">
		<path class="st6" d="M16.2,113.9c1.1-0.6,2-1.3,2.9-2.2c-1.3-2-2.2-4.5-2.7-7.6h2.9c0.4,1.9,0.9,3.6,1.7,5
			c0.4-0.8,0.8-1.7,1.1-2.7c0.3-1,0.5-2,0.6-3.1h-6.3V101h9.3v2.2c-0.2,1.6-0.5,3.1-1,4.5s-1.1,2.7-1.9,3.8c0.8,0.9,1.8,1.7,2.9,2.3
			v3c-1.9-0.7-3.5-1.7-4.8-3c-1.4,1.4-2.9,2.4-4.7,3V113.9z M26.3,113.9c1.1-0.6,2-1.3,2.9-2.2c-1.3-2-2.2-4.5-2.7-7.6h2.9
			c0.4,1.9,0.9,3.6,1.7,5c0.4-0.8,0.8-1.7,1.1-2.7s0.5-2,0.6-3.1h-6.3V101h9.3v2.2c-0.2,1.6-0.5,3.1-1,4.5s-1.1,2.7-1.9,3.8
			c0.8,0.9,1.8,1.7,2.9,2.3v3c-1.9-0.7-3.5-1.7-4.8-3c-1.4,1.4-2.9,2.4-4.7,3C26.3,116.8,26.3,113.9,26.3,113.9z"/>
		<path class="st6" d="M37.7,110.1l1.8-3.9h-1.8l2.6-5.5h3l-1.7,3.9h1.7l-1.6,3.5h0.7v9h-3.1V110L37.7,110.1L37.7,110.1z
			 M47.8,112.5h-1.4v2l-0.8,2.7h-2.8l0.8-2.7v-3.6h7v4.4c0,0.2,0.1,0.3,0.3,0.3h0.5l-0.6,1.6h-1c-0.3,0-0.5,0-0.7-0.1
			s-0.4-0.2-0.6-0.4c-0.2-0.2-0.3-0.4-0.4-0.6c-0.1-0.2-0.1-0.5-0.1-0.7v-2.9H47.8z M45.7,101.6v4.6h0.4v-5.5h2.5v5.5h0.2
			c0.2,0,0.2-0.1,0.2-0.4v-4.3h2.1v4.7c0,0.4-0.2,0.8-0.5,1.1c-0.3,0.3-0.7,0.5-1.1,0.5h-6v-6.2C43.5,101.6,45.7,101.6,45.7,101.6z
			 M43.6,108.5h7.5v1.6h-7.5V108.5z M57.7,104.1c0,3.1-0.6,5.7-1.7,8c0.2,0.3,0.5,0.5,0.8,0.8s0.6,0.6,0.9,0.8v3.4
			c-0.3-0.2-0.6-0.4-0.9-0.7c-0.3-0.2-0.5-0.4-0.8-0.7c-0.5-0.5-1-1-1.4-1.5c-0.8,1-1.8,2-3.1,2.9v-3.2c0.7-0.5,1.3-1.1,1.7-1.8
			c-0.5-1-0.9-2.1-1.1-3.3c-0.1-0.6-0.2-1.2-0.3-1.9c-0.1-0.7-0.1-1.4-0.1-2.1H54c0,0.5,0,0.9,0.1,1.4c0,0.4,0.1,0.8,0.1,1.2
			c0,0.4,0.1,0.7,0.2,1.1c0.1,0.4,0.2,0.7,0.3,1c0.3-0.8,0.4-1.6,0.5-2.5s0.2-1.9,0.2-2.9h-3.7l1.1-3.4H56l-0.6,1.7h2.5v1.7H57.7z"
			/>
		<path class="st6" d="M18.9,131.2H16v-2.3h3.2l0.6-4.6l-3,0.2v-2.3l9.7-0.8v2.3L23,124l-0.7,4.9h7.5v-7.1h3.1v7.1h3v2.3h-3v6.3
			h-3.1v-6.3H22l-0.9,6.3h-3L18.9,131.2z"/>
		<path class="st6" d="M55.8,129l-3.4,1.9h5.2v2.2h-7.3v2.5c0,0.6-0.2,1.1-0.6,1.5c-0.4,0.4-0.9,0.6-1.5,0.6h-4.9l1.1-2.2h2.3
			c0.1,0,0.3-0.1,0.4-0.2c0.1-0.1,0.2-0.2,0.2-0.4V133H38v-2.2h9.8l2.8-1.6H39.7v-1.8h-1.9v-4.2h2.3l-0.9-2h3.4l0.9,2h2.4l-0.9-2
			h3.4l0.9,2h2.2l0.9-2h3.4l-0.9,2h0.2c0.3,0,0.6,0.1,0.9,0.2c0.3,0.1,0.6,0.3,0.8,0.5s0.4,0.5,0.5,0.8s0.2,0.6,0.2,1v1.7h-1.8
			L55.8,129L55.8,129z M54.5,126.2c0-0.2-0.1-0.4-0.2-0.5c-0.2-0.2-0.3-0.2-0.5-0.2H41v1.7h13.5V126.2z"/>
		<path class="st6" d="M59.7,131.7l1.7-4.9h-1.7v-2.1h4.6h0.4l-1.6,4.9h1.3l-0.9,3.8l1.5,2h14.5v2H63.2l-0.7-0.9l-0.2,0.9h-2.6
			l1.6-5.8L59.7,131.7L59.7,131.7z M64.1,124.1h-2.9l-1.5-2.7h2.9L64.1,124.1z M75.9,133c0.2,0,0.3-0.1,0.4-0.2
			c0.1-0.1,0.2-0.2,0.2-0.4V132l0,0h-2.8v2.7h-2.9V132H68v2.7h-2.8V125H66h1.7l-0.7-1h3.1l0.7,1.1h1.9l1.4-1.7h-8.9v-1.7h7.2h6.2
			l-2.5,3.4h0.4h0.7c0.3,0,0.6,0.1,0.8,0.2c0.3,0.1,0.5,0.3,0.7,0.5s0.3,0.4,0.4,0.7c0.1,0.3,0.2,0.5,0.2,0.8v0.1v4.5v1
			c0,0.3-0.1,0.6-0.2,0.8c-0.1,0.3-0.3,0.5-0.5,0.7s-0.4,0.3-0.7,0.4c-0.3,0.1-0.5,0.2-0.8,0.2h-1.2l-0.9-2H75.9z M70.7,126.8h-2.8
			v1h2.8V126.8z M70.7,130.5v-1h-2.8v1H70.7z M76.5,127.4c0-0.2-0.1-0.3-0.2-0.4s-0.2-0.1-0.4-0.1h-2.2v1h0.8h2.1L76.5,127.4
			L76.5,127.4z M76.5,130.5v-1h-0.1h-2.7v1h0.8H76.5z"/>
	</g>
</g>
<g>
	<defs>
		<rect id="SVGID_11_" y="10.6" width="168.3" height="236.8"/>
	</defs>
	<clipPath id="SVGID_12_">
		<use xlink:href="#SVGID_11_"  style="overflow:visible;"/>
	</clipPath>
	<g class="st7">
		<path class="st6" d="M16.9,230.6l-0.1-0.2l-0.1-0.1c-0.1,0.2-0.3,0.5-0.6,0.7l-0.4-0.4c0.3-0.3,0.5-0.5,0.7-0.8
			c-0.2-0.3-0.4-0.6-0.5-0.7l0.4-0.2l0.4,0.5c0.1-0.2,0.1-0.4,0.2-0.6H16v-0.5h1.4v0.5c0,0.2-0.1,0.4-0.1,0.6c0,0.2-0.1,0.3-0.2,0.5
			l0,0l0,0l0.3,0.4L16.9,230.6z M19,230.6l-0.3,0.4c-0.2-0.2-0.5-0.4-0.6-0.6c-0.2,0.2-0.5,0.4-0.8,0.6l-0.3-0.4
			c0.4-0.2,0.6-0.4,0.8-0.6c-0.2-0.3-0.3-0.8-0.4-1.3v-0.5h1.5v0.5c-0.1,0.5-0.2,1-0.5,1.3C18.5,230.3,18.7,230.5,19,230.6z
			 M17.9,228.8c0.1,0.3,0.1,0.6,0.2,0.9c0.1-0.2,0.2-0.5,0.3-0.9H17.9z"/>
		<path class="st6" d="M22.2,230.4c0,0,0.1,0.1,0.2,0.2l-0.2,0.4c-0.2-0.2-0.3-0.3-0.4-0.5c-0.1,0.1-0.2,0.3-0.4,0.5l-0.3-0.3
			c0.1-0.1,0.2-0.2,0.3-0.3l-0.4,0.3l-0.3-0.3l0.1-0.1v-0.2h-0.2v0.1c0,0.2,0,0.3-0.1,0.4c0,0.1-0.1,0.2-0.3,0.4l-0.3-0.2v0.1h-0.4
			V230c-0.1,0.1-0.2,0.2-0.2,0.2l-0.1-0.5c0.1-0.1,0.2-0.2,0.3-0.4c0.1-0.1,0.2-0.3,0.3-0.4l0.3,0.1v-0.7c-0.2,0.3-0.4,0.6-0.7,0.8
			l-0.2-0.5c0.1-0.1,0.2-0.1,0.3-0.3c0.1-0.1,0.2-0.2,0.3-0.4l0.4,0.2l0,0h0.3v0.4h0.1v-0.6H21v0.6h0v-0.4h0.3v0.6
			c0.1-0.1,0.1-0.2,0.2-0.4s0.1-0.3,0.1-0.4H22c0,0.1-0.1,0.2-0.1,0.4h0.5v0.4h-0.1c0,0.3-0.1,0.5-0.1,0.7s-0.1,0.4-0.2,0.5
			C22.2,230.4,22.2,230.4,22.2,230.4z M21.4,230.5c0.1-0.1,0.1-0.2,0.2-0.3c-0.1-0.2-0.1-0.4-0.2-0.6l-0.1,0.1l-0.1-0.2v0.3H20v-0.4
			c-0.1,0.1-0.1,0.2-0.1,0.2v1.2c0.1-0.1,0.1-0.2,0.2-0.2c0-0.1,0-0.2,0-0.3v-0.4h1v0.4l0.1-0.1L21.4,230.5z M21.2,229.2h-1
			c0,0,0,0,0,0.1c0,0,0,0,0,0.1h1.1L21.2,229.2z M21.8,229L21.8,229c0,0.3,0,0.5,0.1,0.7c0.1-0.2,0.1-0.4,0.1-0.7H21.8z"/>
		<path class="st6" d="M25.9,230.7l-0.3,0.4c-0.2-0.2-0.4-0.3-0.6-0.5c-0.1,0.2-0.3,0.3-0.6,0.5l-0.3-0.4c0.3-0.2,0.5-0.4,0.7-0.5
			c-0.1-0.2-0.2-0.3-0.2-0.5l-0.1,0.2l-0.2-0.5H24l-0.1,0.1h0.4v0.4l-0.4,0.2l0.5-0.1v0.2v0.2l-0.5,0.1v0.2c0,0.1,0,0.2,0,0.2
			l-0.1,0.1c-0.1,0-0.1,0-0.3,0h-0.4l-0.1-0.4h0.3h0.1l0,0c0,0,0,0,0-0.1l0,0l-0.6,0.1v-0.4H23l-0.2-0.3c0.1,0,0.1-0.1,0.2-0.1v-0.3
			h0.4l0.1-0.1h-0.7V229h0.5v-0.1h-0.4v-0.4h0.4v-0.2h0.4v0.2h0.4v0.2c0.1-0.1,0.1-0.2,0.1-0.3l0.4,0.2c-0.1,0.1-0.2,0.3-0.3,0.4
			l0,0v0.2c0.1-0.1,0.2-0.3,0.2-0.5c0.1-0.2,0.1-0.4,0.1-0.5h0.5c0,0.1,0,0.2-0.1,0.3h0.8v0.5h-0.2c0,0.2-0.1,0.4-0.1,0.6
			c-0.1,0.2-0.1,0.3-0.2,0.5C25.5,230.3,25.7,230.5,25.9,230.7z M23.4,230.1V230l0.2-0.2h-0.1c-0.1,0.1-0.3,0.2-0.5,0.3H23.4z
			 M23.7,228.8v0.1h0.1l0.1-0.1H23.7z M25.1,229.7c0.1-0.2,0.1-0.4,0.2-0.7H25l-0.1,0.1C24.9,229.4,25,229.6,25.1,229.7z"/>
		<path class="st6" d="M29.3,228.4v0.4h-0.6l0.1,0.1c0.1,0.1,0.3,0.2,0.4,0.3l-0.3,0.3H29v1.3c0,0.1,0,0.2-0.1,0.2
			c0,0.1-0.1,0.1-0.2,0.1s-0.2,0-0.3,0h-0.6l-0.1-0.4h0.5h0.1l0,0c0,0,0,0,0-0.1l0,0h-1.5v0.5h-0.5v-1.7h2.3l-0.2-0.1l-2.2,0.1
			l-0.1-0.4c0.1,0,0.3-0.1,0.4-0.2h-0.6v-0.4h1.3c0-0.1-0.1-0.2-0.1-0.2l0.6-0.1c0,0.1,0.1,0.2,0.1,0.3L29.3,228.4L29.3,228.4z
			 M28.6,229.8v-0.1h-1.5v0.1H28.6z M27.1,230.1v0.1h1.5v-0.1H27.1z M28.2,228.9l-0.1-0.1l0.1-0.1h-0.6l-0.2,0.1l-0.1,0.1H28.2z"/>
		<path class="st6" d="M30.1,229.2c-0.1,0.1-0.1,0.2-0.2,0.2l-0.1-0.5c0.1-0.1,0.2-0.2,0.3-0.4c0.1-0.2,0.2-0.3,0.3-0.5l0.5,0.1
			c0,0.1-0.1,0.1-0.1,0.2h0.5c0-0.1-0.1-0.2-0.1-0.3h0.5c0,0.1,0.1,0.2,0.1,0.3h0.9v0.3h-1v0.1h0.9v0.3h-0.9v0.1h0.9v0.3h-0.9v0.1h1
			v0.3h-2.6C30.1,229.8,30.1,229.2,30.1,229.2z M32.7,231.1c-0.3-0.1-0.5-0.1-0.7-0.2c-0.2-0.1-0.3-0.1-0.5-0.2v0.4H31v-0.4
			c-0.1,0.1-0.3,0.1-0.5,0.2c-0.2,0.1-0.4,0.1-0.7,0.2l-0.2-0.4c0.4-0.1,0.8-0.2,1-0.3h-0.9V230H31v0h0.5v0.1h1.2v0.4h-0.9
			c0.3,0.1,0.6,0.2,1,0.3L32.7,231.1z M30.5,228.8h0.7v-0.1h-0.7V228.8z M30.5,229.2h0.7v-0.1h-0.7V229.2z M30.5,229.6h0.7v-0.1
			L30.5,229.6L30.5,229.6z"/>
		<path class="st6" d="M33.3,231.1v-2.8h2.9v2.8h-0.5V231h-1.9v0.1H33.3z M33.8,228.7v1.9h1.9v-1.9H33.8z M35.6,229v0.4h-0.2v0.8
			c0,0.1,0,0.2-0.1,0.2c0,0-0.1,0.1-0.2,0.1c-0.1,0-0.2,0-0.3,0h-0.2l-0.1-0.4h0.3c0.1,0,0.1,0,0.1,0l0,0c0,0,0,0,0-0.1v-0.3
			c-0.2,0.2-0.5,0.4-0.8,0.6l-0.3-0.4c0.3-0.2,0.6-0.4,0.8-0.6h-0.7V229h1v-0.2h0.5v0.2H35.6z"/>
		<path class="st6" d="M39.8,230.6l-0.1-0.2l-0.1-0.1c-0.1,0.2-0.3,0.5-0.6,0.7l-0.4-0.4c0.3-0.3,0.5-0.5,0.7-0.8
			c-0.2-0.3-0.4-0.6-0.5-0.7l0.4-0.2l0.4,0.5c0.1-0.2,0.1-0.4,0.2-0.6h-0.9v-0.5h1.4v0.5c0,0.2-0.1,0.4-0.1,0.6
			c0,0.2-0.1,0.3-0.2,0.5l0,0l0,0l0.3,0.4L39.8,230.6z M42,230.6l-0.3,0.4c-0.2-0.2-0.5-0.4-0.6-0.6c-0.2,0.2-0.5,0.4-0.8,0.6
			l-0.3-0.4c0.4-0.2,0.6-0.4,0.8-0.6c-0.2-0.3-0.3-0.8-0.4-1.3v-0.5h1.5v0.5c-0.1,0.5-0.2,1-0.5,1.3C41.5,230.3,41.7,230.5,42,230.6
			z M40.8,228.8c0.1,0.3,0.1,0.6,0.2,0.9c0.1-0.2,0.2-0.5,0.3-0.9H40.8z"/>
		<path class="st6" d="M45.2,230.4c0,0,0.1,0.1,0.2,0.2l-0.2,0.4c-0.2-0.2-0.3-0.3-0.4-0.5c-0.1,0.1-0.2,0.3-0.4,0.5l-0.3-0.3
			c0.1-0.1,0.2-0.2,0.3-0.3l-0.4,0.3l-0.3-0.3l0.1-0.1v-0.2h-0.2v0.1c0,0.2,0,0.3-0.1,0.4c0,0.1-0.1,0.2-0.3,0.4l-0.3-0.2v0.1h-0.4
			V230c-0.1,0.1-0.2,0.2-0.2,0.2l-0.1-0.5c0.1-0.1,0.2-0.2,0.3-0.4c0.1-0.1,0.2-0.3,0.3-0.4l0.3,0.1v-0.7c-0.2,0.3-0.4,0.6-0.7,0.8
			l-0.2-0.5c0.1-0.1,0.2-0.1,0.3-0.3c0.1-0.1,0.2-0.2,0.3-0.4l0.4,0.2l0,0h0.3v0.4h0.1v-0.6H44v0.6h0v-0.4h0.3v0.6
			c0.1-0.1,0.1-0.2,0.2-0.4c0.1-0.2,0.1-0.3,0.1-0.4H45c0,0.1-0.1,0.2-0.1,0.4h0.5v0.4h-0.1c0,0.3-0.1,0.5-0.1,0.7s-0.1,0.4-0.2,0.5
			C45.1,230.4,45.2,230.4,45.2,230.4z M44.4,230.5c0.1-0.1,0.1-0.2,0.2-0.3c-0.1-0.2-0.1-0.4-0.2-0.6l-0.1,0.1l-0.1-0.2v0.3H43v-0.4
			c-0.1,0.1-0.1,0.2-0.1,0.2v1.2c0.1-0.1,0.1-0.2,0.2-0.2c0-0.1,0-0.2,0-0.3v-0.4h1v0.4l0.1-0.1L44.4,230.5z M44.2,229.2h-1
			c0,0,0,0,0,0.1c0,0,0,0,0,0.1h1.1L44.2,229.2z M44.7,229L44.7,229c0,0.3,0,0.5,0.1,0.7c0.1-0.2,0.1-0.4,0.1-0.7H44.7z"/>
		<path class="st6" d="M48.9,230.7l-0.3,0.4c-0.2-0.2-0.4-0.3-0.6-0.5c-0.1,0.2-0.3,0.3-0.6,0.5l-0.3-0.4c0.3-0.2,0.5-0.4,0.7-0.5
			c-0.1-0.2-0.2-0.3-0.2-0.5l-0.1,0.2l-0.2-0.5H47l-0.1,0.1h0.4v0.4l-0.4,0.2l0.5-0.1v0.2v0.2l-0.5,0.1v0.2c0,0.1,0,0.2,0,0.2
			l-0.1,0.1c-0.1,0-0.1,0-0.3,0H46l-0.1-0.4h0.3h0.1l0,0c0,0,0,0,0-0.1l0,0l-0.6,0.1v-0.4h0.2l-0.2-0.3c0.1,0,0.1-0.1,0.2-0.1v-0.3
			h0.4l0.1-0.1h-0.7V229h0.5v-0.1h-0.4v-0.4h0.4v-0.2h0.4v0.2H47v0.2c0.1-0.1,0.1-0.2,0.1-0.3l0.4,0.2c-0.1,0.1-0.2,0.3-0.3,0.4l0,0
			v0.2c0.1-0.1,0.2-0.3,0.2-0.5c0.1-0.2,0.1-0.4,0.1-0.5H48c0,0.1,0,0.2-0.1,0.3h0.8v0.5h-0.2c0,0.2-0.1,0.4-0.1,0.6
			c-0.1,0.2-0.1,0.3-0.2,0.5C48.5,230.3,48.7,230.5,48.9,230.7z M46.4,230.1V230l0.2-0.2h-0.1c-0.1,0.1-0.3,0.2-0.5,0.3H46.4z
			 M46.7,228.8v0.1h0.1l0.1-0.1H46.7z M48,229.7c0.1-0.2,0.1-0.4,0.2-0.7h-0.3l-0.1,0.1C47.9,229.4,47.9,229.6,48,229.7z"/>
		<path class="st6" d="M52.3,228.4v0.4h-0.6l0.1,0.1c0.1,0.1,0.3,0.2,0.4,0.3l-0.3,0.3H52v1.3c0,0.1,0,0.2-0.1,0.2
			c0,0.1-0.1,0.1-0.2,0.1c-0.1,0-0.2,0-0.3,0h-0.6l-0.1-0.4h0.5h0.1l0,0c0,0,0,0,0-0.1l0,0H50v0.5h-0.5v-1.7h2.3l-0.2-0.1l-2.2,0.1
			l-0.1-0.4c0.1,0,0.3-0.1,0.4-0.2h-0.6v-0.4h1.3c0-0.1-0.1-0.2-0.1-0.2l0.6-0.1c0,0.1,0.1,0.2,0.1,0.3L52.3,228.4L52.3,228.4z
			 M51.5,229.8v-0.1H50v0.1H51.5z M50,230.1v0.1h1.5v-0.1H50z M51.2,228.9l-0.1-0.1l0.1-0.1h-0.6l-0.2,0.1l-0.1,0.1H51.2z"/>
		<path class="st6" d="M55.8,229.4v0.4h-0.3v1.2H55v-1.2h-0.3c0,0.2,0,0.4,0,0.5s-0.1,0.2-0.1,0.4c-0.1,0.1-0.2,0.2-0.3,0.4
			l-0.4-0.3l0,0h-0.5v0.1h-0.5V230l-0.1,0.1l-0.2-0.4c0.1-0.1,0.2-0.3,0.3-0.5s0.2-0.3,0.2-0.5h-0.3v-0.4H54v0.4h-0.4
			c0,0.1-0.1,0.3-0.1,0.4H54v1.5c0.1-0.1,0.1-0.2,0.2-0.2c0-0.1,0.1-0.2,0.1-0.2c0-0.1,0-0.2,0-0.3H54v-0.4h0.2v-0.7H54v-0.4h1.7
			v0.4h-0.3v0.7h0.4V229.4z M53.3,230.4L53.3,230.4l0.1-0.8h-0.1V230.4z M54.7,228.7v0.7H55v-0.7H54.7z"/>
		<path class="st6" d="M59.3,230.2c0,0,0,0.1,0,0.2c0,0.1,0,0.2,0,0.3s0,0.2-0.1,0.2l-0.1,0.1c-0.1,0-0.2,0-0.3,0h-0.3
			c-0.2,0-0.3,0-0.3-0.1c-0.1-0.1-0.1-0.2-0.1-0.3V230h-0.4c0,0.2-0.1,0.3-0.2,0.4c-0.1,0.1-0.2,0.2-0.4,0.3s-0.4,0.2-0.6,0.3
			l-0.4-0.4c0.2-0.1,0.4-0.1,0.5-0.2c0.1-0.1,0.2-0.1,0.3-0.2c0.1-0.1,0.1-0.1,0.1-0.2h-0.6v-0.4H57v-0.2c-0.2,0.1-0.5,0.2-0.8,0.2
			l-0.2-0.4c0.2-0.1,0.4-0.1,0.7-0.2c0.2-0.1,0.4-0.1,0.5-0.2l0.2,0.4c-0.1,0-0.2,0.1-0.4,0.1h0.5v0.1c0,0.1,0,0.1,0,0.1h0.9v0.9
			c0,0,0,0,0,0.1l0,0h0.1h0.1c0,0,0,0,0-0.1s0-0.2,0-0.3v-0.2L59.3,230.2z M58.7,228.8h-1.9v0.2h-0.5v-0.6h1.2l-0.1-0.2l0.6-0.1
			l0.1,0.3h1.1v0.6h-0.5C58.7,229,58.7,228.8,58.7,228.8z M58,228.9l0.4,0.1c0.4,0.1,0.7,0.2,0.8,0.3l-0.2,0.4
			c-0.1-0.1-0.3-0.1-0.6-0.2c-0.2-0.1-0.5-0.2-0.6-0.2L58,228.9z"/>
		<path class="st6" d="M60.7,230.4c0,0.1-0.1,0.1-0.2,0.2c-0.1,0-0.2,0-0.3,0h-0.1l-0.1-0.3v0.8h-0.4v-2.8h1.1v0.4l-0.2,0.6
			c0.1,0.1,0.1,0.3,0.2,0.4c0,0.1,0.1,0.2,0.1,0.4C60.8,230.2,60.8,230.3,60.7,230.4z M60.2,230.2C60.3,230.2,60.3,230.2,60.2,230.2
			c0.1,0,0.1,0,0.2-0.1c0,0,0-0.1,0-0.2c0-0.1,0-0.2,0-0.2c0-0.1-0.1-0.2-0.1-0.3l0.2-0.7h-0.2L60.2,230.2L60.2,230.2z M62.8,230.3
			v0.4c0,0.1,0,0.2-0.1,0.3s-0.2,0.1-0.3,0.1h-0.2c-0.1,0-0.2,0-0.2,0l-0.1-0.1c0-0.1,0-0.1,0-0.2V230h-0.2l0,0c0,0.2,0,0.3-0.1,0.4
			c0,0.1-0.1,0.2-0.2,0.3s-0.2,0.2-0.4,0.3l-0.3-0.3c0.1-0.1,0.3-0.1,0.3-0.2c0.1-0.1,0.1-0.1,0.2-0.2c0-0.1,0.1-0.2,0.1-0.3H61
			v-0.4h1.9v0.4h-0.5v0.5v0.1c0,0,0,0,0.1,0l0,0h0.1c0,0,0,0,0-0.1v-0.3L62.8,230.3z M62.3,228.8h-1v0.2h-0.4v-0.6h0.7l-0.1-0.2
			l0.5-0.1l0.1,0.3h0.7v0.6h-0.4L62.3,228.8L62.3,228.8z M62.5,229.5H61v-0.4h1.5V229.5z"/>
	</g>
</g>
<g>
	<defs>
		<rect id="SVGID_13_" y="10.6" width="168.3" height="236.8"/>
	</defs>
	<clipPath id="SVGID_14_">
		<use xlink:href="#SVGID_13_"  style="overflow:visible;"/>
	</clipPath>
	<g class="st8">
		<path class="st9" d="M125.9,221.4h2.7c0,0.5,0,0.9,0,1.4c0.5,0,1,0,1.5-0.1c0.2,0,0.2-0.1,0.2-0.3v-1h2.4v1.3c0.5,0,1,0,1.6-0.1
			c0.1,0,0.2-0.1,0.2-0.3c0-0.3,0-0.5,0-0.8h2.8c0.2,0,0.3,0,0.4-0.1c0.1-0.1,0-0.2-0.1-0.3l-1.5-1l-0.5,0.8h-1.1v-0.4
			c0.4-0.1,0.5-0.3,0.5-0.5c0-0.1-0.1-0.2-0.3-0.2l-2-0.2c0,0.5,0,0.9,0,1.2h-2.4v-0.4c0.4-0.1,0.5-0.3,0.5-0.5
			c0-0.1-0.1-0.1-0.3-0.2l-2-0.2c0,0.4,0,0.8,0,1.2l0,0h-2.7L125.9,221.4L125.9,221.4L125.9,221.4z"/>
		<path class="st9" d="M137.7,226.7l-1.4-1l-0.5,0.8h-0.1v-2.1c0.3-0.2,0.5-0.4,0.5-0.6c0-0.1-0.1-0.2-0.2-0.2l-1.8-0.7l-0.5,0.9
			h-1.2v-0.4c0.3-0.1,0.5-0.3,0.5-0.5c0-0.1-0.1-0.2-0.3-0.2l-2-0.2c0,0.4,0,0.9,0,1.3h-1.3l-1.9-0.5c0,0.9,0.1,1.7,0.1,2.2v0.9
			h-1.7v0.6l0,0l0,0h4.5c-0.3,0.7-0.8,1.3-1.5,1.9c-0.7,0.5-1.6,1.1-2.9,1.7l0.1,0.2c1.9-0.4,3.3-0.8,4.2-1.4c1-0.6,1.7-1.3,2-2.3
			c0.4,1,0.8,1.7,1.4,2.3c0.6,0.6,1.4,1,2.5,1.4c0.2-0.5,0.4-0.9,0.6-1.3c0.2-0.3,0.5-0.5,0.9-0.7v-0.2c-1.2-0.1-2.2-0.2-3-0.5
			c-0.7-0.2-1.3-0.6-2-1.1h4.9c0.2,0,0.3,0,0.4-0.1C137.9,226.9,137.8,226.8,137.7,226.7z M132.3,226.5c0.1-0.5,0.2-1.1,0.2-1.8
			v-0.3h1.5v2.1H132.3z M129.3,224.4h1.4v0.2c0,0.7-0.1,1.3-0.2,1.9h-1.2V224.4z"/>
		<path class="st9" d="M142.6,228v-3.6c0.3-0.2,0.5-0.4,0.5-0.5s-0.1-0.2-0.2-0.2l-1.7-0.7l-0.4,0.8h-0.9v0.3l0,0v0.1h1.1v3.7
			c0,0.2,0,0.4-0.1,0.6c-0.1,0.1-0.2,0.3-0.4,0.4l0.8,1.5c0.1,0.2,0.2,0.2,0.3,0.2c0.2,0,0.3-0.2,0.3-0.6c0.8-0.7,1.6-1.4,2.4-2.3
			l-0.1-0.2L142.6,228z"/>
		<path class="st9" d="M142,222.4c0.3,0,0.5-0.1,0.7-0.3s0.3-0.5,0.3-0.8s-0.2-0.6-0.6-0.9c-0.4-0.3-1.1-0.5-2-0.7l-0.1,0.1
			c0.4,0.6,0.7,1.2,0.8,1.9C141.4,222.2,141.6,222.4,142,222.4z"/>
		<path class="st9" d="M151.8,225.1l-1.2-0.8l-0.4,0.6v-1.8c0.3-0.2,0.5-0.4,0.5-0.6c0-0.1-0.1-0.2-0.2-0.2l-1.8-0.7l-0.5,0.9H147
			l0.4-1.9h3.6c0.2,0,0.3,0,0.4-0.1c0.1-0.1,0-0.1-0.1-0.2l-1.5-1l-0.5,0.7h-5.9v0.6l0,0l0,0h2.3l-0.4,1.9H144v0.1l0,0v0.3h1.4
			L145,225h-1.8v0.1v0.1v0.2h8.5c0.2,0,0.3,0,0.4-0.1C152,225.3,152,225.2,151.8,225.1z M147,222.9h1.5v2.1h-1.9L147,222.9z"/>
		<path class="st9" d="M151.1,226.6l-1.8-0.7l-0.5,0.9h-2.6l-2-0.6c0,0.5,0,1.1,0,1.6v1.1c0,0.7,0,1.4-0.1,2.1
			c0.8-0.1,1.3-0.1,1.5-0.1s0.4-0.2,0.4-0.4v-0.3h3v0.8c0.6,0,1.2-0.1,1.8-0.2c0.1,0,0.1-0.1,0.1-0.3c0-0.8,0-1.5-0.1-2.3v-0.8
			c0.3-0.2,0.5-0.4,0.5-0.6C151.3,226.7,151.3,226.7,151.1,226.6z M146,229.7v-2.5h3v2.5H146z"/>
	</g>
</g>
<g>
	<defs>
		<rect id="SVGID_15_" y="10.6" width="168.3" height="236.8"/>
	</defs>
	<clipPath id="SVGID_16_">
		<use xlink:href="#SVGID_15_"  style="overflow:visible;"/>
	</clipPath>
	<g class="st10">
		<rect x="15.8" y="223.4" class="st11" width="47.1" height="2.6"/>
		<g class="st12">
			<path class="st9" d="M16.7,225.5c0-0.1-0.1-0.2-0.1-0.3c-0.1,0.2-0.3,0.4-0.5,0.6c-0.1-0.1-0.2-0.2-0.3-0.3
				c0.2-0.1,0.4-0.4,0.5-0.7c-0.1-0.2-0.3-0.4-0.4-0.5l0.3-0.2c0.1,0.1,0.2,0.2,0.3,0.3c0-0.2,0.1-0.3,0.1-0.5h-0.6v-0.3h0.7l0.1,0
				l0.2,0.1c0,0.4-0.1,0.8-0.2,1.1c0.1,0.1,0.2,0.3,0.3,0.4L16.7,225.5z M18.1,223.7c0,0.6-0.2,1.1-0.4,1.4c0.1,0.2,0.3,0.3,0.4,0.4
				c-0.1,0.1-0.2,0.2-0.3,0.3c-0.2-0.1-0.3-0.2-0.4-0.4c-0.1,0.2-0.3,0.3-0.5,0.4c-0.1-0.1-0.2-0.3-0.2-0.3c0.2-0.1,0.4-0.2,0.5-0.4
				c-0.1-0.3-0.2-0.7-0.3-1.1l0.2,0H17v-0.3h0.8l0.1,0L18.1,223.7z M17.3,224c0,0.3,0.1,0.5,0.2,0.8c0.1-0.2,0.2-0.5,0.2-0.8H17.3z"
				/>
			<path class="st9" d="M20.6,224.2c0,0.4-0.1,0.7-0.2,0.9c0.1,0.2,0.2,0.3,0.3,0.4c-0.1,0.1-0.2,0.2-0.2,0.3
				c-0.1-0.1-0.2-0.2-0.3-0.3c-0.1,0.1-0.2,0.3-0.4,0.4c0-0.1-0.1-0.2-0.2-0.3c0.1-0.1,0.2-0.2,0.3-0.3c-0.3,0.2-0.4,0.3-0.4,0.3
				c0-0.1-0.1-0.2-0.1-0.3c0,0,0.1-0.1,0.1-0.2V225h-0.1v0c0,0.2,0,0.5-0.2,0.8c0-0.1-0.2-0.2-0.2-0.2c0.1-0.2,0.1-0.4,0.1-0.5v-0.3
				h0.7v0.4l0.2-0.1c0,0.1,0,0.2,0.1,0.2c0,0,0.1-0.1,0.1-0.1c0-0.1-0.1-0.3-0.1-0.5c0,0,0,0,0,0.1c0,0-0.1-0.1-0.1-0.1v0.1H19v-0.3
				h0.8c0,0,0-0.1,0.1-0.1H19v-0.1c0,0.1-0.1,0.1-0.1,0.2v1.5h-0.3v-1c0,0-0.1,0.1-0.1,0.1c0-0.1-0.1-0.3-0.2-0.3
				c0.2-0.2,0.3-0.4,0.5-0.7l0.3,0.1v-0.4h0.2v0.4h0.1v-0.6h0.3v0.6h0.1v-0.4h0.2v0.5c0.1-0.2,0.1-0.5,0.2-0.7l0.3,0.1
				c0,0.1,0,0.3-0.1,0.4h0.4L20.6,224.2L20.6,224.2z M19,223.5c-0.1,0.2-0.4,0.5-0.6,0.6c0-0.1-0.1-0.2-0.2-0.3
				c0.2-0.1,0.3-0.3,0.4-0.5L19,223.5z M20.1,224.2C20.1,224.2,20.1,224.2,20.1,224.2c0,0.2,0,0.3,0.1,0.5c0-0.1,0.1-0.3,0.1-0.5
				H20.1z"/>
			<path class="st9" d="M23,224.2c0,0.4-0.1,0.7-0.2,0.9c0.1,0.2,0.2,0.3,0.4,0.4c-0.1,0.1-0.2,0.2-0.3,0.3
				c-0.2-0.1-0.3-0.2-0.4-0.4c-0.1,0.2-0.3,0.3-0.5,0.4c0-0.1-0.1-0.3-0.2-0.3c0.2-0.1,0.4-0.2,0.5-0.4c-0.1-0.1-0.1-0.3-0.1-0.4
				c0,0-0.1,0.1-0.1,0.1c0,0-0.1-0.1-0.2-0.2c-0.1,0.1-0.2,0.2-0.3,0.3v0c0.1,0,0.3,0,0.4,0v0.3c-0.1,0-0.3,0-0.4,0v0.2
				c0,0.1,0,0.2-0.1,0.3c-0.1,0-0.2,0.1-0.4,0.1c0-0.1-0.1-0.2-0.1-0.3c0.1,0,0.2,0,0.2,0c0,0,0,0,0,0v-0.1l-0.5,0l0-0.3
				c0.1,0,0.3,0,0.5,0v-0.1c0.1,0,0.1-0.1,0.2-0.1h-0.1c-0.1,0.1-0.2,0.2-0.3,0.2c0-0.1-0.2-0.2-0.2-0.3c0.1,0,0.2-0.1,0.3-0.2v-0.1
				h0.1c0,0,0.1-0.1,0.1-0.1h-0.5v-0.3h0.3v-0.1h-0.3v-0.3h0.3v-0.2h0.3v0.2h0.2v0.2c0.1-0.1,0.1-0.2,0.1-0.3l0.3,0.1
				c-0.1,0.2-0.1,0.3-0.2,0.5H22v0.2c0.1-0.2,0.2-0.5,0.2-0.8l0.4,0.1c0,0.1,0,0.3-0.1,0.4h0.6v0.3H23z M21.5,224.1L21.5,224.1
				c0.1,0,0.1-0.1,0.1-0.1h-0.1V224.1z M21.8,224.5c0,0,0.1-0.1,0.1-0.1h-0.2c0,0-0.1,0.1-0.1,0.1h0.1L21.8,224.5L21.8,224.5z
				 M22.4,224.2c0,0.2,0.1,0.3,0.1,0.5c0-0.1,0.1-0.3,0.1-0.5H22.4z"/>
			<path class="st9" d="M25.6,223.9h-0.5c0.1,0.1,0.3,0.2,0.4,0.3l-0.3,0.2c0,0-0.1-0.1-0.1-0.1c-1.2,0.1-1.3,0.1-1.5,0.1
				c0-0.1-0.1-0.3-0.1-0.4c0.1,0,0.1,0,0.2-0.1c0,0,0.1,0,0.1-0.1h-0.4v-0.3h0.9c0,0,0-0.1-0.1-0.1l0.4-0.1c0,0.1,0.1,0.2,0.1,0.2
				h0.9V223.9z M25.3,225.5c0,0.2,0,0.3-0.2,0.3c-0.1,0-0.3,0-0.5,0c0-0.1-0.1-0.2-0.1-0.3c0.1,0,0.4,0,0.4,0c0.1,0,0.1,0,0.1-0.1v0
				H24v0.4h-0.4v-1.3h1.7V225.5z M24,224.8L24,224.8l0.9,0.1v-0.1H24z M24.9,225.2L24.9,225.2l-0.9-0.1v0.1H24.9z M24.7,224
				L24.7,224l-0.3-0.1c-0.1,0.1-0.1,0.1-0.2,0.2L24.7,224L24.7,224z"/>
			<path class="st9" d="M27.2,224.4c-0.1,0-0.1,0.1-0.2,0.1h0.8v0.3h-0.9c0,0,0,0.1-0.1,0.1h0.9c0,0,0,0.1,0,0.1
				c-0.1,0.3-0.1,0.5-0.2,0.6c-0.1,0.1-0.2,0.1-0.3,0.1c-0.1,0-0.3,0-0.4,0c0-0.1-0.1-0.2-0.1-0.3c0.2,0,0.4,0,0.4,0
				c0.1,0,0.1,0,0.1,0c0,0,0.1-0.1,0.1-0.2h-1c0.1-0.1,0.1-0.3,0.2-0.4c-0.2,0.1-0.4,0.2-0.6,0.3c0-0.1-0.1-0.2-0.1-0.3
				c0.3-0.1,0.6-0.2,0.9-0.4h-0.8v-0.3h0.8V224h-0.6v-0.3h0.6v-0.2H27v0.2h0.5v0.1c0.1-0.1,0.2-0.2,0.2-0.3l0.3,0.2
				c-0.1,0.2-0.2,0.3-0.4,0.4h0.5v0.3H27.2z M27,224.1h0.1c0.1,0,0.1-0.1,0.2-0.1H27V224.1z"/>
			<path class="st9" d="M29.6,225.2c0.1,0,0.2,0,0.2-0.1l0,0.3c-0.2,0.1-0.5,0.2-0.7,0.2l-0.1-0.3c-0.4,0.3-0.5,0.3-0.5,0.4
				c0-0.1-0.1-0.2-0.2-0.3c0.1,0,0.1-0.1,0.1-0.2v-0.7h-0.3v-0.4h0.6v1l0.2-0.1c0,0.1,0,0.2,0.1,0.3l0.1,0v-0.5h-0.2v-0.3h0.7v0.3
				h-0.2V225.2z M28.8,224.1c-0.1-0.1-0.3-0.3-0.4-0.4l0.2-0.2c0.1,0.1,0.3,0.3,0.4,0.4L28.8,224.1z M30.2,224.2
				c0,0.6,0.1,1.1,0.1,1.1c0,0,0-0.1,0-0.3c0.1,0.1,0.2,0.2,0.3,0.2c-0.1,0.5-0.2,0.6-0.3,0.6c-0.3,0-0.4-0.6-0.5-1.6H29v-0.3h0.7
				c0-0.1,0-0.3,0-0.4h0.4v0.1l0.2-0.1c0.1,0.1,0.2,0.2,0.2,0.3l-0.2,0.1h0.1v0.3H30.2z M30.3,223.9c0-0.1-0.1-0.2-0.2-0.3
				c0,0.1,0,0.2,0,0.3H30.3z"/>
			<path class="st9" d="M31.3,223.9c0,0.2-0.1,0.3-0.1,0.5h0.4v1.2h-0.5v0.2h-0.3V225c0,0-0.1,0.1-0.1,0.1c0-0.1-0.1-0.3-0.1-0.4
				c0.1-0.2,0.2-0.5,0.3-0.8h-0.2v-0.3h0.9v0.3H31.3z M31.3,224.6h-0.2v0.6h0.2V224.6z M33.1,224.8h-0.2v1h-0.3v-1h-0.2
				c0,0.4-0.1,0.8-0.3,1c-0.1-0.1-0.2-0.2-0.3-0.2c0.2-0.2,0.3-0.5,0.3-0.8h-0.2v-0.3h0.2v-0.6h-0.2v-0.3H33v0.3h-0.2v0.6h0.2V224.8
				z M32.5,224.4v-0.6h-0.2v0.6H32.5z"/>
			<path class="st9" d="M35.2,225.4c0,0,0.1,0,0.1-0.4c0.1,0.1,0.2,0.1,0.3,0.2c0,0.4-0.1,0.5-0.4,0.5H35c-0.3,0-0.4-0.1-0.4-0.4
				V225h-0.3c0,0.3-0.2,0.7-0.9,0.8c-0.1-0.1-0.2-0.2-0.3-0.3c0.5-0.1,0.7-0.3,0.8-0.5h-0.5v-0.3H34v-0.2h0.4v0.2H35v0.7
				C35,225.4,35,225.4,35.2,225.4L35.2,225.4z M33.6,224.2h-0.4v-0.5h0.9c0-0.1,0-0.1-0.1-0.2l0.4-0.1c0,0.1,0.1,0.2,0.1,0.3h0.9
				v0.5h-0.4V224h-1.5V224.2z M33.3,224.3c0.2-0.1,0.5-0.2,0.7-0.3l0.3,0.2c-0.2,0.2-0.5,0.3-0.8,0.4L33.3,224.3z M34.7,224
				c0.2,0.1,0.6,0.3,0.7,0.4l-0.3,0.2c-0.1-0.1-0.5-0.3-0.7-0.4L34.7,224z"/>
			<path class="st9" d="M38,224.8h-0.5v1h-0.4v-1h-0.5c0,0.4-0.2,0.7-0.6,1c-0.1-0.1-0.2-0.2-0.3-0.3c0.3-0.2,0.5-0.5,0.5-0.7h-0.5
				v-0.4h0.5v-0.1v-0.5h-0.5v-0.3h2.1v0.3h-0.4v0.6H38V224.8z M37.1,224.5v-0.6h-0.5v0.5v0.1H37.1z"/>
			<path class="st9" d="M40.3,224.6c-0.1,0.3-0.3,0.5-0.4,0.7c0.2,0.1,0.4,0.1,0.6,0.2c-0.1,0.1-0.2,0.2-0.2,0.3
				c-0.3-0.1-0.5-0.2-0.7-0.3c-0.2,0.1-0.4,0.2-0.7,0.3c0-0.1-0.1-0.2-0.2-0.3c0.2,0,0.4-0.1,0.6-0.2c-0.1-0.1-0.1-0.2-0.2-0.3
				c-0.2,0.2-0.4,0.4-0.7,0.6c0-0.1-0.2-0.2-0.3-0.3c0.4-0.2,0.7-0.6,0.9-1h-0.3c-0.1,0-0.2,0-0.3,0.1c0-0.1-0.1-0.2-0.1-0.3
				c0,0,0.1-0.1,0.1-0.1c0-0.1,0.1-0.2,0.2-0.4l0.4,0.1c0,0.1-0.1,0.3-0.2,0.4h0.3c0-0.2,0.1-0.3,0.1-0.5l0.4,0.1
				c0,0.2,0,0.3-0.1,0.5H40c-0.1-0.1-0.2-0.2-0.3-0.4l0.3-0.2c0.1,0.1,0.2,0.2,0.3,0.3l-0.3,0.2h0.4l0,0.3h-1c0,0.1,0,0.1-0.1,0.2
				H40l0.1,0L40.3,224.6z M39.3,224.8c0.1,0.1,0.2,0.2,0.3,0.3c0.1-0.1,0.2-0.2,0.2-0.3H39.3z"/>
			<path class="st9" d="M42.9,223.9v1.3h-0.4V225H42v0.8h-0.4V225h-0.5v0.1h-0.4v-1.3h0.8v-0.4H42v0.4H42.9z M41.6,224.7v-0.5h-0.5
				v0.5H41.6z M42.5,224.7v-0.5H42v0.5H42.5z"/>
			<path class="st9" d="M43.7,224.3c0,0.3-0.1,0.8-0.2,1.1l-0.4-0.2c0.1-0.3,0.1-0.6,0.2-1L43.7,224.3z M44.2,224.2v1.1
				c0,0.1,0,0.1,0.1,0.1h0.3c0.1,0,0.1-0.1,0.1-0.4c0.1,0.1,0.2,0.1,0.3,0.2c0,0.5-0.1,0.6-0.5,0.6h-0.4c-0.4,0-0.5-0.1-0.5-0.5
				v-1.1H44.2z M44.1,223.4c0.2,0.1,0.5,0.4,0.7,0.5l-0.3,0.3c-0.1-0.2-0.5-0.4-0.7-0.5L44.1,223.4z M45.2,224.2
				c0.1,0.3,0.3,0.7,0.3,0.9l-0.4,0.2c0-0.3-0.2-0.7-0.3-1L45.2,224.2z"/>
			<path class="st9" d="M46.5,225.2c0-0.1-0.1-0.2-0.2-0.3v0.9h-0.4V225c-0.1,0.1-0.1,0.1-0.2,0.2c0-0.1-0.1-0.3-0.2-0.4
				c0.2-0.1,0.4-0.4,0.6-0.7h-0.5v-0.3H46c0-0.1-0.1-0.2-0.2-0.3l0.3-0.2c0.1,0.1,0.2,0.2,0.2,0.3l-0.2,0.1h0.1l0.1,0l0.2,0.1
				c-0.1,0.2-0.2,0.4-0.3,0.5v0.1l0,0c0.1-0.1,0.1-0.2,0.2-0.2l0.2,0.2c-0.1,0.1-0.2,0.1-0.2,0.2c0.1,0.1,0.2,0.2,0.2,0.2
				L46.5,225.2z M47.9,223.6c0,0,0,0.1,0,0.2c0,1.3,0,1.7-0.1,1.8c-0.1,0.1-0.1,0.1-0.2,0.2c-0.1,0-0.2,0-0.4,0c0-0.1,0-0.3-0.1-0.3
				c0.1,0,0.2,0,0.3,0c0,0,0.1,0,0.1-0.1c0.1-0.1,0.1-0.5,0.1-1.4h-0.3c0,0.8-0.1,1.5-0.6,1.8c0-0.1-0.2-0.2-0.3-0.3
				c0.4-0.3,0.5-0.8,0.5-1.6h-0.3v-0.4H47.9z"/>
			<path class="st9" d="M50.3,223.9v1.3h-0.4V225h-0.5v0.8h-0.4V225h-0.5v0.1h-0.4v-1.3h0.8v-0.4h0.4v0.4H50.3z M49.1,224.7v-0.5
				h-0.5v0.5H49.1z M49.9,224.7v-0.5h-0.5v0.5H49.9z"/>
			<path class="st9" d="M52.1,225.2c0.2,0.2,0.5,0.3,0.9,0.3c-0.1,0.1-0.2,0.2-0.2,0.3c-0.4-0.1-0.7-0.2-1-0.5
				c-0.2,0.2-0.5,0.4-1,0.5c0-0.1-0.1-0.2-0.2-0.3c0.5-0.1,0.7-0.2,0.9-0.4h-0.8v-0.3h0.2v-0.6h0.7V224h0.4v0.2h0.7v0.6h0.2v0.3
				H52.1z M51.1,223.9h-0.5v-0.3h0.5v-0.2h0.4v0.2H52v-0.2h0.4v0.2h0.5v0.3h-0.5v0.2H52v-0.2h-0.6v0.2h-0.4V223.9z M51.5,224.8
				L51.5,224.8v-0.3h-0.4v0.3H51.5z M51.9,224.6v0.2v0h0.4v-0.3H51.9z"/>
			<path class="st9" d="M53.9,224.9h1.3v0.9h-0.4v-0.1h-0.6v0.1h-0.3v-0.4c-0.4,0.3-0.5,0.4-0.6,0.4c0-0.1-0.1-0.2-0.2-0.3
				c0.1,0,0.1-0.1,0.1-0.3v-0.7h-0.3v-0.3h0.6v1l0.2-0.1c0,0.1,0,0.2,0.1,0.2V224.9z M53.5,224.1c-0.1-0.1-0.3-0.3-0.4-0.4l0.2-0.2
				c0.1,0.1,0.3,0.3,0.4,0.4L53.5,224.1z M55.4,224.4v0.3h-1.6v-0.3h0.4c0-0.1,0-0.1,0-0.2h-0.3V224h0.3c0,0,0-0.1,0-0.1h-0.4v-0.3
				h1.5v0.3h-0.7l0,0.1h0.3l0.1,0l0.3,0c0,0.2,0,0.3,0,0.5H55.4z M54.3,225.2v0.2h0.6v-0.2H54.3z M54.5,224.4h0.3c0-0.1,0-0.1,0-0.2
				h-0.3L54.5,224.4z"/>
			<path class="st9" d="M56.5,224.7c0,0.1,0,0.2,0,0.3c-0.6,0.1-0.7,0.2-0.8,0.2c0-0.1-0.1-0.2-0.1-0.3c0.1,0,0.1-0.1,0.2-0.2
				c0,0,0.1-0.1,0.2-0.2c-0.2,0-0.3,0-0.3,0.1c0-0.1-0.1-0.2-0.1-0.3c0.1,0,0.1-0.1,0.2-0.1c0.1-0.1,0.2-0.4,0.3-0.7l0.3,0.2
				c-0.1,0.2-0.2,0.4-0.4,0.6l0.2,0c0-0.1,0.1-0.2,0.1-0.3l0.3,0.2c-0.1,0.2-0.3,0.4-0.4,0.6L56.5,224.7z M57.9,225.4v0.3h-1.4v-0.3
				c-0.3,0.1-0.6,0.2-0.8,0.2l-0.1-0.3c0.2,0,0.5-0.1,0.9-0.2l0,0.3h0.2v-1.9h1.1v1.9H57.9z M57,223.9v0.3h0.4v-0.3H57z M57,224.8
				h0.4v-0.3H57V224.8z M57,225.4h0.4v-0.3H57V225.4z"/>
			<path class="st9" d="M61,224.7c0,0.1,0,0.2,0,0.3c-0.5,0.1-0.6,0.2-0.7,0.2c0-0.1-0.1-0.2-0.1-0.3c0.1,0,0.1-0.1,0.2-0.2
				c0,0,0.1-0.1,0.1-0.2c-0.2,0-0.2,0-0.2,0.1c0-0.1-0.1-0.2-0.1-0.3c0.1,0,0.1-0.1,0.1-0.1c0-0.1,0.2-0.4,0.2-0.7l0.3,0.1
				c-0.1,0.2-0.2,0.5-0.3,0.7l0.1,0c0-0.1,0.1-0.2,0.1-0.3l0.3,0.2c-0.1,0.2-0.2,0.4-0.4,0.6L61,224.7z M62.6,225.5
				c0,0.1,0,0.2-0.1,0.2c-0.1,0-0.1,0-0.2,0c0-0.1,0-0.1,0-0.2v0.2H62v-0.5H62v0.5h-0.2v-0.5h-0.1v0.5h-0.3v-0.7
				c0,0.2-0.1,0.5-0.2,0.7c-0.1-0.1-0.2-0.2-0.3-0.2c0-0.1,0.1-0.1,0.1-0.2c-0.2,0.1-0.5,0.2-0.7,0.3l-0.1-0.3
				c0.2-0.1,0.5-0.2,0.7-0.3l0.1,0.2c0.1-0.4,0.1-0.8,0.1-1.1v-0.5h0.5c0-0.1,0-0.1-0.1-0.2l0.4-0.1c0,0.1,0.1,0.2,0.1,0.3h0.4v0.7
				h-1c0,0,0,0.1,0,0.1h1.1V225.5z M61.5,224v0.1h0.7V224H61.5z M61.8,225v-0.2h-0.1L61.8,225L61.8,225z M62,225v-0.2H62L62,225
				L62,225z M62.3,224.8v0.2h0.1L62.3,224.8L62.3,224.8z M62.3,225.5C62.3,225.5,62.3,225.5,62.3,225.5l0-0.3h-0.1L62.3,225.5
				L62.3,225.5z"/>
		</g>
	</g>
</g>
<g>
	<defs>
		<rect id="SVGID_17_" y="10.6" width="168.3" height="236.8"/>
	</defs>
	<clipPath id="SVGID_18_">
		<use xlink:href="#SVGID_17_"  style="overflow:visible;"/>
	</clipPath>
	<g class="st13">
		<path class="st14" d="M44.9,186.2h-2.3v-0.9l1.9-3.3h1.6v3.2h0.6v1h-0.6v1.3h-1.2V186.2z M44.9,185.2v-0.8c0-0.4,0-0.9,0-1.3l0,0
			c-0.1,0.3-0.3,0.6-0.4,1l-0.6,1.1H44.9z"/>
		<path class="st14" d="M47.3,184.7c0-1.9,0.8-2.8,2-2.8s2,1,2,2.8c0,1.9-0.8,2.9-2,2.9C48.1,187.6,47.3,186.6,47.3,184.7z
			 M50,184.7c0-1.5-0.3-1.8-0.7-1.8s-0.7,0.3-0.7,1.8s0.3,1.8,0.7,1.8C49.6,186.6,50,186.2,50,184.7z"/>
		<path class="st14" d="M51.8,184.7c0-1.9,0.8-2.8,2-2.8s2,1,2,2.8c0,1.9-0.8,2.9-2,2.9C52.6,187.6,51.8,186.6,51.8,184.7z
			 M54.5,184.7c0-1.5-0.3-1.8-0.7-1.8s-0.7,0.3-0.7,1.8s0.3,1.8,0.7,1.8C54.2,186.6,54.5,186.2,54.5,184.7z"/>
	</g>
</g>
<g>
	<defs>
		<rect id="SVGID_19_" y="10.6" width="168.3" height="236.8"/>
	</defs>
	<clipPath id="SVGID_20_">
		<use xlink:href="#SVGID_19_"  style="overflow:visible;"/>
	</clipPath>
	<g class="st15">
		<path class="st14" d="M140.9,104.6h-2.4v-1.1h3.8v0.8c-1.3,1.5-1.4,2.5-1.5,4.7h-1.3C139.6,107.2,139.9,106,140.9,104.6z"/>
		<path class="st14" d="M143,106.2c0-1.9,0.8-2.8,2-2.8s2,1,2,2.8c0,1.9-0.8,2.9-2,2.9S143,108.1,143,106.2z M145.7,106.2
			c0-1.5-0.3-1.8-0.7-1.8s-0.7,0.3-0.7,1.8s0.3,1.8,0.7,1.8S145.7,107.7,145.7,106.2z"/>
		<path class="st14" d="M147.6,106.2c0-1.9,0.8-2.8,2-2.8s2,1,2,2.8c0,1.9-0.8,2.9-2,2.9C148.4,109.1,147.6,108.1,147.6,106.2z
			 M150.3,106.2c0-1.5-0.3-1.8-0.7-1.8s-0.7,0.3-0.7,1.8s0.3,1.8,0.7,1.8S150.3,107.7,150.3,106.2z"/>
	</g>
</g>
<rect y="10.6" class="st11" width="168.3" height="236.8"/>
<g>
	<rect x="15.7" y="85.7" class="st11" width="43.1" height="10"/>
	<g class="st12">
		<path class="st9" d="M24.4,91.9l-0.5-0.1V96h-1.3v-0.3h-4.1V96h-1.3v-4.1L16.5,92l-0.4-1.3c1-0.1,2-0.3,2.8-0.6
			c-0.3-0.2-0.6-0.4-0.8-0.7c-0.3,0.2-0.7,0.5-1,0.8l-0.8-1.1c0.5-0.3,1-0.7,1.4-1.1s0.8-0.8,1-1.2l1.5,0.3
			c-0.1,0.1-0.2,0.3-0.3,0.5h4v1.4c-0.5,0.4-1,0.8-1.6,1.1c0.7,0.2,1.6,0.3,2.5,0.4L24.4,91.9z M18.4,93.1h1.4v-0.5h-1.4V93.1z
			 M19.8,94.1h-1.4v0.5h1.4V94.1z M22.5,91.6c-0.8-0.2-1.5-0.4-2-0.6c-0.5,0.2-1.1,0.4-1.8,0.6H22.5z M19.3,88.9
			c0.4,0.3,0.8,0.6,1.2,0.8c0.5-0.2,1-0.5,1.4-0.8H19.3z M21.1,93.1h1.4v-0.5h-1.4V93.1z M21.1,94.1v0.5h1.4v-0.5H21.1z"/>
		<path class="st9" d="M34.2,93.5c0,0.2-0.1,0.4-0.2,0.7c-0.1,0.3-0.1,0.5-0.2,0.6c-0.1,0.5-0.3,0.8-0.5,0.9S32.9,96,32.6,96
			c-0.3,0-0.6-0.1-0.8-0.3c-0.2-0.2-0.5-0.5-0.7-0.9c0-0.1-0.1-0.2-0.1-0.3c-0.4,0.3-0.7,0.5-1,0.7l-0.5-0.7v0.7h-2.3v0.4h-1.3V91h1
			v-3.7h1.4v1.1h1.4v1.3h-1.4V91h1.3v2.9c0.4-0.3,0.8-0.5,1.1-0.8c-0.1-0.5-0.2-1.3-0.3-2.2l-0.7,0.1l-0.1-1.3l0.7-0.1l0-0.5
			c-0.1-1-0.1-1.7-0.1-2l1.3,0c0,0.5,0.1,1.2,0.1,2.1l0,0.2l2.5-0.4l0.1,1.3l-1.2,0.2l1,0.6c-0.4,0.8-1,1.6-1.7,2.4
			c0.1,0.2,0.1,0.3,0.2,0.5c0.1,0.2,0.1,0.3,0.2,0.3c0,0.1,0.1,0.1,0.2,0.1c0.1,0,0.1,0,0.2-0.1c0-0.1,0.1-0.3,0.1-0.5
			c0-0.2,0.1-0.5,0.2-0.9L34.2,93.5z M27.2,94h1v-1.8h-1V94z M32.7,89.3c-0.3-0.3-0.7-0.7-1.3-1.2l0.8-0.9c0.5,0.4,0.9,0.7,1.3,1.1
			L32.7,89.3z M31.6,90.8c0.1,0.5,0.1,0.9,0.2,1.3c0.4-0.5,0.7-0.9,1-1.4L31.6,90.8z"/>
	</g>
	<g class="st12">
		<path class="st9" d="M40.2,94.6h-5.3c0-0.6,0.2-1.2,0.5-1.7s0.5-0.9,0.9-1.2s0.6-0.5,0.9-0.8c0.3-0.2,0.6-0.5,0.8-0.7
			c0.2-0.2,0.3-0.4,0.3-0.7c0-0.3-0.1-0.5-0.3-0.6s-0.4-0.2-0.7-0.2c-0.5,0-1.1,0.2-1.8,0.5l-0.3-1.3c1-0.4,1.8-0.6,2.5-0.6
			c0.8,0,1.4,0.2,1.8,0.5c0.4,0.3,0.6,0.8,0.6,1.4c0,0.3-0.1,0.7-0.3,1s-0.4,0.6-0.7,0.8c-0.3,0.2-0.6,0.5-0.8,0.7
			c-0.3,0.2-0.5,0.4-0.8,0.7c-0.2,0.2-0.4,0.5-0.5,0.7l3.2-0.1V94.6z"/>
		<path class="st9" d="M45.5,88.4c0.5,0.6,0.7,1.5,0.7,2.7c0,1.2-0.2,2.1-0.7,2.7s-1.1,0.9-2,0.9c-0.8,0-1.5-0.3-2-0.9
			s-0.7-1.5-0.7-2.7c0-1.2,0.2-2.1,0.7-2.7s1.1-1,2-1C44.4,87.5,45,87.8,45.5,88.4z M44.5,91.2c0-0.8-0.1-1.5-0.2-1.9
			s-0.4-0.6-0.8-0.6c-0.2,0-0.3,0-0.4,0.1c-0.1,0.1-0.2,0.2-0.3,0.3s-0.1,0.3-0.2,0.5s-0.1,0.4-0.1,0.6c0,0.2,0,0.4,0,0.7
			c0,0.8,0.1,1.4,0.2,1.8c0.1,0.4,0.4,0.6,0.8,0.6c0.2,0,0.3,0,0.4-0.1c0.1-0.1,0.2-0.2,0.3-0.3c0.1-0.1,0.1-0.3,0.2-0.5
			c0-0.2,0.1-0.4,0.1-0.6C44.5,91.7,44.5,91.5,44.5,91.2z"/>
		<path class="st9" d="M52,94.6h-5.3c0-0.6,0.2-1.2,0.5-1.7s0.5-0.9,0.9-1.2s0.6-0.5,0.9-0.8c0.3-0.2,0.6-0.5,0.8-0.7
			c0.2-0.2,0.3-0.4,0.3-0.7c0-0.3-0.1-0.5-0.3-0.6s-0.4-0.2-0.7-0.2c-0.5,0-1.1,0.2-1.8,0.5L47,88.1c1-0.4,1.8-0.6,2.5-0.6
			c0.8,0,1.4,0.2,1.8,0.5c0.4,0.3,0.6,0.8,0.6,1.4c0,0.3-0.1,0.7-0.3,1s-0.4,0.6-0.7,0.8c-0.3,0.2-0.6,0.5-0.8,0.7
			c-0.3,0.2-0.5,0.4-0.8,0.7c-0.2,0.2-0.4,0.5-0.5,0.7l3.2-0.1V94.6z"/>
		<path class="st9" d="M57.9,87.5l-0.3,1.3L55,88.8v1.3c0.6,0,1,0,1.4,0.1c0.4,0.1,0.7,0.3,0.9,0.5c0.2,0.2,0.3,0.4,0.4,0.7
			s0.1,0.5,0.1,0.8c0,0.7-0.3,1.3-0.8,1.7c-0.5,0.5-1.3,0.7-2.3,0.7c-0.8,0-1.4-0.2-2-0.5l0.4-1.1c0.4,0.2,0.9,0.3,1.5,0.3
			c0.4,0,0.8-0.1,1-0.3c0.3-0.2,0.4-0.4,0.4-0.8s-0.1-0.6-0.4-0.8c-0.3-0.2-0.7-0.3-1.4-0.3l-0.9,0v-3.8H57.9z"/>
	</g>
</g>
<rect x="11" y="13.8" class="st11" width="168.3" height="236.8"/>
<g>
	<rect x="126" y="214.5" class="st11" width="26.2" height="3.3"/>
	<g class="st12">
		<path class="st9" d="M127.7,216.7v0.4h-1.6v-0.3c0,0,0.1-0.1,0.1-0.1c0,0,0.1-0.1,0.1-0.1l0.1-0.1c0,0,0,0,0,0l0.1-0.1
			c0.2-0.2,0.3-0.3,0.4-0.5c0.1-0.1,0.1-0.3,0.1-0.4c0-0.3-0.1-0.5-0.4-0.5c0,0-0.1,0-0.1,0l-0.1,0.3c0,0.1,0,0.2-0.1,0.2
			c0,0-0.1,0.1-0.1,0.1c-0.1,0-0.2,0-0.2-0.1c0-0.2,0.1-0.3,0.3-0.4c0.1-0.1,0.3-0.1,0.5-0.1c0.2,0,0.4,0.1,0.5,0.2
			c0.1,0.1,0.2,0.3,0.2,0.4c0,0.3-0.3,0.6-0.9,1c0,0-0.1,0.1-0.2,0.1l-0.2,0.2H127.7z"/>
		<path class="st9" d="M129.3,215.1c0.1,0.1,0.1,0.2,0.2,0.4c0,0.2,0.1,0.3,0.1,0.5s0,0.4-0.1,0.5c0,0.1-0.1,0.3-0.2,0.4
			c-0.1,0.2-0.3,0.3-0.6,0.3s-0.4-0.1-0.6-0.3c-0.2-0.2-0.2-0.5-0.2-0.9c0-0.4,0.1-0.7,0.2-0.9c0.1-0.2,0.3-0.3,0.6-0.3
			S129.2,214.9,129.3,215.1z M128.5,216.5c0,0.1,0,0.2,0.1,0.3c0.1,0.1,0.1,0.2,0.2,0.2c0.1,0,0.2-0.1,0.2-0.2
			c0-0.1,0.1-0.2,0.1-0.3c0-0.1,0-0.3,0-0.5s0-0.4,0-0.5c0-0.1,0-0.2-0.1-0.3c-0.1-0.1-0.1-0.2-0.2-0.2c-0.1,0-0.2,0.1-0.2,0.2
			c0,0.1-0.1,0.2-0.1,0.3c0,0.1,0,0.3,0,0.5C128.5,216.1,128.5,216.3,128.5,216.5z"/>
		<path class="st9" d="M131.5,216.7v0.4h-1.6v-0.3c0,0,0.1-0.1,0.1-0.1c0,0,0.1-0.1,0.1-0.1l0.1-0.1c0,0,0,0,0,0l0.1-0.1
			c0.2-0.2,0.3-0.3,0.4-0.5c0.1-0.1,0.1-0.3,0.1-0.4c0-0.3-0.1-0.5-0.4-0.5c0,0-0.1,0-0.1,0l-0.1,0.3c0,0.1,0,0.2-0.1,0.2
			c0,0-0.1,0.1-0.1,0.1c-0.1,0-0.2,0-0.2-0.1c0-0.2,0.1-0.3,0.3-0.4c0.1-0.1,0.3-0.1,0.5-0.1c0.2,0,0.4,0.1,0.5,0.2
			c0.1,0.1,0.2,0.3,0.2,0.4c0,0.3-0.3,0.6-0.9,1c0,0-0.1,0.1-0.2,0.1l-0.2,0.2H131.5z"/>
		<path class="st9" d="M132.1,215.8c0.1,0,0.3-0.1,0.4-0.1c0.3,0,0.5,0.1,0.6,0.2c0.2,0.1,0.2,0.3,0.2,0.5c0,0.2-0.1,0.4-0.3,0.5
			c-0.2,0.1-0.4,0.2-0.7,0.2c-0.5,0-0.7-0.2-0.7-0.6c0-0.1,0.1-0.1,0.2-0.1c0.1,0,0.2,0.1,0.2,0.3l0,0.3c0,0,0.1,0,0.2,0
			c0.3,0,0.5-0.2,0.5-0.6c0-0.4-0.1-0.6-0.4-0.6c-0.1,0-0.2,0-0.4,0.1l-0.1-0.1l0.1-1h1.3v0.4h-1.1L132.1,215.8z"/>
		<path class="st9" d="M134.8,215.2c0,0-0.1,0-0.1,0c-0.1,0.2-0.2,0.3-0.3,0.5c0.1,0.1,0.2,0.1,0.3,0.2c0,0.1,0.1,0.1,0,0.2
			c0,0.1-0.1,0.1-0.1,0.1c-0.1,0-0.1,0-0.2-0.1c0-0.1,0-0.2-0.1-0.3v1.3c0,0,0,0-0.1,0.1c-0.1,0-0.2,0.1-0.2,0.1H134v-1.2
			c-0.1,0.1-0.3,0.2-0.4,0.3l0,0c0.2-0.2,0.3-0.4,0.5-0.6c0.1-0.2,0.2-0.4,0.3-0.6h-0.6l0-0.1h0.7l0.2-0.2L134.8,215.2z
			 M133.9,214.4c0.2,0,0.4,0.1,0.5,0.2c0.1,0.1,0.1,0.1,0.1,0.2c0,0.1-0.1,0.1-0.2,0.2c-0.1,0-0.2,0-0.3-0.1c0-0.1,0-0.2,0-0.3
			C133.9,214.6,133.9,214.5,133.9,214.4L133.9,214.4z M134.7,214.8L134.7,214.8l1.2-0.1l0.2-0.3l0.1,0.1c0,0,0.1,0.1,0.1,0.1
			l0.1,0.1c0,0,0,0-0.1,0H134.7z M136.5,216c0,0-0.1,0.1-0.1,0.1v1.1c0,0,0,0,0,0c0,0-0.1,0-0.1,0c-0.1,0-0.2,0-0.2,0H136v-0.2h-0.8
			v0.1c0,0,0,0-0.1,0.1c-0.1,0-0.2,0-0.2,0h-0.1v-1.5l0.4,0.2h0.8l0.2-0.2L136.5,216z M135.9,215.8v-0.1h-0.5v0c0,0,0,0,0,0
			c0,0,0,0-0.1,0c-0.1,0-0.2,0-0.2,0h-0.1v-0.9l0.4,0.2h0.5l0.2-0.2l0.4,0.3c0,0-0.1,0.1-0.1,0.1v0.5c0,0,0,0,0,0c0,0-0.1,0-0.1,0
			C136.1,215.7,136,215.8,135.9,215.8L135.9,215.8z M135.2,216v0.4h0.2V216H135.2z M135.2,217h0.2v-0.5h-0.2V217z M135.9,215.6v-0.4
			h-0.5v0.4H135.9z M135.8,216v0.4h0.2V216H135.8z M136,217v-0.5h-0.2v0.5H136z"/>
		<path class="st9" d="M137.9,215.8c0,0-0.1,0-0.1,0.1c0,0.2-0.1,0.3-0.1,0.4c0,0.1-0.1,0.3-0.2,0.4c0.2,0.1,0.4,0.1,0.6,0.2
			c0.1,0,0.2,0,0.4,0c0.1,0,0.3,0,0.4,0l0.7,0v0c-0.1,0-0.1,0.1-0.2,0.1c0,0.1-0.1,0.1-0.1,0.2h-0.5c-0.2,0-0.4,0-0.5,0
			c-0.2,0-0.3,0-0.4-0.1c-0.3-0.1-0.5-0.1-0.6-0.3c-0.2,0.2-0.4,0.3-0.6,0.5l0,0c0.2-0.2,0.4-0.4,0.5-0.6c-0.1-0.2-0.3-0.5-0.3-0.8
			l0,0c0.1,0.3,0.2,0.5,0.4,0.6c0.1-0.2,0.1-0.5,0.1-0.7h-0.1l-0.1,0.1l-0.4-0.2c0,0,0.1,0,0.1-0.1c0.1-0.2,0.2-0.5,0.3-0.8h-0.5
			l0-0.1h0.5l0.2-0.2l0.3,0.3c0,0-0.1,0-0.1,0c0,0.1-0.1,0.2-0.2,0.4c-0.1,0.1-0.1,0.3-0.2,0.4h0l0.2-0.2L137.9,215.8z M139.4,214.9
			L139.4,214.9l0.1,0.1c0.1,0.1,0.1,0.1,0.2,0.2c0,0,0,0-0.1,0h-0.4v0.4c0,0,0,0,0,0c0,0-0.1,0-0.1,0l0.2,0.1
			c0.1,0.1,0.1,0.1,0.2,0.2c0,0,0,0-0.1,0h-0.7v0.3h0.3l0.2-0.3l0.3,0.2l0.1,0.1c0,0,0,0-0.1,0h-0.8v0.3c0,0,0,0-0.1,0.1
			c-0.1,0-0.2,0-0.2,0h-0.1v-0.4h-0.6l0-0.1h0.6V216h-0.4l0-0.1h0.5v-0.3h-0.4l0-0.1h0.4v-0.3h-0.6l0-0.1h0.6v-0.3h-0.4l0-0.1h0.5
			v-0.3l0.5,0c0,0,0,0.1-0.1,0.1v0.2h0.2l0.2-0.2L139.4,214.9c-0.1,0-0.1,0-0.2,0v0.2h0L139.4,214.9z M138.6,215.1h0.2v-0.3h-0.2
			V215.1z M138.8,215.2h-0.2v0.3h0.2V215.2z M139,215.7c0,0-0.1,0-0.1,0h-0.1v-0.1h-0.2v0.3h0.2L139,215.7z"/>
		<path class="st9" d="M142.7,215.2c0,0-0.1,0.1-0.1,0.1v1c0,0,0,0,0,0c0,0-0.1,0-0.1,0c-0.1,0-0.2,0-0.3,0h-0.1v-0.3h-0.6v1.1
			c0,0,0,0,0,0c0,0-0.1,0-0.1,0.1c-0.1,0-0.2,0.1-0.3,0.1H141v-1.2h-0.6v0.2c0,0,0,0,0,0c0,0-0.1,0-0.1,0c-0.1,0-0.2,0.1-0.3,0.1
			h-0.1v-1.5l0.5,0.2h0.5v-0.7l0.6,0.1c0,0,0,0.1-0.1,0.1v0.6h0.6l0.2-0.2L142.7,215.2z M141,216v-0.8h-0.6v0.8H141z M142.1,216
			v-0.8h-0.6v0.8H142.1z"/>
	</g>
	<g class="st12">
		<path class="st9" d="M145.5,215.1L145.5,215.1l0.3,0.2l0.1,0.1c0,0,0,0-0.1,0h-1c-0.2,0.2-0.5,0.3-0.7,0.4h0.9l0.2-0.3l0.1,0.1
			c0,0,0.1,0.1,0.1,0.1c0,0,0.1,0.1,0.1,0.1c0,0,0,0-0.1,0h-1l-0.1,0.4h0.5l0.2-0.2l0.4,0.3c0,0-0.1,0-0.1,0.1
			c0,0.4-0.2,0.6-0.3,0.7c-0.1,0.1-0.2,0.1-0.4,0.1c0-0.1,0-0.2-0.1-0.3c-0.1-0.1-0.2-0.1-0.3-0.1v0c0.2,0,0.4,0,0.5,0
			c0,0,0.1,0,0.1,0c0.1,0,0.1-0.2,0.1-0.5h-0.6l-0.1,0.2l-0.4-0.2c0,0,0.1-0.1,0.1-0.1c0-0.1,0.1-0.2,0.1-0.4h-0.1
			c-0.3,0.1-0.6,0.3-1,0.4l0,0c0.2-0.1,0.5-0.2,0.7-0.4c0.2-0.1,0.4-0.3,0.6-0.5H143l0-0.1h0.9v-0.4h-0.7l0-0.1h0.7v-0.4l0.6,0
			c0,0,0,0.1-0.1,0.1v0.3h0l0.2-0.3l0.1,0.1c0.1,0.1,0.1,0.1,0.2,0.2c0.1-0.1,0.2-0.2,0.3-0.4l0.5,0.3c0,0-0.1,0-0.1,0
			c-0.2,0.2-0.4,0.4-0.6,0.6h0.4L145.5,215.1z M144.4,214.9v0.4c0.1-0.1,0.3-0.2,0.4-0.4H144.4z"/>
	</g>
</g>
</svg>
